<?xml version="1.0" encoding="utf-8"?>
<!-- Generator: Adobe Illustrator 27.0.1, SVG Export Plug-In . SVG Version: 6.00 Build 0)  -->
<svg version="1.1" id="Calque_1" xmlns="http://www.w3.org/2000/svg" xmlns:xlink="http://www.w3.org/1999/xlink" x="0px" y="0px"
	 viewBox="0 0 12 24" style="enable-background:new 0 0 12 24;" xml:space="preserve">
<style type="text/css">
	.st0{clip-path:url(#SVGID_00000053530335348286935460000009362569123534123169_);}
	.st1{fill:#B78016;}
</style>
<g id="Groupe_348" transform="translate(11.426 23.063) rotate(-180)">
	<g>
		<defs>
			<rect id="SVGID_1_" x="-0.3" y="-0.5" width="11.4" height="23.1"/>
		</defs>
		<clipPath id="SVGID_00000175302589703156900590000009522610430917286576_">
			<use xlink:href="#SVGID_1_"  style="overflow:visible;"/>
		</clipPath>
		
			<g id="Groupe_347" transform="translate(0 0.001)" style="clip-path:url(#SVGID_00000175302589703156900590000009522610430917286576_);">
			<path id="Tracé_560" class="st1" d="M0,22.3L0,22.3c-0.3-0.3-0.3-0.8,0-1.1c0,0,0,0,0,0L9.1,12c0.5-0.5,0.5-1.4,0-2L0,0.8
				C-0.3,0.5-0.3,0,0-0.3s0.8-0.3,1.1,0l9.2,9.2c1.2,1.2,1.2,3.1,0,4.2c0,0,0,0,0,0l-9.2,9.2C0.8,22.6,0.3,22.6,0,22.3
				C0,22.3,0,22.3,0,22.3"/>
		</g>
	</g>
</g>
</svg>
