<?xml version="1.0" encoding="utf-8"?>
<!-- Generator: Adobe Illustrator 27.1.1, SVG Export Plug-In . SVG Version: 6.00 Build 0)  -->
<svg version="1.1" id="Calque_1" xmlns="http://www.w3.org/2000/svg" xmlns:xlink="http://www.w3.org/1999/xlink" x="0px" y="0px"
	 viewBox="0 0 150.4 128.7" style="enable-background:new 0 0 150.4 128.7;" xml:space="preserve">
<style type="text/css">
	.st0{fill:#464646;}
</style>
<g id="Groupe_224" transform="translate(0 8.893)">
	<path id="Tracé_245" class="st0" d="M25.7,13.5c0.6-1,1.6-1.7,2.6-2.1c0.4-0.1,0.8,0,1.1,0.3c1,1,1.9,2.2,2.6,3.4
		c6.6,0.8,13.1,2.4,19.3,4.9c8.3,3.3,16.6,8.4,26,15.9c13,10.3,24.2,22.7,33,36.7c9.2,15,14.3,30.5,15.1,46.1c0,0.6-0.4,1.1-1,1.1
		c-0.6,0-1.1-0.4-1.1-1C121.8,90,104.6,60.4,76,37.5c-9.2-7.4-17.3-12.3-25.4-15.6c-5.9-2.3-12-3.9-18.3-4.7
		c-0.1,0.6-0.4,1.2-0.8,1.6c-0.8,0.9-1.9,1.3-3,1.2c-2.1-0.3-3.7-2.2-3.5-4.4C25,14.9,25.2,14.2,25.7,13.5z M28.4,13.7
		c-0.8,0.5-1.3,1.3-1.4,2.2c-0.1,1,0.6,1.9,1.6,2.2c0.5,0,0.9-0.2,1.2-0.5c0.3-0.3,0.4-0.7,0.3-1c0-0.1,0-0.2,0-0.4
		C29.7,15.3,29.1,14.4,28.4,13.7L28.4,13.7z"/>
</g>
<g id="Groupe_225" transform="translate(12.807 3.698)">
	<path id="Tracé_246" class="st0" d="M31.6,11.8c0.3-0.4,0.7-0.6,1.2-0.4c5.3,1.7,9.9,4.9,13.4,9.2c1.2,1.4,2.1,2.9,2.6,4.6
		c0.6,2.3,0.7,4.7,0.4,7.1c0,0.2-0.1,0.4-0.2,0.6c-2.3,2.8-6.4,4.6-11.1,5c-4.1,0.2-8.1-0.2-12.1-1c-0.6-0.1-1-0.6-0.9-1.2
		c0.1-0.6,0.6-1,1.2-0.9c3.8,0.8,7.7,1.2,11.6,1c4-0.3,7.4-1.8,9.4-4c0.3-2,0.1-4-0.3-5.9c-0.5-1.4-1.3-2.8-2.3-4
		c-3.2-4-7.5-7-12.4-8.6c-0.6-0.2-0.9-0.8-0.7-1.3C31.5,12,31.6,11.9,31.6,11.8L31.6,11.8z"/>
</g>
<g id="Groupe_226" transform="translate(27.908 15.814)">
	<path id="Tracé_247" class="st0" d="M25.1,34.2c0.3-0.4,0.7-0.6,1.2-0.4c7.4,2,15.2,0.5,21.3-4.2c1.2-2.8,1.9-5.8,2-8.8
		c0.1-2.8-1-5.6-2.9-7.6c-0.4-0.4-0.4-1.1-0.1-1.5c0.4-0.4,1.1-0.4,1.5-0.1l0,0c2.4,2.4,3.7,5.7,3.6,9.2c-0.1,3.4-0.8,6.8-2.2,9.9
		c-0.1,0.2-0.2,0.3-0.3,0.4c-6.6,5.2-15.3,7-23.4,4.7c-0.6-0.2-0.9-0.7-0.7-1.3c0,0,0,0,0,0C25,34.4,25,34.3,25.1,34.2z"/>
</g>
<g id="Groupe_227" transform="translate(42.459 22.038)">
	<path id="Tracé_248" class="st0" d="M25.1,38.7c0.2-0.3,0.4-0.4,0.7-0.5c0.1,0,0.2,0,0.3,0l9.8-0.8c3.5-0.3,6.6-2.7,9.2-4.7
		c1.6-3.2,3.1-6.7,3.3-10.4c0-1.8-0.2-3.6-0.6-5.3c-0.4-1.4-0.8-2.8-1.4-4.2c-0.2-0.5,0-1.1,0.5-1.4c0.5-0.2,1.1,0,1.4,0.5
		c0.6,1.5,1.1,2.9,1.5,4.5c0.5,1.9,0.7,3.9,0.7,5.9c-0.2,4.2-1.8,8-3.6,11.5c-0.1,0.1-0.2,0.3-0.3,0.3c-2.8,2.2-6.3,5-10.5,5.3
		l-9.8,0.8c-0.1,0-0.1,0-0.2,0c-0.6,0.1-1.1-0.3-1.2-0.9C24.9,39.1,24.9,38.9,25.1,38.7L25.1,38.7z"/>
</g>
<g id="Groupe_228" transform="translate(71.102 27.222)">
	<path id="Tracé_249" class="st0" d="M25.6,13.2c0.4-0.7,1.1-1.2,1.8-1.6c0.8-0.4,1.8-0.4,2.7,0c0.3,0.2,0.5,0.5,0.5,0.8
		c0.2,1.5,0.1,3-0.4,4.4c2.2,3.8,3,8.2,2.3,12.4c-0.7,3.9-2,7.8-3.7,11.4c-0.2,0.5-0.8,0.8-1.4,0.6c-0.5-0.2-0.8-0.8-0.6-1.4
		c0,0,0,0,0,0c1.6-3.5,2.8-7.1,3.5-10.9c0.6-3.6-0.1-7.3-1.8-10.5c-0.1,0-0.1,0.1-0.2,0.1c-0.8,0.3-1.8,0.1-2.5-0.4
		c-1-0.9-1.4-2.3-1-3.6C25.1,14.1,25.3,13.6,25.6,13.2z M28.6,13.5c-0.1,0-0.2,0.1-0.3,0.1c-0.6,0.3-1,0.8-1.2,1.5
		c-0.2,0.5,0,1.1,0.3,1.5c0.1,0.1,0.2,0.1,0.3,0.1c0.1,0,0.2,0,0.2-0.1c0.1-0.2,0.2-0.4,0.3-0.6C28.5,15.1,28.6,14.3,28.6,13.5
		L28.6,13.5z"/>
</g>
<g id="Groupe_229" transform="translate(59.367 16.878)">
	<path id="Tracé_250" class="st0" d="M25.6,13.2c0.2-0.3,0.4-0.6,0.7-0.8c1.5-1.2,3.5-1.3,5.1-0.4c0.3,0.2,0.4,0.4,0.5,0.7
		c0.3,1.8-0.1,3.6-1.1,5.2c0,0-0.1,0.1-0.1,0.1c-0.7,0.7-1.6,1.1-2.6,1.1c-1.1-0.1-2.1-0.7-2.6-1.6C24.7,16.2,24.7,14.5,25.6,13.2z
		 M29.9,13.6c-0.8-0.3-1.6-0.1-2.2,0.4c-0.7,0.6-0.9,1.6-0.4,2.4c0.2,0.4,0.6,0.6,1,0.6c0.3,0,0.6-0.1,0.8-0.3
		C29.7,15.8,30,14.7,29.9,13.6L29.9,13.6z"/>
</g>
<g id="Groupe_230" transform="translate(36.99 45.283)">
	<path id="Tracé_251" class="st0" d="M25.6,13.2c0.5-0.8,1.3-1.5,2.3-1.8c0.3-0.1,0.7,0,1,0.2c1.4,1.2,2.5,2.7,3,4.5l0,0
		c0.2,0.7,0,1.4-0.5,1.9c-0.9,0.9-2.2,1.3-3.4,1.1c-1.8-0.4-3-2-3-3.9C24.9,14.5,25.2,13.8,25.6,13.2z M28,13.6
		c-0.6,0.4-0.9,1-1,1.6c0,0.8,0.5,1.5,1.3,1.7c0.5,0.1,1.1-0.1,1.5-0.5C29.4,15.4,28.8,14.4,28,13.6z"/>
</g>
<g id="Groupe_231" transform="translate(22.848 34.562)">
	<path id="Tracé_252" class="st0" d="M25.6,13.3c0.5-0.8,1.3-1.4,2.1-1.9c0.4-0.2,0.9-0.1,1.2,0.2c1.2,1.2,2,2.9,2.2,4.6
		c0.3,0.6,0.2,1.3-0.2,1.8c-0.7,1-1.9,1.5-3.1,1.3c-1.8-0.5-3-2.2-2.8-4.1C25,14.6,25.2,13.9,25.6,13.3z M28,13.8
		c-0.5,0.4-0.9,1-1,1.7c-0.1,0.8,0.4,1.6,1.2,1.8c0.3,0,0.7-0.1,0.9-0.3c-0.1-0.1-0.1-0.2-0.1-0.4C29,15.6,28.6,14.6,28,13.8
		L28,13.8z M30.1,16.6L30.1,16.6z"/>
</g>
<g id="Groupe_232" transform="translate(44.271 12.785)">
	<path id="Tracé_253" class="st0" d="M25.5,11.9c0,0,0-0.1,0.1-0.1c0.2-0.3,0.5-0.5,0.9-0.4c2.1,0.1,4.1,1.2,5.3,2.9
		c0.2,0.3,0.3,0.8,0.1,1.1c-0.5,0.9-1.4,1.6-2.4,1.9c-0.9,0.3-1.9,0.1-2.7-0.3C24.9,15.9,24.4,13.6,25.5,11.9L25.5,11.9z M29.5,14.9
		c-0.7-0.7-1.6-1.1-2.5-1.3c0,0.2,0,0.4,0,0.6c0.1,0.4,0.3,0.8,0.7,1c0.3,0.2,0.7,0.2,1.1,0.1C29.1,15.2,29.3,15.1,29.5,14.9
		L29.5,14.9z"/>
</g>
<g id="Groupe_233" transform="translate(13.834)">
	<path id="Tracé_254" class="st0" d="M25.6,13c0.5-0.8,1.3-1.4,2.3-1.7c0.3-0.1,0.5,0,0.8,0.1c1.6,0.9,2.8,2.5,3.2,4.3
		c0.3,1.2-0.3,2.5-1.4,3c-1.7,0.7-3.6,0.2-4.8-1.1c-0.7-1.1-0.9-2.5-0.4-3.7C25.3,13.6,25.4,13.3,25.6,13z M28,13.6
		c-0.4,0.2-0.7,0.6-0.9,1.1c-0.2,0.6-0.2,1.2,0.1,1.7c0.6,0.6,1.5,0.7,2.3,0.5c0.2-0.1,0.3-0.2,0.3-0.6l0,0
		C29.5,15.2,28.9,14.2,28,13.6z M30.8,16L30.8,16z"/>
</g>
<g id="Groupe_234" transform="translate(7.432 23.32)">
	<path id="Tracé_255" class="st0" d="M25.6,13.3c0.6-0.9,1.6-1.6,2.7-2c0.4-0.1,0.8,0,1,0.3c1.3,1.3,2.2,3,2.6,4.8l0,0
		c0.2,0.8-0.1,1.6-0.7,2.1c-1,0.8-2.3,1.1-3.6,0.8c-1.8-0.6-2.9-2.4-2.6-4.3C25,14.5,25.3,13.9,25.6,13.3z M28.2,13.6
		c-0.6,0.4-1.1,1-1.2,1.7c-0.1,0.9,0.4,1.7,1.2,2c0.5,0.1,0.9,0,1.3-0.2c0.1-0.1,0.2-0.2,0.3-0.3v0C29.6,15.7,29,14.6,28.2,13.6
		L28.2,13.6z M30.9,16.7L30.9,16.7z"/>
</g>
</svg>
