<svg xmlns="http://www.w3.org/2000/svg" width="491.367" height="158.041" viewBox="0 0 491.367 158.041">
  <g id="Groupe_490" data-name="Groupe 490" transform="translate(117.366 -2316.959)">
    <g id="Groupe_279" data-name="Groupe 279" transform="translate(444.775 1002.969) rotate(90)">
      <g id="Groupe_259" data-name="Groupe 259" transform="translate(1358.715 99.965)">
        <path id="Tracé_283" data-name="Tracé 283" d="M1352.046,548.331a1.462,1.462,0,0,1-1.365-.939C1339.429,517.954,1335.56,494,1338.505,472c2.761-20.618,11.8-39.819,20.531-58.386,1.452-3.088,2.9-6.168,4.321-9.252,12.945-28.113,26.828-64.945,19.225-100.526-2.849-13.331-8.658-26.09-14.277-38.43-6.028-13.24-12.262-26.929-14.953-41.493-3.063-16.576-1.435-33.634.142-50.132.51-5.361,1.04-10.907,1.4-16.333,1.53-23.22.038-46.87-1.4-69.741a1.459,1.459,0,1,1,2.913-.184c1.448,22.964,2.944,46.71,1.4,70.115-.359,5.472-.89,11.038-1.406,16.42-1.554,16.3-3.164,33.15-.175,49.326,2.625,14.211,8.783,27.735,14.739,40.814,5.684,12.48,11.56,25.388,14.475,39.028,7.783,36.424-6.3,73.835-19.429,102.358-1.423,3.092-2.877,6.181-4.331,9.273-8.643,18.368-17.578,37.361-20.281,57.532-2.877,21.5.939,45,12.012,73.962a1.459,1.459,0,0,1-.843,1.885A1.474,1.474,0,0,1,1352.046,548.331Z" transform="translate(-1337.556 -86.155)" fill="#b78016"/>
      </g>
      <g id="Groupe_260" data-name="Groupe 260" transform="translate(1368.231 70.774)">
        <path id="Tracé_284" data-name="Tracé 284" d="M1351.469,183.854h-.01a1.461,1.461,0,0,1-1.313-.843c-.448-.96-.913-1.907-1.372-2.845a48.747,48.747,0,0,1-3.965-9.856,47.851,47.851,0,0,1-1-9.527l-.622-16.815c-.879-23.839-1.788-48.491,4.587-72.113a1.458,1.458,0,0,1,2.835.076,157.923,157.923,0,0,0,7.518,24.97q.321.814.649,1.628a63.37,63.37,0,0,1,3.033,8.819c1.274,5.377,1.135,10.879,1,16.2-.482,19.127-1.029,40.806-10.028,59.479A1.463,1.463,0,0,1,1351.469,183.854Zm-2.313-105.32c-4.669,21.41-3.845,43.7-3.046,65.327l.62,16.815a45.76,45.76,0,0,0,.917,8.95,45.825,45.825,0,0,0,3.748,9.256l.036.074c7.5-17.479,8.013-37.612,8.464-55.48.129-5.134.264-10.444-.924-15.452a61.158,61.158,0,0,0-2.9-8.409q-.33-.82-.655-1.642A160.718,160.718,0,0,1,1349.156,78.534Z" transform="translate(-1342.57 -70.774)" fill="#b78016"/>
      </g>
      <g id="Groupe_261" data-name="Groupe 261" transform="translate(1374.599 103.71)">
        <path id="Tracé_285" data-name="Tracé 285" d="M1347.46,213.886c-.03,0-.059,0-.089,0a1.46,1.46,0,0,1-1.369-1.359c-.706-10.548,3.581-20.347,7.726-29.825,2.632-6.014,5.352-12.236,6.751-18.561a99.7,99.7,0,0,0,1.507-10.114c.6-5.236,1.22-10.651,3.111-15.743a67.8,67.8,0,0,1,3.23-7.005,41.482,41.482,0,0,0,4.094-10.1c.892-4.244.427-8.886-.023-13.376-.645-6.413-1.312-13.046,1.86-18.9a1.459,1.459,0,0,1,2.686.288c4.249,14.676,7.755,29,4.048,42.884-.493,1.847-1.114,3.665-1.715,5.422a56.679,56.679,0,0,0-2.137,7.284,58.144,58.144,0,0,0-.812,8.165,45.4,45.4,0,0,1-1.551,11.279,45.483,45.483,0,0,1-4.5,9.258,45.318,45.318,0,0,0-4.08,8.176,47.018,47.018,0,0,0-1.435,5.889c-.682,3.429-1.385,6.975-3.318,10.089a31.913,31.913,0,0,1-6.183,6.679c-2.957,2.638-5.751,5.13-6.366,8.389A1.461,1.461,0,0,1,1347.46,213.886Zm27.882-119.655c-.962,4.092-.511,8.586-.04,13.274.472,4.712.962,9.584-.027,14.27a44.27,44.27,0,0,1-4.346,10.825,65,65,0,0,0-3.1,6.7c-1.767,4.758-2.34,9.761-2.945,15.058a102.438,102.438,0,0,1-1.56,10.412c-1.459,6.6-4.238,12.957-6.925,19.1-3.316,7.582-6.487,14.83-7.337,22.4a44.589,44.589,0,0,1,4.249-4.143,29.734,29.734,0,0,0,5.646-6.039c1.651-2.663,2.276-5.8,2.936-9.119a49.222,49.222,0,0,1,1.531-6.257,48.291,48.291,0,0,1,4.325-8.711,42.675,42.675,0,0,0,4.236-8.654,42.569,42.569,0,0,0,1.421-10.562,60.5,60.5,0,0,1,.864-8.58,60.043,60.043,0,0,1,2.239-7.662c.585-1.71,1.19-3.479,1.657-5.231C1381.337,119.462,1378.879,107.01,1375.342,94.231Z" transform="translate(-1345.926 -88.128)" fill="#b78016"/>
      </g>
      <g id="Groupe_262" data-name="Groupe 262" transform="translate(1339.018 86.855)">
        <path id="Tracé_286" data-name="Tracé 286" d="M1360.583,215.51a1.459,1.459,0,0,1-.936-.338c-8.7-7.25-19-17.227-21.381-30.114a61.244,61.244,0,0,1-.727-6.424,44.93,44.93,0,0,0-1.053-7.779,44.746,44.746,0,0,0-3.959-9.246,55.869,55.869,0,0,1-3.754-8.343c-2.61-8.034-1.478-16.474-.383-24.636a105.143,105.143,0,0,0,1.2-12.989,102.651,102.651,0,0,0-1.137-13.646c-.905-7.071-1.843-14.384-.412-21.573a1.459,1.459,0,0,1,2.737-.366,84.623,84.623,0,0,1,8.88,37.485c0,2.143-.074,4.318-.152,6.419-.193,5.377-.395,10.936.8,16.145a62.747,62.747,0,0,0,2.989,8.814c.5,1.264,1.017,2.57,1.492,3.875a74.989,74.989,0,0,1,4.242,19.286l.074.926a20.886,20.886,0,0,0,.991,5.8,20.779,20.779,0,0,0,2.342,4.09c.548.814,1.116,1.655,1.623,2.543,2.612,4.576,3.329,9.782,4.022,14.817.677,4.925,1.319,9.577,3.693,12.959a1.46,1.46,0,0,1-1.194,2.3Zm-30.3-129.554a85.766,85.766,0,0,0,1.065,15.669,104.99,104.99,0,0,1,1.16,14.037,107.534,107.534,0,0,1-1.226,13.355c-1.1,8.2-2.139,15.946.266,23.348a52.879,52.879,0,0,0,3.57,7.9,47.606,47.606,0,0,1,4.193,9.859,47.751,47.751,0,0,1,1.137,8.284,59.223,59.223,0,0,0,.687,6.119c1.793,9.706,8.339,17.572,15.49,24.143a66.071,66.071,0,0,1-1.433-8.02c-.657-4.762-1.334-9.683-3.667-13.769-.451-.791-.964-1.552-1.509-2.357a23.336,23.336,0,0,1-2.649-4.686,23.326,23.326,0,0,1-1.171-6.6l-.074-.911a71.974,71.974,0,0,0-4.077-18.533c-.459-1.268-.968-2.555-1.461-3.8a65.034,65.034,0,0,1-3.12-9.233c-1.283-5.585-1.074-11.34-.873-16.9.074-2.076.152-4.223.148-6.31A81.73,81.73,0,0,0,1330.285,85.955Z" transform="translate(-1327.178 -79.248)" fill="#b78016"/>
      </g>
      <g id="Groupe_263" data-name="Groupe 263" transform="translate(1381.648 132.813)">
        <path id="Tracé_287" data-name="Tracé 287" d="M1353.5,234.731a1.457,1.457,0,0,1-1.235-.681c-5.722-9.081-.653-20.413,1.792-24.866,1.351-2.46,2.9-4.853,4.39-7.164,3-4.646,5.832-9.036,7.343-14.059a56.654,56.654,0,0,0,1.437-6.69,55.559,55.559,0,0,1,1.691-7.59,55.244,55.244,0,0,1,5.54-11.12c.953-1.6,1.938-3.245,2.813-4.891,5.534-10.41,7.656-22.271,9.708-33.744,1.114-6.219,2.264-12.651,2.342-19.02a1.459,1.459,0,0,1,2.852-.418c6.417,20.541.8,43.2-3.718,61.4-2.551,10.281-5.188,20.913-10.322,30.523a132.735,132.735,0,0,1-10.618,15.959c-5.278,7.151-10.264,13.908-12.621,21.347a1.463,1.463,0,0,1-1.205,1.006A1.238,1.238,0,0,1,1353.5,234.731Zm37.956-120.063c-.446,3.3-1.031,6.563-1.606,9.772-2.091,11.693-4.255,23.784-10,34.6-.909,1.71-1.913,3.391-2.883,5.018a52.2,52.2,0,0,0-5.269,10.522,52.3,52.3,0,0,0-1.594,7.191,59.339,59.339,0,0,1-1.516,7.032c-1.63,5.42-4.711,10.19-7.686,14.8-1.465,2.27-2.981,4.617-4.283,6.988-1.925,3.5-5.677,11.717-3.285,18.926,2.748-6.569,7.179-12.575,11.833-18.882a130.506,130.506,0,0,0,10.394-15.6c4.963-9.29,7.556-19.742,10.063-29.85C1389.359,150.09,1393.878,131.88,1391.452,114.668Z" transform="translate(-1349.64 -103.463)" fill="#b78016"/>
      </g>
      <g id="Groupe_264" data-name="Groupe 264" transform="translate(1313.99 168.404)">
        <path id="Tracé_288" data-name="Tracé 288" d="M1386.183,224.515a1.454,1.454,0,0,1-.717-.19,223.246,223.246,0,0,1-34.959-24.477c-4.373-3.735-9.275-8.21-12.076-14.061-2.08-4.346-2.843-9.1-3.581-13.7a55.524,55.524,0,0,0-2.636-11.321,56.338,56.338,0,0,0-6.369-10.947c-3.3-4.815-6.718-9.793-7.853-15.722-.129-.676-.237-1.378-.347-2.084-.433-2.805-.843-5.462-2.576-6.827-.146-.1-.294-.2-.442-.3a1.46,1.46,0,0,1,1.587-2.45,6.459,6.459,0,0,1,.607.418,69.516,69.516,0,0,1,24.42,30.668c1.165,2.885,2.143,5.882,3.09,8.778,1.63,5,3.316,10.161,5.965,14.7a75.34,75.34,0,0,0,9.167,11.748l11.615,13.014c6.191,6.937,12.593,14.109,16.367,20.565a1.459,1.459,0,0,1-1.26,2.2Zm-66.08-95.44c.169.835.3,1.678.425,2.492.1.672.207,1.338.328,1.979,1.021,5.329,4.116,9.842,7.4,14.621a58.513,58.513,0,0,1,6.679,11.537,57.437,57.437,0,0,1,2.8,11.919c.738,4.6,1.435,8.939,3.333,12.9,2.556,5.337,7.193,9.563,11.34,13.1a220.15,220.15,0,0,0,29.052,20.97c-3.549-4.807-8.108-9.914-12.556-14.9l-11.615-13.014a77.463,77.463,0,0,1-9.51-12.218c-2.807-4.805-4.542-10.121-6.221-15.263-.93-2.852-1.892-5.8-3.02-8.594A66.663,66.663,0,0,0,1320.1,129.075Z" transform="translate(-1313.99 -122.216)" fill="#b78016"/>
      </g>
      <g id="Groupe_265" data-name="Groupe 265" transform="translate(1394.03 168.966)">
        <path id="Tracé_289" data-name="Tracé 289" d="M1358.354,242.189a1.462,1.462,0,0,1-1.423-1.135,30.794,30.794,0,0,1,2.5-20.626,59.848,59.848,0,0,1,7.117-10.307,76.636,76.636,0,0,0,5.436-7.377c3.678-5.942,5.6-12.868,7-18.855.184-.791.365-1.587.545-2.38a69,69,0,0,1,3.928-13.169c.858-1.905,1.883-3.726,2.875-5.489.9-1.59,1.822-3.236,2.591-4.893,4.9-10.554,4.251-22.962,3.68-33.909a1.458,1.458,0,0,1,2.752-.746c7.893,15.272,9.3,34.746,3.853,53.427-4.6,15.788-13.919,31.372-27.688,46.318l-.425.461c-5.158,5.595-11,11.938-11.281,17.3a1.461,1.461,0,0,1-1.33,1.38C1358.438,242.187,1358.4,242.189,1358.354,242.189Zm37.506-110.371c.243,9.117-.275,18.713-4.291,27.367-.816,1.761-1.772,3.458-2.695,5.1-.96,1.7-1.953,3.469-2.756,5.253a66.739,66.739,0,0,0-3.745,12.617c-.182.8-.363,1.6-.548,2.4-1.452,6.219-3.464,13.426-7.36,19.726a79.084,79.084,0,0,1-5.641,7.665,56.805,56.805,0,0,0-6.789,9.793,28.177,28.177,0,0,0-2.932,12.148c2.367-4.246,6.261-8.47,9.842-12.355l.425-.461c13.461-14.614,22.558-29.806,27.031-45.156C1400.817,160.769,1400.568,145.115,1395.86,131.819Z" transform="translate(-1356.163 -122.512)" fill="#b78016"/>
      </g>
      <g id="Groupe_266" data-name="Groupe 266" transform="translate(1403.248 181.465)">
        <path id="Tracé_290" data-name="Tracé 290" d="M1362.673,258.483a1.458,1.458,0,0,1-1.448-1.285c-1.033-8.569,1.854-17.813,8.578-27.477,2.777-3.991,5.942-7.747,9.005-11.38,2.94-3.486,5.98-7.09,8.626-10.856a78.825,78.825,0,0,0,12.505-28.679c.076-.359.15-.719.224-1.08a21.63,21.63,0,0,1,3.959-10.038c.528-.8,1.027-1.549,1.458-2.334,2.9-5.291,2.533-11.476,2.146-18.026-.344-5.773-.7-11.746,1.312-17.269a1.46,1.46,0,0,1,2.744,0c4.868,13.37,5.532,29.324,1.915,46.133-3.285,15.261-9.655,29.84-16.049,43.323-3.676,7.751-7.493,15.143-13.748,20.406a60.291,60.291,0,0,1-7.168,4.942c-1.763,1.091-3.585,2.221-5.253,3.452-4,2.955-7.093,6.692-7.356,8.884A1.459,1.459,0,0,1,1362.673,258.483Zm47.955-122.4a62.932,62.932,0,0,0,.011,11.076c.4,6.671.8,13.572-2.5,19.6-.49.892-1.046,1.733-1.585,2.543a18.932,18.932,0,0,0-3.534,9.015c-.076.366-.15.733-.228,1.1a81.77,81.77,0,0,1-12.972,29.751c-2.72,3.87-5.8,7.523-8.781,11.059-3.02,3.581-6.143,7.284-8.842,11.163-4.845,6.965-7.573,13.64-8.144,19.916a32.7,32.7,0,0,1,5.69-5.337c1.765-1.3,3.638-2.463,5.449-3.587a56.8,56.8,0,0,0,6.829-4.693c5.808-4.885,9.459-11.976,12.991-19.423,6.318-13.323,12.609-27.716,15.83-42.687C1413.9,161.375,1413.811,147.841,1410.628,136.082Z" transform="translate(-1361.021 -129.098)" fill="#b78016"/>
      </g>
      <g id="Groupe_267" data-name="Groupe 267" transform="translate(1407.879 227.393)">
        <path id="Tracé_291" data-name="Tracé 291" d="M1364.918,264.272a1.423,1.423,0,0,1-.528-.1,1.451,1.451,0,0,1-.93-1.368c.045-6.963.493-14.162,5.308-18.95a25.629,25.629,0,0,1,3.788-2.944c.829-.564,1.611-1.1,2.346-1.685,3.555-2.862,5.77-6.912,8.117-11.2a48.052,48.052,0,0,1,6.743-10.165,46.96,46.96,0,0,1,4.029-3.676,43.332,43.332,0,0,0,3.868-3.536c4.452-4.788,6.521-11.537,8.345-17.493l11.9-38.825a1.459,1.459,0,0,1,2.83.159c2.82,15.115-2.071,30.32-6.386,43.736-4.534,14.092-9.67,30.064-20.617,41.852-4.289,4.619-9.343,8.447-14.229,12.15-4.961,3.76-9.649,7.311-13.5,11.564A1.458,1.458,0,0,1,1364.918,264.272Zm53.7-102.3-9.818,32.034c-1.917,6.257-4.09,13.346-9,18.626a45.693,45.693,0,0,1-4.126,3.779,44.7,44.7,0,0,0-3.785,3.445c-2.568,2.731-4.469,6.206-6.308,9.567-2.38,4.35-4.841,8.848-8.848,12.072-.825.664-1.693,1.254-2.533,1.826a23.241,23.241,0,0,0-3.373,2.6c-3.249,3.234-4.124,8.117-4.361,13.221a127.591,127.591,0,0,1,11.275-9.241c4.786-3.627,9.736-7.377,13.853-11.81,10.5-11.311,15.536-26.955,19.975-40.759C1415.1,186.346,1419.034,174.127,1418.615,161.975Z" transform="translate(-1363.461 -153.298)" fill="#b78016"/>
      </g>
      <g id="Groupe_268" data-name="Groupe 268" transform="translate(1346.741 256.985)">
        <path id="Tracé_292" data-name="Tracé 292" d="M1368.979,200.653a29.144,29.144,0,0,1-18.865-7,55.877,55.877,0,0,1-7.157-7.958l-11.4-14.439a1.461,1.461,0,0,1,1.391-2.344c4.416.753,7.878,3.5,11.228,6.162a32.614,32.614,0,0,0,7.457,4.915c.738.306,1.5.558,2.319.824a20.06,20.06,0,0,1,4.4,1.849c2.424,1.492,4.044,3.769,5.612,5.971,1.556,2.184,3.025,4.247,5.132,5.367a16.3,16.3,0,0,0,5.265,1.376,21.78,21.78,0,0,1,5.417,1.3,1.46,1.46,0,0,1-.334,2.782l-.624.106a69.307,69.307,0,0,1-8.823,1.069C1369.658,200.647,1369.318,200.653,1368.979,200.653Zm-31.879-27.09,8.148,10.324a53.626,53.626,0,0,0,6.771,7.555,26.143,26.143,0,0,0,17.87,6.274q.4-.014.814-.04a12.765,12.765,0,0,1-2.974-1.1c-2.718-1.444-4.458-3.889-6.141-6.253-1.463-2.055-2.845-4-4.764-5.179a17.6,17.6,0,0,0-3.779-1.558c-.829-.273-1.687-.554-2.532-.9a35.3,35.3,0,0,1-8.15-5.325A45.768,45.768,0,0,0,1337.1,173.562Z" transform="translate(-1331.247 -168.89)" fill="#b78016"/>
      </g>
      <g id="Groupe_269" data-name="Groupe 269" transform="translate(1403.902 278.353)">
        <path id="Tracé_293" data-name="Tracé 293" d="M1362.826,271.833a1.458,1.458,0,0,1-1.458-1.549c.342-5.557,3.714-10.994,10.023-16.162,1.414-1.16,2.9-2.27,4.329-3.342,3.505-2.625,6.817-5.1,9.387-8.349a48.5,48.5,0,0,0,5.542-9.839,77.786,77.786,0,0,1,3.634-7.126c2.769-4.612,6.464-8.586,10.038-12.431,4.12-4.43,8.011-8.614,10.655-13.722,2.87-5.542,4.054-11.862,5.2-17.975a1.462,1.462,0,0,1,1.435-1.19h.021a1.461,1.461,0,0,1,1.422,1.23,78.842,78.842,0,0,1-47.134,84.951c-1.5.636-3.044,1.239-4.536,1.822a54.522,54.522,0,0,0-7.793,3.465A1.464,1.464,0,0,1,1362.826,271.833Zm58.232-80.593a45.223,45.223,0,0,1-3.49,9.415c-2.828,5.46-7.037,9.988-11.108,14.367-3.471,3.735-7.062,7.6-9.673,11.947a74.5,74.5,0,0,0-3.492,6.857,51.489,51.489,0,0,1-5.9,10.417c-2.807,3.543-6.426,6.253-9.926,8.873-1.408,1.055-2.864,2.145-4.228,3.262-4.559,3.735-7.4,7.54-8.484,11.344,1.665-.767,3.579-1.514,5.563-2.291,1.473-.575,2.995-1.171,4.462-1.792a75.9,75.9,0,0,0,46.275-72.4Z" transform="translate(-1361.366 -180.149)" fill="#b78016"/>
      </g>
      <g id="Groupe_270" data-name="Groupe 270" transform="translate(1389.741 326.754)">
        <path id="Tracé_294" data-name="Tracé 294" d="M1355.36,288.658a1.463,1.463,0,0,1-1.289-2.154c4.01-7.81,11.014-13.278,17.783-18.565,5.948-4.644,12.1-9.446,16-15.745.435-.7.843-1.418,1.253-2.137a18.414,18.414,0,0,1,10.977-10c.453-.2.905-.408,1.353-.619a51.811,51.811,0,0,0,23.038-21.421c.361-.643.714-1.3,1.068-1.962,2.141-3.984,4.354-8.1,8.523-10.239a1.46,1.46,0,0,1,2.078,1.672c-3.339,12.613-7.493,28.31-18.92,38.176a72.252,72.252,0,0,1-9.417,6.538c-1.549.956-3.152,1.945-4.673,2.97a69.843,69.843,0,0,0-15.259,13.961c-.7.867-1.4,1.763-2.1,2.661-3.982,5.117-8.1,10.406-14.446,12.26a29.911,29.911,0,0,1-5.145.881,31.986,31.986,0,0,0-4.078.63,19.421,19.421,0,0,0-5.762,2.7A1.406,1.406,0,0,1,1355.36,288.658Zm76.82-77.644a34.722,34.722,0,0,0-4.063,6.419c-.365.676-.725,1.349-1.093,2.006a54.763,54.763,0,0,1-24.346,22.64c-.461.214-.926.425-1.391.636a15.688,15.688,0,0,0-9.641,8.785c-.42.736-.85,1.5-1.31,2.234-4.179,6.739-10.537,11.7-16.684,16.506-5.312,4.149-10.393,8.117-14.137,13.086a15.971,15.971,0,0,1,1.9-.6,34.286,34.286,0,0,1,4.451-.7,27.234,27.234,0,0,0,4.65-.784c5.441-1.587,9.263-6.5,12.96-11.249.712-.915,1.42-1.826,2.135-2.708a72.709,72.709,0,0,1,15.9-14.543c1.569-1.055,3.2-2.061,4.768-3.031a69.82,69.82,0,0,0,9.045-6.265C1424.839,235.231,1429.085,222.346,1432.18,211.014Z" transform="translate(-1353.905 -205.652)" fill="#b78016"/>
      </g>
      <g id="Groupe_271" data-name="Groupe 271" transform="translate(1372.191 376.19)">
        <path id="Tracé_295" data-name="Tracé 295" d="M1346.115,301.405a1.459,1.459,0,0,1-.854-2.642l1.892-1.363c7.2-5.174,14.648-10.524,20.26-17.7.44-.566.873-1.143,1.3-1.72a22.722,22.722,0,0,1,13.773-10.032,44.9,44.9,0,0,0,5.141-2.1c5.481-2.8,9.362-7.639,13.471-12.767,1.782-2.224,3.625-4.525,5.6-6.629a53.573,53.573,0,0,1,23.9-14.7,1.459,1.459,0,0,1,1.289,2.566,36.467,36.467,0,0,0-10.714,12.871c-.413.831-.812,1.712-1.2,2.564a27.063,27.063,0,0,1-4.526,7.635c-2.234,2.4-5.105,3.853-7.882,5.263a44.649,44.649,0,0,0-4.4,2.439c-4.477,2.944-7.59,7.331-10.884,11.976a69.72,69.72,0,0,1-7.415,9.277c-9.645,9.588-23.152,12.482-38.521,15.037A1.458,1.458,0,0,1,1346.115,301.405Zm78.386-64.243a50.639,50.639,0,0,0-15.667,11.29c-1.9,2.021-3.707,4.276-5.455,6.457-4.12,5.143-8.381,10.461-14.424,13.541a47.6,47.6,0,0,1-5.472,2.245,20,20,0,0,0-12.429,9.036c-.444.594-.888,1.188-1.344,1.771-5,6.4-11.277,11.317-17.586,15.91,12.26-2.3,22.947-5.434,30.692-13.133a67.571,67.571,0,0,0,7.092-8.9c3.306-4.661,6.724-9.48,11.661-12.725a47.824,47.824,0,0,1,4.682-2.6c2.668-1.353,5.187-2.632,7.069-4.65a24.543,24.543,0,0,0,4-6.846c.4-.875.8-1.782,1.243-2.663A39.249,39.249,0,0,1,1424.5,237.162Z" transform="translate(-1344.657 -231.7)" fill="#b78016"/>
      </g>
      <g id="Groupe_272" data-name="Groupe 272" transform="translate(1361.179 409.44)">
        <path id="Tracé_296" data-name="Tracé 296" d="M1340.649,336.071a1.459,1.459,0,0,1-1.439-1.218,27.477,27.477,0,0,1,5.633-21.467c4.972-6.164,12.148-9.622,19.091-12.968,4.777-2.3,9.715-4.68,13.82-7.907,1.71-1.344,3.34-2.889,4.917-4.382a70.7,70.7,0,0,1,5.5-4.851,71.922,71.922,0,0,1,6.7-4.371c3.864-2.315,7.512-4.506,10.2-7.762a37.894,37.894,0,0,0,4.6-7.888c.725-1.5,1.475-3.052,2.317-4.54,3.181-5.612,7.438-8.983,11.987-9.487a1.459,1.459,0,0,1,1.293,2.372c-3.754,4.61-6.24,9.943-8.873,15.591a110.9,110.9,0,0,1-5.912,11.478c-8.857,14.331-23.689,23.75-36.775,32.061l-22.046,14c-4.49,2.852-9.138,6.276-9.571,10.045a1.461,1.461,0,0,1-1.414,1.292ZM1420.17,253.7a19.255,19.255,0,0,0-5.633,6.457c-.8,1.406-1.524,2.913-2.228,4.371a40.668,40.668,0,0,1-4.982,8.478c-3.01,3.644-7.047,6.064-10.951,8.406a69.075,69.075,0,0,0-6.43,4.187,67.606,67.606,0,0,0-5.266,4.652c-1.625,1.539-3.306,3.131-5.121,4.557-4.356,3.424-9.44,5.874-14.357,8.242-6.958,3.352-13.528,6.517-18.087,12.171a24.527,24.527,0,0,0-5.291,13.716,36.307,36.307,0,0,1,8.284-6.665l22.046-14c12.82-8.142,27.35-17.371,35.856-31.131a108,108,0,0,0,5.747-11.178A101.892,101.892,0,0,1,1420.17,253.7Z" transform="translate(-1338.855 -249.22)" fill="#b78016"/>
      </g>
      <g id="Groupe_273" data-name="Groupe 273" transform="translate(1358.489 302.512)">
        <path id="Tracé_297" data-name="Tracé 297" d="M1369.665,298.906a1.461,1.461,0,0,1-1.146-.556c-6.3-7.994-13.441-17.056-15.253-28.069a64.056,64.056,0,0,1-.474-11.829,73.7,73.7,0,0,0-.207-9.63c-1.156-10.417-6.836-19.859-12.332-28.992l-.964-1.606c-.88-1.465-2.516-4.192-1.56-6.91a8.209,8.209,0,0,1,1.549-2.463,7.092,7.092,0,0,0,.987-1.408,6.965,6.965,0,0,0,0-3.949l-1.615-8.893a1.459,1.459,0,0,1,2.716-.962c4.437,8.11,9.022,16.492,11.641,25.625.592,2.065,1.086,4.179,1.562,6.223a71.43,71.43,0,0,0,2.985,10.4c.879,2.183,2.01,4.338,3.1,6.422a59.925,59.925,0,0,1,3.845,8.349c1.514,4.433,1.974,9.083,2.418,13.579,1.106,11.222,2.251,22.826,4.177,32.938a1.461,1.461,0,0,1-1.433,1.733Zm-26.492-95.721a9.113,9.113,0,0,1-.254,5.468,9.4,9.4,0,0,1-1.385,2.048,5.876,5.876,0,0,0-1.051,1.581c-.463,1.315.433,2.982,1.307,4.441l.964,1.6c5.658,9.4,11.507,19.123,12.733,30.174a76.075,76.075,0,0,1,.224,10.019,60.831,60.831,0,0,0,.437,11.29c1.362,8.282,6.109,15.574,11.085,22.135-1.374-8.738-2.308-18.208-3.215-27.422-.429-4.329-.869-8.806-2.278-12.919a56.613,56.613,0,0,0-3.667-7.937,73.4,73.4,0,0,1-3.227-6.69,73.318,73.318,0,0,1-3.122-10.827c-.467-2.008-.953-4.086-1.524-6.081A93.336,93.336,0,0,0,1343.173,203.185Z" transform="translate(-1337.437 -192.879)" fill="#b78016"/>
      </g>
      <g id="Groupe_274" data-name="Groupe 274" transform="translate(1347.289 336.515)">
        <path id="Tracé_298" data-name="Tracé 298" d="M1356.15,320.359a1.462,1.462,0,0,1-.867-.287,45.163,45.163,0,0,1-17.705-41.093c.252-2.1.657-4.19,1.048-6.217.816-4.219,1.584-8.2,1.11-12.215-.438-3.725-1.921-7.191-3.488-10.86-.736-1.725-1.5-3.507-2.139-5.314a45.9,45.9,0,0,1,.909-32.685,1.46,1.46,0,0,1,2.8.51c.22,6,3.255,11.266,6.466,16.846a64.746,64.746,0,0,1,5.644,11.492c2.6,7.747,2.094,16,1.6,23.989-.1,1.564-.192,3.124-.264,4.676-.8,17.236,1.419,34.723,6.263,49.234a1.461,1.461,0,0,1-1.385,1.923Zm-20.26-102.191a43.025,43.025,0,0,0,.97,25.23c.609,1.719,1.353,3.46,2.073,5.141,1.579,3.7,3.213,7.521,3.7,11.666.526,4.46-.323,8.857-1.144,13.111-.382,1.976-.776,4.022-1.017,6.012A42.3,42.3,0,0,0,1353.3,314.6a145.226,145.226,0,0,1-4.942-45.536c.074-1.568.171-3.141.268-4.72.473-7.705.963-15.674-1.457-22.883a62.84,62.84,0,0,0-5.405-10.964C1339.492,226.563,1337.169,222.53,1335.89,218.168Z" transform="translate(-1331.536 -210.795)" fill="#b78016"/>
      </g>
      <g id="Groupe_275" data-name="Groupe 275" transform="translate(1326.229 365.793)">
        <path id="Tracé_299" data-name="Tracé 299" d="M1353.986,357.149c-.161,0-.33-.009-.507-.027a1.457,1.457,0,0,1-.791-.33c-7.514-6.255-15.282-12.723-21.277-20.787-6.762-9.091-10.121-19.153-9.461-28.331A63.62,63.62,0,0,1,1324.271,296c.637-2.4,1.3-4.887,1.74-7.337a46.537,46.537,0,0,0-2.67-25.555c-.207-.5-.422-1.008-.638-1.511a17.227,17.227,0,0,1-.969-15.111l5.68-19.22a1.457,1.457,0,0,1,1.359-1.044,1.431,1.431,0,0,1,1.414.966,156.106,156.106,0,0,1,9.157,53.645c-.011,1.735-.05,3.477-.085,5.223-.167,7.679-.338,15.619,2.019,22.854a69.731,69.731,0,0,0,4.063,9.25c2.1,4.215,4.272,8.573,5.179,13.357a53.034,53.034,0,0,1,.679,6.092c.235,3.249.459,6.318,1.613,9.121a35.529,35.529,0,0,0,1.907,3.737c1.386,2.467,2.386,4.249,1.463,5.663A2.434,2.434,0,0,1,1353.986,357.149Zm-25.073-124.658-4.382,14.822a20.027,20.027,0,0,0-1.163,6.364,19.852,19.852,0,0,0,2.021,6.772c.222.518.442,1.036.653,1.554a49.5,49.5,0,0,1,2.843,27.179c-.465,2.566-1.139,5.107-1.792,7.565a60.393,60.393,0,0,0-2.232,11.137c-.611,8.48,2.547,17.849,8.889,26.378,5.348,7.191,12.268,13.16,19.108,18.872-.224-.421-.469-.856-.685-1.239a38,38,0,0,1-2.061-4.054c-1.33-3.236-1.581-6.684-1.824-10.019a51.136,51.136,0,0,0-.636-5.76c-.833-4.388-2.82-8.377-4.923-12.6a71.793,71.793,0,0,1-4.227-9.647c-2.511-7.707-2.334-15.9-2.163-23.822.038-1.731.074-3.458.085-5.177A153.193,153.193,0,0,0,1328.913,232.491Z" transform="translate(-1320.439 -226.222)" fill="#b78016"/>
      </g>
      <g id="Groupe_276" data-name="Groupe 276" transform="translate(1377.633 302.336)">
        <path id="Tracé_300" data-name="Tracé 300" d="M1372.553,259.388a1.457,1.457,0,0,1-1.37-.964,50.955,50.955,0,0,0-4.432-8.582c-2.424-4.052-4.929-8.241-5.68-13.09a37.422,37.422,0,0,1-.332-4.259c-.042-1.091-.082-2.12-.2-3.147-.444-3.972-2.01-7.814-3.526-11.53l-9.385-23.021a1.459,1.459,0,0,1,2.243-1.7c5.265,4.065,11.815,9.127,15.517,16.009,3.344,6.212,4.175,13.467,4.91,19.869,1.2,10.488,2.441,21.268,3.691,28.717a1.459,1.459,0,0,1-1.069,1.653A1.388,1.388,0,0,1,1372.553,259.388Zm-20.129-60.571,7.3,17.9c1.592,3.9,3.236,7.933,3.724,12.31.125,1.129.171,2.26.213,3.355a34.23,34.23,0,0,0,.3,3.927c.662,4.285,2.915,8.049,5.3,12.036q.274.455.547.915c-.812-6.109-1.611-13.076-2.393-19.893-.746-6.5-1.509-13.162-4.587-18.88C1360.323,205.838,1356.42,202.1,1352.424,198.818Z" transform="translate(-1347.525 -192.786)" fill="#b78016"/>
      </g>
      <g id="Groupe_277" data-name="Groupe 277" transform="translate(1362.402 295.758)">
        <path id="Tracé_301" data-name="Tracé 301" d="M1370.378,213.668a1.461,1.461,0,0,1-1.42-1.12,52.969,52.969,0,0,0-3.469-10.983c-1.26-2.589-3.542-6.058-7.238-7.884-3.5-1.727-7.554-1.674-11.852-1,3.441,1.16,6.942,2.165,10.461,3a1.459,1.459,0,1,1-.678,2.839,123.005,123.005,0,0,1-15.75-4.9,1.459,1.459,0,0,1,.209-2.784c6.7-1.5,13.19-2.6,18.9.218,4.435,2.19,7.107,6.225,8.569,9.224a55.229,55.229,0,0,1,3.684,11.583,1.457,1.457,0,0,1-1.08,1.757A1.4,1.4,0,0,1,1370.378,213.668Z" transform="translate(-1339.499 -189.32)" fill="#b78016"/>
      </g>
      <g id="Groupe_278" data-name="Groupe 278" transform="translate(1328.709 249.325)">
        <path id="Tracé_302" data-name="Tracé 302" d="M1367.151,189.921a1.454,1.454,0,0,1-1.059-.454c-7.068-7.445-15.081-15.881-25.128-20.068-3.215-1.34-5.788-1.833-8.106-1.549a22.582,22.582,0,0,0-3.115.691c-.275.074-.55.15-.829.222a83.862,83.862,0,0,0,13.693,4.509,1.46,1.46,0,0,1-.672,2.841A86.658,86.658,0,0,1,1322.543,169a1.459,1.459,0,0,1,1.04-2.71c1.651.442,3.473-.049,5.4-.569a25.334,25.334,0,0,1,3.518-.771c2.836-.345,5.884.211,9.584,1.754,10.617,4.422,18.853,13.1,26.12,20.751a1.459,1.459,0,0,1-1.057,2.463Z" transform="translate(-1321.746 -164.854)" fill="#b78016"/>
      </g>
    </g>
  </g>
</svg>
