<svg xmlns="http://www.w3.org/2000/svg" width="160.428" height="52.239" viewBox="0 0 160.428 52.239">
  <g id="Groupe_401" data-name="Groupe 401" transform="translate(117.367 -2315)">
    <g id="Groupe_279" data-name="Groupe 279" transform="translate(43.061 2315.639) rotate(90)">
      <g id="Groupe_259" data-name="Groupe 259" transform="translate(14.602 9.531)">
        <path id="Tracé_283" data-name="Tracé 283" d="M4.731,150.9a.477.477,0,0,1-.445-.307C.612,140.979-.652,133.157.31,125.976c.9-6.732,3.851-13,6.7-19.063.474-1.008.947-2.014,1.411-3.021,4.227-9.179,8.759-21.2,6.277-32.821A62.348,62.348,0,0,0,10.04,58.524c-1.968-4.323-4-8.792-4.882-13.547-1-5.412-.468-10.981.046-16.368.167-1.75.34-3.561.456-5.333A178.109,178.109,0,0,0,5.2.507a.476.476,0,1,1,.951-.06,178.736,178.736,0,0,1,.458,22.892c-.117,1.786-.291,3.6-.459,5.361-.507,5.321-1.033,10.823-.057,16.1.857,4.64,2.868,9.055,4.812,13.325a63.053,63.053,0,0,1,4.726,12.742c2.541,11.892-2.055,24.106-6.343,33.419-.465,1.009-.939,2.018-1.414,3.028-2.822,6-5.739,12.2-6.621,18.784-.939,7.018.307,14.691,3.922,24.148a.477.477,0,0,1-.445.647Z" fill="#b78016"/>
      </g>
      <g id="Groupe_260" data-name="Groupe 260" transform="translate(17.709 0)">
        <path id="Tracé_284" data-name="Tracé 284" d="M2.905,36.92h0a.477.477,0,0,1-.429-.275c-.146-.314-.3-.623-.448-.929A15.916,15.916,0,0,1,.731,32.5a15.625,15.625,0,0,1-.325-3.111L.2,23.9C-.084,16.114-.381,8.066,1.7.353a.476.476,0,0,1,.926.025A51.562,51.562,0,0,0,5.08,8.53q.1.266.212.532a20.686,20.686,0,0,1,.99,2.879,20.53,20.53,0,0,1,.327,5.289c-.157,6.245-.336,13.323-3.274,19.42A.478.478,0,0,1,2.905,36.92ZM2.15,2.533C.626,9.524.895,16.8,1.156,23.862l.2,5.49a14.94,14.94,0,0,0,.3,2.922A14.961,14.961,0,0,0,2.881,35.3l.012.024c2.45-5.707,2.616-12.28,2.764-18.114a19.8,19.8,0,0,0-.3-5.045,19.967,19.967,0,0,0-.947-2.746Q4.3,9.148,4.194,8.88A52.479,52.479,0,0,1,2.15,2.533Z" fill="#b78016"/>
      </g>
      <g id="Groupe_261" data-name="Groupe 261" transform="translate(19.788 10.753)">
        <path id="Tracé_285" data-name="Tracé 285" d="M.5,41.059H.472a.476.476,0,0,1-.447-.444c-.23-3.444,1.169-6.643,2.523-9.738a33.625,33.625,0,0,0,2.2-6.06,32.551,32.551,0,0,0,.492-3.3,21.736,21.736,0,0,1,1.016-5.14,22.128,22.128,0,0,1,1.055-2.287,13.544,13.544,0,0,0,1.337-3.3,14.6,14.6,0,0,0-.007-4.367C8.432,4.328,8.215,2.162,9.25.25a.476.476,0,0,1,.877.094c1.387,4.792,2.532,9.468,1.322,14-.161.6-.364,1.2-.56,1.77a18.507,18.507,0,0,0-.7,2.378,18.983,18.983,0,0,0-.265,2.666,14.824,14.824,0,0,1-.506,3.683,14.85,14.85,0,0,1-1.47,3.023,14.8,14.8,0,0,0-1.332,2.669,15.356,15.356,0,0,0-.468,1.923,9.62,9.62,0,0,1-1.083,3.294,10.42,10.42,0,0,1-2.019,2.181A5.5,5.5,0,0,0,.969,40.671.477.477,0,0,1,.5,41.059ZM9.6,1.993a13.435,13.435,0,0,0-.013,4.334,15.257,15.257,0,0,1-.009,4.659A14.454,14.454,0,0,1,8.163,14.52a21.223,21.223,0,0,0-1.011,2.187,20.677,20.677,0,0,0-.962,4.916,33.441,33.441,0,0,1-.509,3.4,34.368,34.368,0,0,1-2.261,6.237,25.975,25.975,0,0,0-2.4,7.314A14.56,14.56,0,0,1,2.412,37.22a9.708,9.708,0,0,0,1.843-1.972,8.793,8.793,0,0,0,.959-2.977,16.065,16.065,0,0,1,.5-2.043,15.766,15.766,0,0,1,1.412-2.844A13.934,13.934,0,0,0,8.51,24.559a13.9,13.9,0,0,0,.464-3.448,19.752,19.752,0,0,1,.282-2.8,19.6,19.6,0,0,1,.731-2.5c.191-.558.389-1.136.541-1.708C11.562,10.23,10.759,6.165,9.6,1.993Z" fill="#b78016"/>
      </g>
      <g id="Groupe_262" data-name="Groupe 262" transform="translate(8.172 5.25)">
        <path id="Tracé_286" data-name="Tracé 286" d="M10.906,44.489a.476.476,0,0,1-.305-.11c-2.842-2.367-6.2-5.624-6.981-9.832a20,20,0,0,1-.237-2.1,14.667,14.667,0,0,0-.344-2.54A14.609,14.609,0,0,0,1.746,26.89,18.24,18.24,0,0,1,.521,24.166C-.331,21.543.038,18.788.4,16.123a34.328,34.328,0,0,0,.392-4.241A33.511,33.511,0,0,0,.417,7.427,21.817,21.817,0,0,1,.282.383a.476.476,0,0,1,.893-.12A27.629,27.629,0,0,1,4.075,12.5c0,.7-.024,1.41-.05,2.1a20.431,20.431,0,0,0,.262,5.271,20.483,20.483,0,0,0,.976,2.878c.164.413.332.839.487,1.265a24.483,24.483,0,0,1,1.385,6.3l.024.3A6.819,6.819,0,0,0,7.483,32.5a6.783,6.783,0,0,0,.765,1.335c.179.266.364.54.53.83a13.127,13.127,0,0,1,1.313,4.838A9.712,9.712,0,0,0,11.3,43.738a.477.477,0,0,1-.39.75ZM1.014,2.19a28,28,0,0,0,.348,5.116,34.277,34.277,0,0,1,.379,4.583,35.11,35.11,0,0,1-.4,4.36c-.359,2.677-.7,5.206.087,7.623a17.263,17.263,0,0,0,1.166,2.58,15.545,15.545,0,0,1,1.369,3.219,15.593,15.593,0,0,1,.371,2.7,19.339,19.339,0,0,0,.224,2c.586,3.169,2.723,5.737,5.057,7.882a21.569,21.569,0,0,1-.468-2.619,12.429,12.429,0,0,0-1.2-4.5c-.147-.258-.315-.507-.493-.77a7.618,7.618,0,0,1-.865-1.53,7.616,7.616,0,0,1-.382-2.156l-.024-.3a23.5,23.5,0,0,0-1.331-6.051c-.15-.414-.316-.834-.477-1.241a21.23,21.23,0,0,1-1.019-3.015,21.144,21.144,0,0,1-.285-5.519c.024-.678.05-1.379.048-2.06A26.684,26.684,0,0,0,1.014,2.19Z" fill="#b78016"/>
      </g>
      <g id="Groupe_263" data-name="Groupe 263" transform="translate(22.09 20.255)">
        <path id="Tracé_287" data-name="Tracé 287" d="M1.259,42.858a.476.476,0,0,1-.4-.222c-1.868-2.965-.213-6.665.585-8.119.441-.8.946-1.584,1.433-2.339a18.414,18.414,0,0,0,2.4-4.59A18.5,18.5,0,0,0,5.741,25.4a18.142,18.142,0,0,1,.552-2.478A18.037,18.037,0,0,1,8.1,19.3c.311-.521.633-1.06.918-1.6,1.807-3.4,2.5-7.271,3.169-11.017a38.261,38.261,0,0,0,.765-6.21.476.476,0,0,1,.931-.136c2.1,6.706.26,14.1-1.214,20.045A42.612,42.612,0,0,1,9.3,30.346a43.335,43.335,0,0,1-3.467,5.211,25.277,25.277,0,0,0-4.121,6.97.478.478,0,0,1-.394.328A.405.405,0,0,1,1.259,42.858Zm12.392-39.2c-.146,1.077-.336,2.143-.524,3.191-.683,3.818-1.389,7.765-3.266,11.3-.3.558-.625,1.107-.941,1.638A17.041,17.041,0,0,0,7.2,23.219a17.075,17.075,0,0,0-.521,2.348,19.374,19.374,0,0,1-.5,2.3,19.418,19.418,0,0,1-2.51,4.833c-.478.741-.973,1.508-1.4,2.282C1.648,36.12.423,38.8,1.2,41.155a30.9,30.9,0,0,1,3.863-6.165A42.609,42.609,0,0,0,8.461,29.9a41.87,41.87,0,0,0,3.285-9.746C12.968,15.223,14.443,9.278,13.652,3.658Z" fill="#b78016"/>
      </g>
      <g id="Groupe_264" data-name="Groupe 264" transform="translate(0 31.875)">
        <path id="Tracé_288" data-name="Tracé 288" d="M23.57,33.4a.475.475,0,0,1-.234-.062,72.889,72.889,0,0,1-11.414-7.992A14.693,14.693,0,0,1,7.98,20.755,16.1,16.1,0,0,1,6.81,16.282a18.13,18.13,0,0,0-.861-3.7A18.394,18.394,0,0,0,3.87,9.012,13.943,13.943,0,0,1,1.306,3.879c-.042-.221-.077-.45-.113-.68A3.439,3.439,0,0,0,.352.97L.207.871a.477.477,0,0,1,.518-.8,2.108,2.108,0,0,1,.2.136A22.7,22.7,0,0,1,8.9,10.22c.38.942.7,1.92,1.009,2.866a24.582,24.582,0,0,0,1.948,4.8,24.6,24.6,0,0,0,2.993,3.836l3.792,4.249a47.2,47.2,0,0,1,5.344,6.714.476.476,0,0,1-.411.717ZM2,2.239c.055.273.1.548.139.814.034.219.067.437.107.646A13.036,13.036,0,0,0,4.656,8.473,19.1,19.1,0,0,1,6.837,12.24a18.752,18.752,0,0,1,.914,3.891,15.155,15.155,0,0,0,1.088,4.212,13.882,13.882,0,0,0,3.7,4.278,71.876,71.876,0,0,0,9.485,6.846c-1.159-1.57-2.647-3.237-4.1-4.865l-3.792-4.249a25.291,25.291,0,0,1-3.1-3.989A25.322,25.322,0,0,1,9,13.382c-.3-.931-.618-1.894-.986-2.806A21.765,21.765,0,0,0,2,2.239Z" fill="#b78016"/>
      </g>
      <g id="Groupe_265" data-name="Groupe 265" transform="translate(26.132 32.059)">
        <path id="Tracé_289" data-name="Tracé 289" d="M.715,39.074A.477.477,0,0,1,.25,38.7a10.054,10.054,0,0,1,.815-6.734A19.54,19.54,0,0,1,3.39,28.6,25.022,25.022,0,0,0,5.164,26.2,20.569,20.569,0,0,0,7.45,20.039c.06-.258.119-.518.178-.777a22.528,22.528,0,0,1,1.283-4.3c.28-.622.615-1.216.939-1.792.293-.519.595-1.056.846-1.6,1.6-3.446,1.388-7.5,1.2-11.071a.476.476,0,0,1,.9-.244A23.852,23.852,0,0,1,14.053,17.7a38.575,38.575,0,0,1-9.04,15.122l-.139.151c-1.684,1.827-3.593,3.9-3.683,5.647a.477.477,0,0,1-.434.45ZM12.961,3.038a19.777,19.777,0,0,1-1.4,8.935c-.266.575-.579,1.129-.88,1.664-.314.556-.638,1.133-.9,1.715a21.79,21.79,0,0,0-1.223,4.119c-.06.261-.118.522-.179.783a21.448,21.448,0,0,1-2.4,6.441,25.825,25.825,0,0,1-1.842,2.5,18.544,18.544,0,0,0-2.216,3.2A9.2,9.2,0,0,0,.96,36.363a23.173,23.173,0,0,1,3.213-4.034l.139-.151a37.637,37.637,0,0,0,8.826-14.743A23.683,23.683,0,0,0,12.961,3.038Z" fill="#b78016"/>
      </g>
      <g id="Groupe_266" data-name="Groupe 266" transform="translate(29.142 36.14)">
        <path id="Tracé_290" data-name="Tracé 290" d="M.539,42.243a.476.476,0,0,1-.473-.419c-.337-2.8.605-5.816,2.8-8.971.907-1.3,1.94-2.529,2.94-3.715C6.767,28,7.76,26.822,8.624,25.593a25.736,25.736,0,0,0,4.083-9.363c.025-.117.049-.235.073-.353a9.221,9.221,0,0,1,.648-2.2,9.162,9.162,0,0,1,.644-1.078c.172-.26.335-.506.476-.762.947-1.728.827-3.747.7-5.885A13.952,13.952,0,0,1,15.677.314a.477.477,0,0,1,.9,0A27.377,27.377,0,0,1,17.2,15.376a65.959,65.959,0,0,1-5.24,14.145c-1.2,2.531-2.446,4.944-4.489,6.662A19.685,19.685,0,0,1,5.13,37.8c-.576.356-1.17.725-1.715,1.127-1.306.965-2.316,2.185-2.4,2.9A.476.476,0,0,1,.539,42.243ZM16.2,2.28a20.547,20.547,0,0,0,0,3.616c.129,2.178.263,4.431-.816,6.4-.16.291-.341.566-.517.83a8.332,8.332,0,0,0-.581.967,8.4,8.4,0,0,0-.573,1.977c-.025.12-.049.239-.074.359A26.7,26.7,0,0,1,9.4,26.141C8.515,27.4,7.509,28.6,6.536,29.752S4.531,32.13,3.649,33.4A13.78,13.78,0,0,0,.991,39.9a10.678,10.678,0,0,1,1.858-1.742c.576-.425,1.188-.8,1.779-1.171a18.545,18.545,0,0,0,2.229-1.532c1.9-1.595,3.088-3.91,4.241-6.341a65.089,65.089,0,0,0,5.168-13.937A27.484,27.484,0,0,0,16.2,2.28Z" fill="#b78016"/>
      </g>
      <g id="Groupe_267" data-name="Groupe 267" transform="translate(30.654 51.135)">
        <path id="Tracé_291" data-name="Tracé 291" d="M.476,36.232A.465.465,0,0,1,.3,36.2a.474.474,0,0,1-.3-.447c.015-2.273.161-4.624,1.733-6.187A8.367,8.367,0,0,1,2.97,28.6c.271-.184.526-.358.766-.55A11.581,11.581,0,0,0,6.386,24.4a15.688,15.688,0,0,1,2.2-3.319,15.332,15.332,0,0,1,1.316-1.2,14.147,14.147,0,0,0,1.263-1.154,14.4,14.4,0,0,0,2.725-5.711L17.776.337A.476.476,0,0,1,18.7.389c.921,4.935-.676,9.9-2.085,14.28-1.48,4.6-3.157,9.816-6.731,13.664A35.209,35.209,0,0,1,5.238,32.3,31.477,31.477,0,0,0,.829,36.076.476.476,0,0,1,.476,36.232Zm17.531-33.4L14.8,13.292a15.121,15.121,0,0,1-2.938,6.081,14.919,14.919,0,0,1-1.347,1.234,14.591,14.591,0,0,0-1.236,1.125,15.023,15.023,0,0,0-2.06,3.124A12.45,12.45,0,0,1,4.333,28.8c-.269.217-.553.41-.827.6a7.588,7.588,0,0,0-1.1.848A6.32,6.32,0,0,0,.981,34.557,41.66,41.66,0,0,1,4.662,31.54a34.468,34.468,0,0,0,4.523-3.856c3.43-3.693,5.072-8.8,6.522-13.307C16.861,10.79,18.144,6.8,18.007,2.833Z" fill="#b78016"/>
      </g>
      <g id="Groupe_268" data-name="Groupe 268" transform="translate(10.693 60.797)">
        <path id="Tracé_292" data-name="Tracé 292" d="M12.319,10.37A9.515,9.515,0,0,1,6.16,8.085a18.245,18.245,0,0,1-2.337-2.6L.1.773A.477.477,0,0,1,.557.007,8.31,8.31,0,0,1,4.222,2.019a10.648,10.648,0,0,0,2.435,1.6c.241.1.491.182.757.269a6.549,6.549,0,0,1,1.436.6,6.653,6.653,0,0,1,1.832,1.949A5.355,5.355,0,0,0,12.358,8.2a5.321,5.321,0,0,0,1.719.449,7.111,7.111,0,0,1,1.768.424.477.477,0,0,1-.109.908l-.2.035a22.63,22.63,0,0,1-2.881.349C12.541,10.368,12.43,10.37,12.319,10.37ZM1.911,1.525,4.571,4.9A17.51,17.51,0,0,0,6.782,7.363a8.535,8.535,0,0,0,5.835,2.049q.132,0,.266-.013a4.168,4.168,0,0,1-.971-.358A6.13,6.13,0,0,1,9.906,7,5.868,5.868,0,0,0,8.351,5.308,5.745,5.745,0,0,0,7.117,4.8c-.271-.089-.551-.181-.827-.295A11.526,11.526,0,0,1,3.63,2.765,14.941,14.941,0,0,0,1.911,1.525Z" fill="#b78016"/>
      </g>
      <g id="Groupe_269" data-name="Groupe 269" transform="translate(29.356 67.773)">
        <path id="Tracé_293" data-name="Tracé 293" d="M.477,29.934A.476.476,0,0,1,0,29.429c.112-1.814,1.213-3.59,3.272-5.277.462-.379.946-.741,1.413-1.091a15.865,15.865,0,0,0,3.065-2.726,15.834,15.834,0,0,0,1.809-3.212A25.4,25.4,0,0,1,10.747,14.8a25.148,25.148,0,0,1,3.277-4.059A20.855,20.855,0,0,0,17.5,6.257,21.116,21.116,0,0,0,19.2.389.477.477,0,0,1,19.67,0h.007a.477.477,0,0,1,.464.4,25.859,25.859,0,0,1-2.915,16.52A25.861,25.861,0,0,1,4.752,28.137c-.491.208-.994.4-1.481.595A17.8,17.8,0,0,0,.726,29.864.478.478,0,0,1,.477,29.934ZM19.489,3.621A14.766,14.766,0,0,1,18.35,6.7a21.917,21.917,0,0,1-3.627,4.691,24.429,24.429,0,0,0-3.158,3.9,24.322,24.322,0,0,0-1.14,2.239,16.81,16.81,0,0,1-1.926,3.4,16.834,16.834,0,0,1-3.241,2.9c-.46.345-.935.7-1.38,1.065a7.817,7.817,0,0,0-2.77,3.7c.543-.25,1.169-.494,1.816-.748.481-.188.978-.382,1.457-.585a24.9,24.9,0,0,0,12.012-10.8A24.918,24.918,0,0,0,19.489,3.621Z" fill="#b78016"/>
      </g>
      <g id="Groupe_270" data-name="Groupe 270" transform="translate(24.732 83.575)">
        <path id="Tracé_294" data-name="Tracé 294" d="M.475,27.1a.478.478,0,0,1-.421-.7c1.309-2.55,3.6-4.335,5.806-6.061A21.145,21.145,0,0,0,11.085,15.2c.142-.228.275-.463.409-.7a7.806,7.806,0,0,1,1.451-2.013,7.854,7.854,0,0,1,2.133-1.254c.148-.066.3-.133.442-.2a16.916,16.916,0,0,0,7.522-6.994c.118-.21.233-.425.349-.641A7.213,7.213,0,0,1,26.173.052.477.477,0,0,1,26.851.6c-1.09,4.118-2.446,9.243-6.177,12.464A23.59,23.59,0,0,1,17.6,15.2c-.506.312-1.029.635-1.526.97a22.8,22.8,0,0,0-4.982,4.558c-.229.283-.457.576-.685.869-1.3,1.671-2.645,3.4-4.717,4a9.767,9.767,0,0,1-1.68.288,10.443,10.443,0,0,0-1.332.206A6.341,6.341,0,0,0,.8,26.97.459.459,0,0,1,.475,27.1ZM25.556,1.751a11.337,11.337,0,0,0-1.327,2.1c-.119.221-.237.441-.357.655a17.88,17.88,0,0,1-7.949,7.392c-.151.07-.3.139-.454.208a7.018,7.018,0,0,0-1.884,1.09,7,7,0,0,0-1.263,1.778c-.137.24-.278.488-.428.729a21.876,21.876,0,0,1-5.447,5.389A24.322,24.322,0,0,0,1.832,25.36a5.216,5.216,0,0,1,.62-.2A11.2,11.2,0,0,1,3.9,24.937a8.891,8.891,0,0,0,1.518-.256c1.776-.518,3.024-2.122,4.232-3.673.232-.3.464-.6.7-.884a23.738,23.738,0,0,1,5.19-4.748c.512-.345,1.043-.673,1.557-.99a22.8,22.8,0,0,0,2.953-2.045C23.16,9.657,24.546,5.451,25.556,1.751Z" fill="#b78016"/>
      </g>
      <g id="Groupe_271" data-name="Groupe 271" transform="translate(19.002 99.716)">
        <path id="Tracé_295" data-name="Tracé 295" d="M.476,22.758A.476.476,0,0,1,.2,21.9l.618-.445A31.008,31.008,0,0,0,7.43,15.673c.144-.185.285-.373.426-.561A9.753,9.753,0,0,1,9.574,13.2a9.677,9.677,0,0,1,2.778-1.36,14.659,14.659,0,0,0,1.679-.686,14.371,14.371,0,0,0,4.4-4.168c.582-.726,1.183-1.477,1.83-2.164a17.491,17.491,0,0,1,7.8-4.8.476.476,0,0,1,.421.838,11.906,11.906,0,0,0-3.5,4.2c-.135.271-.265.559-.39.837a8.837,8.837,0,0,1-1.478,2.493,8.791,8.791,0,0,1-2.573,1.718,14.576,14.576,0,0,0-1.436.8,14.233,14.233,0,0,0-3.554,3.91,22.762,22.762,0,0,1-2.421,3.029C9.982,20.973,5.572,21.918.554,22.752A.475.475,0,0,1,.476,22.758ZM26.069,1.783A16.534,16.534,0,0,0,20.953,5.47c-.62.66-1.21,1.4-1.781,2.108A15.279,15.279,0,0,1,14.463,12a15.545,15.545,0,0,1-1.787.733,8.835,8.835,0,0,0-2.514,1.214,8.89,8.89,0,0,0-1.543,1.736c-.145.194-.29.388-.439.578a27.791,27.791,0,0,1-5.742,5.194c4-.75,7.492-1.774,10.021-4.288a22.06,22.06,0,0,0,2.316-2.9,15.153,15.153,0,0,1,3.807-4.155,15.61,15.61,0,0,1,1.529-.85,7.954,7.954,0,0,0,2.308-1.518A8.014,8.014,0,0,0,23.725,5.5c.129-.286.263-.582.406-.869A12.815,12.815,0,0,1,26.069,1.783Z" fill="#b78016"/>
      </g>
      <g id="Groupe_272" data-name="Groupe 272" transform="translate(15.407 110.572)">
        <path id="Tracé_296" data-name="Tracé 296" d="M.586,28.356a.476.476,0,0,1-.47-.4A8.971,8.971,0,0,1,1.955,20.95c1.623-2.013,3.966-3.142,6.233-4.234A24.322,24.322,0,0,0,12.7,14.134c.558-.439,1.091-.943,1.605-1.431a23.088,23.088,0,0,1,1.8-1.584A23.483,23.483,0,0,1,18.29,9.693a12.354,12.354,0,0,0,3.332-2.534,12.371,12.371,0,0,0,1.5-2.575c.237-.49.481-1,.757-1.482C24.919,1.269,26.309.168,27.794,0a.476.476,0,0,1,.422.775,23.62,23.62,0,0,0-2.9,5.09,36.2,36.2,0,0,1-1.93,3.748C20.5,14.295,15.655,17.37,11.383,20.083l-7.2,4.571C2.719,25.586,1.2,26.7,1.06,27.934a.477.477,0,0,1-.462.422ZM26.549,1.463A6.287,6.287,0,0,0,24.71,3.571c-.26.459-.5.951-.727,1.427a13.278,13.278,0,0,1-1.627,2.768A13.246,13.246,0,0,1,18.78,10.51a22.548,22.548,0,0,0-2.1,1.367A22.07,22.07,0,0,0,14.962,13.4c-.53.5-1.079,1.022-1.672,1.488A25.038,25.038,0,0,1,8.6,17.574C6.331,18.669,4.185,19.7,2.7,21.548A8.008,8.008,0,0,0,.969,26.026a11.854,11.854,0,0,1,2.7-2.176l7.2-4.571c4.186-2.658,8.93-5.672,11.707-10.164a35.257,35.257,0,0,0,1.876-3.65A33.266,33.266,0,0,1,26.549,1.463Z" fill="#b78016"/>
      </g>
      <g id="Groupe_273" data-name="Groupe 273" transform="translate(14.528 75.661)">
        <path id="Tracé_297" data-name="Tracé 297" d="M10.522,34.617a.477.477,0,0,1-.374-.182c-2.057-2.61-4.388-5.569-4.98-9.164a20.913,20.913,0,0,1-.155-3.862,24.067,24.067,0,0,0-.068-3.144C4.568,14.864,2.714,11.781.919,8.8L.6,8.275A2.75,2.75,0,0,1,.095,6.019a2.68,2.68,0,0,1,.506-.8,2.316,2.316,0,0,0,.322-.46,2.274,2.274,0,0,0,0-1.289L.4.562A.476.476,0,0,1,1.282.247a41.609,41.609,0,0,1,3.8,8.366c.193.674.354,1.364.51,2.032a23.322,23.322,0,0,0,.975,3.4c.287.713.656,1.416,1.014,2.1a19.565,19.565,0,0,1,1.255,2.726A19.513,19.513,0,0,1,9.626,23.3c.361,3.664.735,7.452,1.364,10.754a.477.477,0,0,1-.468.566ZM1.873,3.365A2.975,2.975,0,0,1,1.79,5.15a3.07,3.07,0,0,1-.452.669,1.919,1.919,0,0,0-.343.516c-.151.429.141.973.427,1.45l.315.523c1.847,3.07,3.757,6.243,4.157,9.852a24.836,24.836,0,0,1,.073,3.271,19.86,19.86,0,0,0,.143,3.686,16.911,16.911,0,0,0,3.619,7.227c-.449-2.853-.753-5.945-1.05-8.953a18.753,18.753,0,0,0-.744-4.218,18.488,18.488,0,0,0-1.2-2.591A23.966,23.966,0,0,1,5.684,14.4a23.938,23.938,0,0,1-1.019-3.535c-.152-.656-.311-1.334-.5-1.985A30.474,30.474,0,0,0,1.873,3.365Z" fill="#b78016"/>
      </g>
      <g id="Groupe_274" data-name="Groupe 274" transform="translate(10.872 86.762)">
        <path id="Tracé_298" data-name="Tracé 298" d="M8.036,35.772a.477.477,0,0,1-.283-.094A14.746,14.746,0,0,1,1.973,22.262c.082-.684.214-1.368.342-2.03a13,13,0,0,0,.362-3.988A13.021,13.021,0,0,0,1.538,12.7c-.24-.563-.489-1.145-.7-1.735A14.986,14.986,0,0,1,1.137.292a.477.477,0,0,1,.916.167c.072,1.957,1.063,3.678,2.111,5.5A21.138,21.138,0,0,1,6.006,9.71a20.49,20.49,0,0,1,.524,7.832c-.032.511-.063,1.02-.086,1.527A45.4,45.4,0,0,0,8.489,35.144a.477.477,0,0,1-.452.628ZM1.422,2.407a14.047,14.047,0,0,0,.317,8.238c.2.561.442,1.13.677,1.679a13.963,13.963,0,0,1,1.209,3.809,13.938,13.938,0,0,1-.374,4.28c-.125.645-.253,1.313-.332,1.963A13.812,13.812,0,0,0,7.105,33.892,47.415,47.415,0,0,1,5.491,19.025c.024-.512.056-1.025.087-1.541.154-2.516.314-5.118-.476-7.471a20.517,20.517,0,0,0-1.765-3.58A18.963,18.963,0,0,1,1.422,2.407Z" fill="#b78016"/>
      </g>
      <g id="Groupe_275" data-name="Groupe 275" transform="translate(3.996 96.321)">
        <path id="Tracé_299" data-name="Tracé 299" d="M10.953,42.747c-.053,0-.108,0-.165-.009a.476.476,0,0,1-.258-.108,41.041,41.041,0,0,1-6.947-6.787,14.129,14.129,0,0,1-3.089-9.25,20.772,20.772,0,0,1,.758-3.811c.208-.784.423-1.6.568-2.4a15.194,15.194,0,0,0-.872-8.343C.88,11.878.81,11.714.739,11.55A7.323,7.323,0,0,1,0,9.006a7.336,7.336,0,0,1,.419-2.39L2.277.341A.476.476,0,0,1,2.721,0a.467.467,0,0,1,.462.315,50.967,50.967,0,0,1,2.99,17.515c0,.566-.016,1.135-.028,1.705A22.589,22.589,0,0,0,6.8,27a22.769,22.769,0,0,0,1.327,3.02,17.015,17.015,0,0,1,1.691,4.361,17.319,17.319,0,0,1,.222,1.989,9.564,9.564,0,0,0,.527,2.978,11.6,11.6,0,0,0,.623,1.22c.452.806.779,1.387.478,1.849A.8.8,0,0,1,10.953,42.747ZM2.767,2.047,1.336,6.886a6.54,6.54,0,0,0-.38,2.078,6.482,6.482,0,0,0,.66,2.211c.072.169.144.338.213.507a16.159,16.159,0,0,1,.928,8.874c-.152.838-.372,1.667-.585,2.47a19.719,19.719,0,0,0-.729,3.636,13.185,13.185,0,0,0,2.9,8.612,37.505,37.505,0,0,0,6.238,6.162c-.073-.138-.153-.279-.224-.4a12.4,12.4,0,0,1-.673-1.324,10.442,10.442,0,0,1-.6-3.271,16.7,16.7,0,0,0-.208-1.881,16.094,16.094,0,0,0-1.607-4.114,23.44,23.44,0,0,1-1.38-3.15,23.315,23.315,0,0,1-.706-7.778c.012-.565.024-1.129.028-1.69A50.017,50.017,0,0,0,2.767,2.047Z" fill="#b78016"/>
      </g>
      <g id="Groupe_276" data-name="Groupe 276" transform="translate(20.779 75.603)">
        <path id="Tracé_300" data-name="Tracé 300" d="M8.172,21.745a.476.476,0,0,1-.447-.315,16.635,16.635,0,0,0-1.447-2.8,12.083,12.083,0,0,1-1.855-4.274,12.215,12.215,0,0,1-.108-1.39c-.014-.356-.027-.692-.064-1.027A14.445,14.445,0,0,0,3.1,8.172L.035.656A.476.476,0,0,1,.768.1,17.723,17.723,0,0,1,5.834,5.326a17.829,17.829,0,0,1,1.6,6.487c.393,3.424.8,6.944,1.205,9.376a.476.476,0,0,1-.349.54A.453.453,0,0,1,8.172,21.745ZM1.6,1.969,3.982,7.812A15.134,15.134,0,0,1,5.2,11.831c.041.369.056.738.069,1.1a11.178,11.178,0,0,0,.1,1.282A11.192,11.192,0,0,0,7.1,18.139l.178.3c-.265-1.995-.526-4.269-.781-6.5a16.9,16.9,0,0,0-1.5-6.164A13.253,13.253,0,0,0,1.6,1.969Z" fill="#b78016"/>
      </g>
      <g id="Groupe_277" data-name="Groupe 277" transform="translate(15.806 73.455)">
        <path id="Tracé_301" data-name="Tracé 301" d="M10.082,7.95a.477.477,0,0,1-.464-.366A17.293,17.293,0,0,0,8.486,4,5.506,5.506,0,0,0,6.122,1.424,6.392,6.392,0,0,0,2.253,1.1c1.123.379,2.267.707,3.415.981a.477.477,0,1,1-.221.927A40.161,40.161,0,0,1,.3,1.407.476.476,0,0,1,.373.5C2.561.01,4.679-.352,6.545.57a6.444,6.444,0,0,1,2.8,3.011,18.031,18.031,0,0,1,1.2,3.782.476.476,0,0,1-.353.574A.456.456,0,0,1,10.082,7.95Z" fill="#b78016"/>
      </g>
      <g id="Groupe_278" data-name="Groupe 278" transform="translate(4.806 58.295)">
        <path id="Tracé_302" data-name="Tracé 302" d="M14.824,8.184a.475.475,0,0,1-.346-.148c-2.308-2.431-4.924-5.185-8.2-6.552A5.222,5.222,0,0,0,3.628.978,7.372,7.372,0,0,0,2.611,1.2l-.271.073A27.38,27.38,0,0,0,6.811,2.749a.477.477,0,0,1-.219.928A28.294,28.294,0,0,1,.26,1.355.477.477,0,0,1,.6.47,3.508,3.508,0,0,0,2.363.284,8.271,8.271,0,0,1,3.512.032,6.126,6.126,0,0,1,6.641.6C10.108,2.049,12.8,4.881,15.17,7.38a.476.476,0,0,1-.345.8Z" fill="#b78016"/>
      </g>
    </g>
    <circle id="Ellipse_7" data-name="Ellipse 7" cx="0.653" cy="0.653" r="0.653" transform="translate(-52.602 2315)" fill="#fff"/>
  </g>
</svg>
