<svg xmlns="http://www.w3.org/2000/svg" width="622.735" height="193.349" viewBox="0 0 622.735 193.349">
  <g id="Groupe_489" data-name="Groupe 489" transform="translate(-1088.633 -1813.609)">
    <g id="Groupe_259" data-name="Groupe 259" transform="translate(1125.629 1950.277) rotate(-90)">
      <path id="Tracé_283" data-name="Tracé 283" d="M1355.92,671.894a1.853,1.853,0,0,1-1.729-1.191c-14.261-37.308-19.165-67.67-15.432-95.547,3.5-26.131,14.949-50.465,26.02-74,1.84-3.913,3.677-7.817,5.477-11.726,16.406-35.629,34-82.308,24.365-127.4-3.61-16.895-10.973-33.065-18.095-48.7-7.639-16.779-15.541-34.128-18.951-52.586-3.882-21.008-1.818-42.626.18-63.535.647-6.795,1.318-13.823,1.77-20.7,1.939-29.428.048-59.4-1.777-88.386a1.85,1.85,0,1,1,3.692-.233c1.835,29.1,3.731,59.2,1.778,88.86-.455,6.934-1.128,13.989-1.782,20.81-1.97,20.654-4.01,42.013-.221,62.513,3.327,18.011,11.132,35.151,18.679,51.725,7.2,15.817,14.651,32.175,18.345,49.462,9.864,46.162-7.978,93.574-24.623,129.723-1.8,3.918-3.646,7.834-5.489,11.752-10.953,23.278-22.278,47.35-25.7,72.913-3.646,27.242,1.19,57.026,15.223,93.736a1.852,1.852,0,0,1-1.727,2.511Z" transform="translate(-1337.556 -86.155)" fill="#b78016"/>
    </g>
    <g id="Groupe_260" data-name="Groupe 260" transform="translate(1088.633 1938.216) rotate(-90)">
      <path id="Tracé_284" data-name="Tracé 284" d="M1353.848,214.086h-.012a1.852,1.852,0,0,1-1.664-1.068c-.568-1.217-1.157-2.417-1.739-3.605a61.782,61.782,0,0,1-5.024-12.491,60.648,60.648,0,0,1-1.263-12.074l-.789-21.311c-1.114-30.213-2.266-61.455,5.814-91.393a1.848,1.848,0,0,1,3.593.1,200.138,200.138,0,0,0,9.527,31.646q.407,1.032.823,2.064a80.315,80.315,0,0,1,3.844,11.177c1.614,6.814,1.438,13.787,1.268,20.531-.611,24.24-1.3,51.716-12.709,75.381A1.854,1.854,0,0,1,1353.848,214.086Zm-2.932-133.478c-5.917,27.134-4.873,55.388-3.86,82.792l.786,21.311A58,58,0,0,0,1349,196.054a58.08,58.08,0,0,0,4.75,11.73l.046.094c9.51-22.152,10.155-47.668,10.727-70.313.164-6.506.334-13.236-1.171-19.584a77.5,77.5,0,0,0-3.678-10.658c-.279-.693-.556-1.388-.83-2.081A203.67,203.67,0,0,1,1350.916,80.608Z" transform="translate(-1342.57 -70.774)" fill="#b78016"/>
    </g>
    <g id="Groupe_261" data-name="Groupe 261" transform="translate(1130.373 1930.146) rotate(-90)">
      <path id="Tracé_285" data-name="Tracé 285" d="M1347.87,247.508c-.038,0-.074,0-.113,0a1.85,1.85,0,0,1-1.734-1.722c-.895-13.368,4.539-25.787,9.792-37.8,3.336-7.622,6.783-15.507,8.556-23.523a126.344,126.344,0,0,0,1.91-12.818c.76-6.636,1.547-13.5,3.943-19.952a85.952,85.952,0,0,1,4.094-8.878c2.187-4.3,4.25-8.354,5.188-12.8,1.13-5.378.541-11.261-.029-16.952-.818-8.127-1.662-16.534,2.357-23.956a1.849,1.849,0,0,1,3.4.366c5.385,18.6,9.828,36.752,5.13,54.349-.625,2.34-1.412,4.645-2.174,6.872a71.828,71.828,0,0,0-2.708,9.231,73.692,73.692,0,0,0-1.03,10.347c-.248,4.724-.5,9.609-1.965,14.294a57.647,57.647,0,0,1-5.705,11.733,57.442,57.442,0,0,0-5.171,10.362,59.611,59.611,0,0,0-1.818,7.464c-.864,4.346-1.756,8.839-4.2,12.786-2.047,3.3-4.991,5.924-7.836,8.464-3.747,3.343-7.288,6.5-8.068,10.631A1.851,1.851,0,0,1,1347.87,247.508Zm35.336-151.645c-1.219,5.186-.647,10.881-.05,16.822.6,5.972,1.219,12.147-.034,18.085-1.037,4.928-3.31,9.4-5.508,13.72a82.357,82.357,0,0,0-3.923,8.488c-2.239,6.03-2.966,12.37-3.733,19.083a129.827,129.827,0,0,1-1.977,13.2c-1.85,8.368-5.371,16.421-8.777,24.209-4.2,9.609-8.221,18.795-9.3,28.392a56.48,56.48,0,0,1,5.385-5.251c2.651-2.364,5.391-4.808,7.156-7.654,2.093-3.375,2.884-7.351,3.721-11.557a62.385,62.385,0,0,1,1.941-7.93,61.2,61.2,0,0,1,5.482-11.04,54.079,54.079,0,0,0,5.369-10.968c1.325-4.243,1.556-8.683,1.8-13.385a76.681,76.681,0,0,1,1.094-10.874,76.09,76.09,0,0,1,2.838-9.71c.741-2.167,1.508-4.409,2.1-6.629C1390.8,127.839,1387.689,112.058,1383.206,95.863Z" transform="translate(-1345.926 -88.128)" fill="#b78016"/>
    </g>
    <g id="Groupe_262" data-name="Groupe 262" transform="translate(1109.014 1975.239) rotate(-90)">
      <path id="Tracé_286" data-name="Tracé 286" d="M1369.514,251.939a1.849,1.849,0,0,1-1.186-.428c-11.031-9.188-24.079-21.833-27.1-38.164a77.591,77.591,0,0,1-.921-8.142,56.948,56.948,0,0,0-1.335-9.859c-1.049-4.06-2.978-7.779-5.018-11.718a70.814,70.814,0,0,1-4.758-10.574c-3.307-10.182-1.874-20.878-.486-31.223a133.256,133.256,0,0,0,1.522-16.462,130.1,130.1,0,0,0-1.441-17.294c-1.147-8.962-2.335-18.229-.522-27.341a1.849,1.849,0,0,1,3.468-.464A107.247,107.247,0,0,1,1343,127.777c0,2.716-.094,5.472-.193,8.135-.245,6.814-.5,13.859,1.018,20.462a79.528,79.528,0,0,0,3.788,11.17c.635,1.6,1.289,3.257,1.891,4.912a95.037,95.037,0,0,1,5.376,24.442l.094,1.174a26.475,26.475,0,0,0,1.256,7.348,26.337,26.337,0,0,0,2.968,5.183c.7,1.032,1.414,2.1,2.056,3.223,3.31,5.8,4.219,12.4,5.1,18.778.858,6.242,1.671,12.137,4.68,16.423a1.85,1.85,0,0,1-1.513,2.913Zm-38.4-164.191c-.368,6.463.472,13.017,1.349,19.858a133.037,133.037,0,0,1,1.47,17.789,136.3,136.3,0,0,1-1.554,16.926c-1.4,10.393-2.711,20.209.337,29.59a67.008,67.008,0,0,0,4.524,10.016,60.327,60.327,0,0,1,5.313,12.5,60.516,60.516,0,0,1,1.441,10.5,75.08,75.08,0,0,0,.871,7.755c2.273,12.3,10.569,22.27,19.632,30.6a83.759,83.759,0,0,1-1.816-10.165c-.832-6.035-1.691-12.272-4.647-17.45-.572-1-1.222-1.967-1.912-2.987a29.579,29.579,0,0,1-3.358-5.939,29.562,29.562,0,0,1-1.484-8.37l-.094-1.155a91.217,91.217,0,0,0-5.167-23.487c-.582-1.607-1.227-3.237-1.852-4.815a82.425,82.425,0,0,1-3.954-11.7c-1.626-7.079-1.362-14.371-1.107-21.424.094-2.631.193-5.352.188-8A103.581,103.581,0,0,0,1331.116,87.749Z" transform="translate(-1327.178 -79.248)" fill="#b78016"/>
    </g>
    <g id="Groupe_263" data-name="Groupe 263" transform="translate(1167.258 1921.213) rotate(-90)">
      <path id="Tracé_287" data-name="Tracé 287" d="M1354.528,269.826a1.847,1.847,0,0,1-1.566-.863c-7.252-11.509-.828-25.871,2.271-31.514,1.712-3.117,3.67-6.15,5.563-9.08,3.8-5.888,7.391-11.451,9.306-17.818a71.784,71.784,0,0,0,1.821-8.479,70.391,70.391,0,0,1,2.143-9.619c1.643-5.077,4.378-9.662,7.021-14.092,1.208-2.023,2.456-4.113,3.565-6.2,7.014-13.193,9.7-28.226,12.3-42.766,1.412-7.882,2.869-16.033,2.968-24.106a1.849,1.849,0,0,1,3.615-.529c8.132,26.032,1.01,54.744-4.712,77.81-3.232,13.029-6.576,26.5-13.082,38.684-3.839,7.187-8.729,13.816-13.457,20.226-6.689,9.063-13.008,17.626-15.995,27.054a1.854,1.854,0,0,1-1.527,1.275A1.569,1.569,0,0,1,1354.528,269.826Zm48.1-152.162c-.565,4.18-1.306,8.317-2.035,12.385-2.65,14.819-5.393,30.143-12.678,43.848-1.152,2.167-2.425,4.3-3.653,6.36-2.656,4.45-5.164,8.657-6.677,13.335a66.267,66.267,0,0,0-2.021,9.114,75.231,75.231,0,0,1-1.922,8.911c-2.066,6.869-5.97,12.914-9.741,18.759-1.857,2.877-3.779,5.852-5.429,8.856-2.439,4.438-7.194,14.85-4.163,23.985,3.483-8.325,9.1-15.937,15-23.93,4.652-6.3,9.46-12.822,13.173-19.774,6.29-11.774,9.575-25.02,12.753-37.83C1399.978,162.556,1405.7,139.477,1402.631,117.664Z" transform="translate(-1349.639 -103.463)" fill="#b78016"/>
    </g>
    <g id="Groupe_264" data-name="Groupe 264" transform="translate(1212.363 2006.959) rotate(-90)">
      <path id="Tracé_288" data-name="Tracé 288" d="M1405.484,251.865a1.843,1.843,0,0,1-.909-.241,282.931,282.931,0,0,1-44.305-31.021c-5.542-4.734-11.754-10.405-15.3-17.821-2.636-5.508-3.6-11.536-4.539-17.364-.777-4.835-1.58-9.835-3.341-14.347-1.912-4.895-5.044-9.46-8.072-13.874-4.185-6.1-8.514-12.411-9.953-19.925-.164-.856-.3-1.746-.44-2.641-.548-3.555-1.068-6.922-3.264-8.652-.185-.13-.373-.26-.56-.385a1.85,1.85,0,0,1,2.011-3.105,8.154,8.154,0,0,1,.77.529,88.1,88.1,0,0,1,30.949,38.867c1.477,3.656,2.716,7.454,3.916,11.124,2.066,6.331,4.2,12.878,7.56,18.626,3.163,5.414,7.461,10.23,11.617,14.889l14.72,16.493c7.846,8.791,15.959,17.881,20.743,26.063a1.849,1.849,0,0,1-1.6,2.783Zm-83.746-120.956c.214,1.058.38,2.126.539,3.158.132.851.262,1.7.416,2.509,1.294,6.754,5.217,12.474,9.373,18.53,3.144,4.587,6.4,9.328,8.464,14.622,1.907,4.88,2.742,10.078,3.548,15.105.935,5.826,1.818,11.329,4.224,16.351,3.24,6.764,9.116,12.12,14.371,16.606a278.992,278.992,0,0,0,36.82,26.576c-4.5-6.093-10.275-12.565-15.913-18.884l-14.72-16.493c-4.279-4.794-8.7-9.751-12.053-15.485-3.557-6.09-5.756-12.827-7.885-19.343-1.178-3.615-2.4-7.35-3.827-10.891A84.488,84.488,0,0,0,1321.737,130.909Z" transform="translate(-1313.99 -122.216)" fill="#b78016"/>
    </g>
    <g id="Groupe_265" data-name="Groupe 265" transform="translate(1213.076 1905.52) rotate(-90)">
      <path id="Tracé_289" data-name="Tracé 289" d="M1358.94,274.185a1.854,1.854,0,0,1-1.8-1.438,39.027,39.027,0,0,1,3.166-26.14c2.41-4.8,5.77-9,9.02-13.063a97.1,97.1,0,0,0,6.889-9.349c4.661-7.531,7.1-16.308,8.873-23.9.234-1,.462-2.011.69-3.016,1.263-5.571,2.569-11.329,4.979-16.69,1.087-2.415,2.386-4.722,3.644-6.956,1.135-2.016,2.309-4.1,3.283-6.2,6.208-13.376,5.388-29.1,4.664-42.975a1.847,1.847,0,0,1,3.488-.945c10,19.355,11.784,44.036,4.883,67.711-5.833,20.009-17.64,39.759-35.09,58.7l-.539.584c-6.537,7.091-13.945,15.129-14.3,21.919a1.851,1.851,0,0,1-1.686,1.749C1359.046,274.183,1358.993,274.185,1358.94,274.185Zm47.533-139.878c.308,11.555-.349,23.716-5.438,34.684-1.034,2.232-2.246,4.382-3.415,6.461-1.217,2.16-2.475,4.4-3.492,6.658-2.259,5.022-3.524,10.6-4.746,15.99-.231,1.015-.46,2.028-.695,3.04-1.84,7.882-4.39,17.015-9.328,25a100.229,100.229,0,0,1-7.149,9.715c-3.273,4.091-6.367,7.957-8.6,12.411a35.707,35.707,0,0,0-3.716,15.4c3-5.381,7.935-10.735,12.474-15.658l.539-.584c17.06-18.521,28.589-37.775,34.258-57.228C1412.755,171,1412.44,151.158,1406.473,134.307Z" transform="translate(-1356.163 -122.512)" fill="#b78016"/>
    </g>
    <g id="Groupe_266" data-name="Groupe 266" transform="translate(1228.916 1893.839) rotate(-90)">
      <path id="Tracé_290" data-name="Tracé 290" d="M1363.115,293.075a1.848,1.848,0,0,1-1.835-1.628c-1.309-10.86,2.35-22.576,10.872-34.823,3.519-5.058,7.531-9.818,11.413-14.422,3.726-4.418,7.579-8.986,10.932-13.758a99.9,99.9,0,0,0,15.848-36.346c.1-.455.19-.912.284-1.369a27.414,27.414,0,0,1,5.017-12.721c.669-1.01,1.3-1.963,1.848-2.958,3.675-6.706,3.211-14.545,2.72-22.845-.436-7.317-.883-14.886,1.662-21.886a1.85,1.85,0,0,1,3.478,0c6.17,16.945,7.011,37.164,2.427,58.467-4.163,19.341-12.236,37.818-20.339,54.9-4.659,9.823-9.5,19.192-17.423,25.861a76.393,76.393,0,0,1-9.085,6.263c-2.234,1.383-4.543,2.814-6.658,4.375-5.068,3.745-8.989,8.481-9.323,11.259A1.849,1.849,0,0,1,1363.115,293.075Zm60.776-155.125a79.757,79.757,0,0,0,.014,14.037c.5,8.454,1.02,17.2-3.168,24.839-.621,1.13-1.325,2.2-2.009,3.223a23.993,23.993,0,0,0-4.478,11.425c-.1.464-.19.928-.289,1.393a103.633,103.633,0,0,1-16.44,37.7c-3.447,4.9-7.353,9.534-11.129,14.015-3.827,4.539-7.786,9.231-11.206,14.148-6.141,8.827-9.6,17.287-10.321,25.241a41.452,41.452,0,0,1,7.211-6.764c2.237-1.65,4.611-3.122,6.906-4.546a72.017,72.017,0,0,0,8.654-5.948c7.36-6.191,11.988-15.177,16.464-24.615,8.007-16.885,15.98-35.126,20.062-54.1C1428.035,170,1427.924,152.852,1423.891,137.949Z" transform="translate(-1361.021 -129.098)" fill="#b78016"/>
    </g>
    <g id="Groupe_267" data-name="Groupe 267" transform="translate(1287.123 1887.968) rotate(-90)">
      <path id="Tracé_291" data-name="Tracé 291" d="M1365.308,293.941a1.8,1.8,0,0,1-.669-.127,1.84,1.84,0,0,1-1.178-1.734c.058-8.825.625-17.948,6.728-24.017a32.466,32.466,0,0,1,4.8-3.731c1.051-.714,2.042-1.388,2.973-2.136,4.505-3.627,7.312-8.76,10.287-14.193,2.441-4.464,4.967-9.08,8.546-12.883a59.549,59.549,0,0,1,5.106-4.659,54.87,54.87,0,0,0,4.9-4.481c5.643-6.068,8.264-14.622,10.576-22.169l15.081-49.2a1.849,1.849,0,0,1,3.587.2c3.574,19.156-2.624,38.426-8.094,55.429-5.746,17.859-12.255,38.1-26.129,53.041-5.436,5.854-11.841,10.706-18.032,15.4-6.287,4.765-12.229,9.265-17.114,14.655A1.848,1.848,0,0,1,1365.308,293.941ZM1433.36,164.3l-12.442,40.6c-2.429,7.93-5.183,16.914-11.4,23.605a57.915,57.915,0,0,1-5.229,4.789,56.637,56.637,0,0,0-4.8,4.366c-3.254,3.461-5.664,7.865-7.995,12.125-3.016,5.513-6.136,11.213-11.213,15.3-1.046.842-2.145,1.59-3.211,2.314a29.445,29.445,0,0,0-4.274,3.293c-4.118,4.1-5.227,10.287-5.527,16.755a161.7,161.7,0,0,1,14.29-11.711c6.066-4.6,12.339-9.349,17.556-14.968,13.313-14.335,19.689-34.162,25.315-51.655C1428.911,195.181,1433.892,179.7,1433.36,164.3Z" transform="translate(-1363.461 -153.298)" fill="#b78016"/>
    </g>
    <g id="Groupe_268" data-name="Groupe 268" transform="translate(1324.627 1965.452) rotate(-90)">
      <path id="Tracé_292" data-name="Tracé 292" d="M1379.067,209.144a36.936,36.936,0,0,1-23.909-8.871,70.823,70.823,0,0,1-9.07-10.085l-14.443-18.3a1.851,1.851,0,0,1,1.763-2.971c5.6.955,9.984,4.44,14.229,7.81,3.122,2.48,6.071,4.823,9.45,6.23.936.387,1.907.707,2.939,1.044a25.422,25.422,0,0,1,5.575,2.343c3.072,1.891,5.125,4.777,7.113,7.567,1.972,2.768,3.834,5.383,6.5,6.8a20.658,20.658,0,0,0,6.672,1.744,27.6,27.6,0,0,1,6.865,1.648,1.85,1.85,0,0,1-.423,3.526l-.791.135a87.833,87.833,0,0,1-11.182,1.354C1379.927,209.137,1379.5,209.144,1379.067,209.144Zm-40.4-34.333,10.326,13.085a67.961,67.961,0,0,0,8.582,9.575,33.132,33.132,0,0,0,22.648,7.952q.512-.018,1.032-.05a16.177,16.177,0,0,1-3.769-1.39c-3.444-1.83-5.65-4.928-7.783-7.925-1.854-2.6-3.606-5.066-6.037-6.564a22.3,22.3,0,0,0-4.789-1.975c-1.051-.346-2.138-.7-3.208-1.145-3.856-1.607-7.146-4.221-10.328-6.749A58,58,0,0,0,1338.665,174.811Z" transform="translate(-1331.247 -168.89)" fill="#b78016"/>
    </g>
    <g id="Groupe_269" data-name="Groupe 269" transform="translate(1351.707 1893.008) rotate(-90)">
      <path id="Tracé_293" data-name="Tracé 293" d="M1363.216,296.345a1.847,1.847,0,0,1-1.848-1.963c.433-7.043,4.707-13.934,12.7-20.483,1.792-1.47,3.67-2.877,5.486-4.236,4.443-3.327,8.64-6.465,11.9-10.581,2.929-3.7,4.916-7.959,7.023-12.469a98.591,98.591,0,0,1,4.606-9.032c3.509-5.845,8.192-10.881,12.722-15.754,5.222-5.614,10.153-10.917,13.5-17.39,3.637-7.023,5.138-15.033,6.59-22.78a1.852,1.852,0,0,1,1.818-1.508h.026a1.851,1.851,0,0,1,1.8,1.559,99.92,99.92,0,0,1-59.735,107.662c-1.905.806-3.858,1.571-5.749,2.309a69.1,69.1,0,0,0-9.876,4.392A1.855,1.855,0,0,1,1363.216,296.345Zm73.8-102.14a57.319,57.319,0,0,1-4.423,11.933c-3.584,6.92-8.919,12.659-14.078,18.208-4.4,4.734-8.95,9.628-12.26,15.141a94.432,94.432,0,0,0-4.426,8.69c-2.1,4.505-4.279,9.164-7.476,13.2-3.557,4.491-8.144,7.925-12.58,11.245-1.785,1.337-3.629,2.718-5.359,4.135-5.778,4.734-9.381,9.556-10.752,14.376,2.109-.972,4.536-1.919,7.05-2.9,1.866-.729,3.8-1.484,5.655-2.271a96.187,96.187,0,0,0,58.647-91.756Z" transform="translate(-1361.366 -180.149)" fill="#b78016"/>
    </g>
    <g id="Groupe_273" data-name="Groupe 273" transform="translate(1382.326 1950.564) rotate(-90)">
      <path id="Tracé_297" data-name="Tracé 297" d="M1378.281,327.252a1.851,1.851,0,0,1-1.453-.7c-7.985-10.131-17.034-21.616-19.331-35.574a81.185,81.185,0,0,1-.6-14.992,93.405,93.405,0,0,0-.262-12.2c-1.465-13.2-8.664-25.169-15.629-36.743L1339.782,225c-1.116-1.857-3.189-5.313-1.977-8.758a10.4,10.4,0,0,1,1.963-3.122,8.989,8.989,0,0,0,1.251-1.785c.6-1.318.356-3.047,0-5.005l-2.047-11.271a1.849,1.849,0,0,1,3.442-1.219c5.624,10.278,11.434,20.9,14.754,32.476.751,2.617,1.376,5.3,1.98,7.887a90.509,90.509,0,0,0,3.783,13.181c1.114,2.766,2.547,5.5,3.935,8.139a75.936,75.936,0,0,1,4.873,10.581c1.919,5.619,2.5,11.512,3.064,17.21,1.4,14.222,2.852,28.928,5.294,41.743a1.852,1.852,0,0,1-1.816,2.2ZM1344.706,205.94c.356,1.963.76,4.56-.323,6.93a11.919,11.919,0,0,1-1.756,2.6,7.443,7.443,0,0,0-1.332,2c-.587,1.667.548,3.779,1.657,5.628l1.222,2.03c7.17,11.916,14.583,24.235,16.137,38.241a96.385,96.385,0,0,1,.284,12.7,77.1,77.1,0,0,0,.553,14.309c1.727,10.5,7.743,19.738,14.049,28.053-1.741-11.074-2.925-23.076-4.074-34.754-.544-5.486-1.1-11.16-2.886-16.373a71.752,71.752,0,0,0-4.647-10.059,93.027,93.027,0,0,1-4.089-8.479,92.931,92.931,0,0,1-3.957-13.722c-.592-2.545-1.207-5.179-1.931-7.707A118.285,118.285,0,0,0,1344.706,205.94Z" transform="translate(-1337.437 -192.879)" fill="#b78016"/>
    </g>
    <g id="Groupe_276" data-name="Groupe 276" transform="translate(1382.104 1926.301) rotate(-90)">
      <path id="Tracé_300" data-name="Tracé 300" d="M1379.245,277.194a1.847,1.847,0,0,1-1.737-1.222,64.57,64.57,0,0,0-5.616-10.877c-3.072-5.135-6.247-10.444-7.2-16.589a47.419,47.419,0,0,1-.421-5.4c-.053-1.383-.1-2.687-.248-3.988-.563-5.034-2.547-9.9-4.469-14.612l-11.894-29.176a1.849,1.849,0,0,1,2.843-2.16c6.672,5.152,14.973,11.567,19.666,20.288,4.238,7.872,5.292,17.068,6.222,25.181,1.525,13.292,3.093,26.953,4.678,36.394a1.849,1.849,0,0,1-1.354,2.095A1.76,1.76,0,0,1,1379.245,277.194Zm-25.51-76.764,9.246,22.682c2.018,4.943,4.1,10.054,4.719,15.6.159,1.431.216,2.865.269,4.252a43.4,43.4,0,0,0,.38,4.977c.84,5.431,3.695,10.2,6.718,15.254q.347.577.693,1.159c-1.029-7.743-2.042-16.572-3.033-25.212-.945-8.243-1.912-16.681-5.814-23.928C1363.745,209.327,1358.8,204.589,1353.734,200.43Z" transform="translate(-1347.525 -192.786)" fill="#b78016"/>
    </g>
    <g id="Groupe_277" data-name="Groupe 277" transform="translate(1373.766 1945.604) rotate(-90)">
      <path id="Tracé_301" data-name="Tracé 301" d="M1378.633,220.178a1.852,1.852,0,0,1-1.8-1.419c-1.121-4.71-2.28-9.58-4.4-13.919-1.6-3.281-4.488-7.678-9.174-9.991-4.431-2.189-9.573-2.121-15.021-1.263,4.361,1.47,8.8,2.744,13.258,3.808a1.85,1.85,0,1,1-.859,3.6,155.883,155.883,0,0,1-19.961-6.208,1.849,1.849,0,0,1,.265-3.529c8.5-1.9,16.717-3.3,23.959.277,5.621,2.776,9.008,7.889,10.86,11.69,2.292,4.7,3.5,9.775,4.668,14.679a1.847,1.847,0,0,1-1.368,2.227A1.771,1.771,0,0,1,1378.633,220.178Z" transform="translate(-1339.499 -189.32)" fill="#b78016"/>
    </g>
    <g id="Groupe_278" data-name="Groupe 278" transform="translate(1314.92 1988.304) rotate(-90)">
      <path id="Tracé_302" data-name="Tracé 302" d="M1379.29,196.623a1.843,1.843,0,0,1-1.342-.575c-8.957-9.436-19.112-20.127-31.846-25.433-4.074-1.7-7.336-2.323-10.273-1.963a28.614,28.614,0,0,0-3.947.876c-.349.094-.7.19-1.051.281a106.285,106.285,0,0,0,17.354,5.715,1.85,1.85,0,0,1-.851,3.6,109.824,109.824,0,0,1-24.577-9.013,1.85,1.85,0,0,1,1.318-3.435c2.093.56,4.4-.063,6.845-.722a32.114,32.114,0,0,1,4.459-.977c3.594-.438,7.457.267,12.147,2.222,13.455,5.6,23.894,16.6,33.1,26.3a1.848,1.848,0,0,1-1.34,3.122Z" transform="translate(-1321.746 -164.854)" fill="#b78016"/>
    </g>
  </g>
</svg>
