<svg xmlns="http://www.w3.org/2000/svg" xmlns:xlink="http://www.w3.org/1999/xlink" width="29.743" height="29.743" viewBox="0 0 29.743 29.743">
  <defs>
    <clipPath id="clip-path">
      <circle id="Ellipse_1" data-name="Ellipse 1" cx="14.872" cy="14.872" r="14.872" fill="#fff"/>
    </clipPath>
  </defs>
  <g id="Groupe_79" data-name="Groupe 79" clip-path="url(#clip-path)">
    <g id="Groupe_1" data-name="Groupe 1" transform="translate(23.274 5.145)">
      <path id="Tracé_1" data-name="Tracé 1" d="M606.659,360.531a.075.075,0,0,1-.07-.048,7.79,7.79,0,0,1-.621-3.848,10.374,10.374,0,0,1,1.048-2.98c.074-.158.148-.315.221-.472a8.458,8.458,0,0,0,.981-5.131,9.75,9.75,0,0,0-.729-1.961,6.931,6.931,0,0,1-.756-4.677c.026-.274.053-.557.071-.834a27.86,27.86,0,0,0-.072-3.56.074.074,0,1,1,.149-.009,27.983,27.983,0,0,1,.072,3.579c-.018.279-.046.563-.072.838a6.794,6.794,0,0,0,.743,4.6,9.866,9.866,0,0,1,.739,1.992,8.592,8.592,0,0,1-.992,5.224c-.073.158-.147.315-.221.473a10.265,10.265,0,0,0-1.035,2.936,7.651,7.651,0,0,0,.613,3.775.075.075,0,0,1-.043.1A.076.076,0,0,1,606.659,360.531Z" transform="translate(-605.92 -336.941)" fill="#fff"/>
    </g>
    <g id="Groupe_2" data-name="Groupe 2" transform="translate(23.76 3.656)">
      <path id="Tracé_2" data-name="Tracé 2" d="M611.388,327.333h0a.075.075,0,0,1-.067-.043c-.023-.049-.047-.1-.07-.145a2.478,2.478,0,0,1-.2-.5,2.437,2.437,0,0,1-.051-.486l-.032-.858a12.317,12.317,0,0,1,.234-3.681.075.075,0,0,1,.145,0,8.06,8.06,0,0,0,.384,1.274l.033.083a2.431,2.431,0,0,1,.206,1.277,7.383,7.383,0,0,1-.512,3.036A.074.074,0,0,1,611.388,327.333Zm-.118-5.376a13.358,13.358,0,0,0-.156,3.334l.032.858a1.72,1.72,0,0,0,.238.929l0,0a7.689,7.689,0,0,0,.432-2.832,2.293,2.293,0,0,0-.2-1.218l-.033-.084A8.188,8.188,0,0,1,611.27,321.957Z" transform="translate(-610.934 -321.561)" fill="#fff"/>
    </g>
    <g id="Groupe_3" data-name="Groupe 3" transform="translate(24.085 5.336)">
      <path id="Tracé_3" data-name="Tracé 3" d="M614.368,345.333h0a.074.074,0,0,1-.07-.069,3.3,3.3,0,0,1,.394-1.522,5.252,5.252,0,0,0,.344-.947,5.086,5.086,0,0,0,.077-.516,2.567,2.567,0,0,1,.324-1.161,2.123,2.123,0,0,0,.209-.516,2.274,2.274,0,0,0,0-.683,1.63,1.63,0,0,1,.1-.965.074.074,0,0,1,.137.015,4.1,4.1,0,0,1,.207,2.189c-.025.094-.057.187-.088.277a2.9,2.9,0,0,0-.109.372,2.949,2.949,0,0,0-.041.417,1.757,1.757,0,0,1-.309,1.048,2.313,2.313,0,0,0-.208.417,2.417,2.417,0,0,0-.073.3,1.507,1.507,0,0,1-.169.515,1.625,1.625,0,0,1-.316.341.861.861,0,0,0-.325.428A.075.075,0,0,1,614.368,345.333Zm1.423-6.107a2.1,2.1,0,0,0,0,.677,2.385,2.385,0,0,1,0,.728,2.259,2.259,0,0,1-.222.553,3.337,3.337,0,0,0-.158.342,3.233,3.233,0,0,0-.15.769,5.186,5.186,0,0,1-.08.531,5.362,5.362,0,0,1-.353.975,4.056,4.056,0,0,0-.375,1.143,2.3,2.3,0,0,1,.217-.211,1.514,1.514,0,0,0,.288-.308,1.373,1.373,0,0,0,.15-.466,2.507,2.507,0,0,1,.078-.319,2.464,2.464,0,0,1,.221-.445,1.62,1.62,0,0,0,.289-.981,2.31,2.31,0,0,1,.158-.829c.03-.087.061-.178.085-.267A3.618,3.618,0,0,0,615.791,339.226Z" transform="translate(-614.29 -338.914)" fill="#fff"/>
    </g>
    <g id="Groupe_4" data-name="Groupe 4" transform="translate(22.269 4.476)">
      <path id="Tracé_4" data-name="Tracé 4" d="M597.247,336.989a.074.074,0,0,1-.048-.017,2.836,2.836,0,0,1-1.091-1.537,3.129,3.129,0,0,1-.037-.328,1.7,1.7,0,0,0-.256-.869,2.857,2.857,0,0,1-.192-.426,2.823,2.823,0,0,1-.02-1.258,5.355,5.355,0,0,0,.061-.663,5.218,5.218,0,0,0-.058-.7,3.409,3.409,0,0,1-.021-1.1.074.074,0,0,1,.14-.019,4.316,4.316,0,0,1,.453,1.913c0,.109,0,.22-.008.328a2.352,2.352,0,0,0,.193,1.274c.026.065.052.131.076.2a3.832,3.832,0,0,1,.216.984l0,.047a.773.773,0,0,0,.17.5c.028.042.057.085.083.13a2.054,2.054,0,0,1,.205.756,1.517,1.517,0,0,0,.189.661.075.075,0,0,1-.061.117Zm-1.546-6.613a4.382,4.382,0,0,0,.054.8,5.363,5.363,0,0,1,.059.716,5.5,5.5,0,0,1-.063.682,2,2,0,0,0,.2,1.6,1.837,1.837,0,0,1,.272.926,3.01,3.01,0,0,0,.035.312,2.317,2.317,0,0,0,.791,1.232,3.389,3.389,0,0,1-.073-.409,1.94,1.94,0,0,0-.187-.7c-.023-.04-.049-.079-.077-.12a.916.916,0,0,1-.2-.576l0-.046a3.678,3.678,0,0,0-.208-.946c-.024-.065-.049-.13-.075-.194a2.492,2.492,0,0,1-.2-1.334c0-.106.008-.216.008-.322A4.171,4.171,0,0,0,595.7,330.377Z" transform="translate(-595.542 -330.034)" fill="#fff"/>
    </g>
    <g id="Groupe_5" data-name="Groupe 5" transform="translate(24.445 6.822)">
      <path id="Tracé_5" data-name="Tracé 5" d="M618.2,360.949a.074.074,0,0,1-.063-.035,1.312,1.312,0,0,1,.091-1.269c.069-.126.148-.248.224-.366a2.157,2.157,0,0,0,.448-1.059,2.128,2.128,0,0,1,.369-.955c.049-.081.1-.166.144-.25a5.8,5.8,0,0,0,.5-1.722,5.982,5.982,0,0,0,.119-.971.075.075,0,0,1,.146-.021,5.927,5.927,0,0,1-.19,3.134,6.663,6.663,0,0,1-.527,1.558,6.759,6.759,0,0,1-.542.815,3.954,3.954,0,0,0-.644,1.09.074.074,0,0,1-.061.051Zm1.937-6.128c-.023.168-.053.335-.082.5a5.909,5.909,0,0,1-.511,1.766c-.046.087-.1.173-.147.256a1.99,1.99,0,0,0-.35.9,3.09,3.09,0,0,1-.077.359,3.036,3.036,0,0,1-.392.755c-.075.116-.152.236-.219.357a1.316,1.316,0,0,0-.168.966,4.821,4.821,0,0,1,.6-.964,6.674,6.674,0,0,0,.531-.8,6.552,6.552,0,0,0,.514-1.524A6.964,6.964,0,0,0,620.138,354.821Z" transform="translate(-618.003 -354.249)" fill="#fff"/>
    </g>
    <g id="Groupe_6" data-name="Groupe 6" transform="translate(20.991 8.639)">
      <path id="Tracé_6" data-name="Tracé 6" d="M586.039,378.224a.074.074,0,0,1-.037-.01,11.39,11.39,0,0,1-1.784-1.249,2.3,2.3,0,0,1-.616-.718,2.518,2.518,0,0,1-.183-.7,2.813,2.813,0,0,0-.135-.578,2.876,2.876,0,0,0-.325-.559,2.179,2.179,0,0,1-.4-.8c-.007-.034-.012-.07-.018-.106a.538.538,0,0,0-.131-.348l-.023-.016a.075.075,0,0,1,.081-.125l.031.021a3.549,3.549,0,0,1,1.246,1.565c.059.147.109.3.158.448a2.841,2.841,0,0,0,.772,1.35l.593.664a7.377,7.377,0,0,1,.835,1.05.074.074,0,0,1-.064.112Zm-3.373-4.871c.009.043.015.086.022.127s.01.068.017.1a2.039,2.039,0,0,0,.377.746,2.985,2.985,0,0,1,.341.589,2.942,2.942,0,0,1,.143.608,2.374,2.374,0,0,0,.17.659,2.173,2.173,0,0,0,.579.669,11.26,11.26,0,0,0,1.483,1.07c-.181-.245-.414-.506-.641-.761l-.593-.664a2.983,2.983,0,0,1-.8-1.4c-.047-.146-.1-.3-.154-.439A3.4,3.4,0,0,0,582.666,373.353Z" transform="translate(-582.354 -373.003)" fill="#fff"/>
    </g>
    <g id="Groupe_7" data-name="Groupe 7" transform="translate(25.077 8.667)">
      <path id="Tracé_7" data-name="Tracé 7" d="M624.639,379.407a.075.075,0,0,1-.073-.058,1.571,1.571,0,0,1,.127-1.053,3.053,3.053,0,0,1,.363-.526,3.928,3.928,0,0,0,.278-.377,3.218,3.218,0,0,0,.357-.962l.028-.121a3.519,3.519,0,0,1,.2-.672c.044-.1.1-.19.147-.28s.093-.165.132-.25a3.665,3.665,0,0,0,.188-1.731.075.075,0,0,1,.141-.038,3.728,3.728,0,0,1,.2,2.727,6.028,6.028,0,0,1-1.413,2.364l-.022.024c-.263.286-.562.609-.576.883a.075.075,0,0,1-.068.07Zm1.914-5.633a3.093,3.093,0,0,1-.219,1.4c-.042.09-.09.176-.138.26s-.1.177-.141.268a3.4,3.4,0,0,0-.191.644c-.009.041-.018.082-.028.122a3.353,3.353,0,0,1-.376,1.007,4.042,4.042,0,0,1-.288.391,2.9,2.9,0,0,0-.346.5,1.44,1.44,0,0,0-.15.62,3.626,3.626,0,0,1,.5-.631l.022-.024a5.882,5.882,0,0,0,1.38-2.3A3.7,3.7,0,0,0,626.554,373.774Z" transform="translate(-624.528 -373.299)" fill="#fff"/>
    </g>
    <g id="Groupe_8" data-name="Groupe 8" transform="translate(25.547 9.305)">
      <path id="Tracé_8" data-name="Tracé 8" d="M629.469,386.489a.074.074,0,0,1-.074-.066,2.045,2.045,0,0,1,.438-1.4c.142-.2.3-.4.46-.581s.305-.362.44-.554a4.022,4.022,0,0,0,.638-1.464l.011-.055a1.1,1.1,0,0,1,.2-.512c.027-.041.052-.079.074-.119a1.674,1.674,0,0,0,.11-.92,2.182,2.182,0,0,1,.067-.882.075.075,0,0,1,.14,0,4.279,4.279,0,0,1,.1,2.355,10.3,10.3,0,0,1-.819,2.211,2.95,2.95,0,0,1-.7,1.042,3.071,3.071,0,0,1-.366.252c-.09.056-.183.113-.268.176a.936.936,0,0,0-.376.453A.074.074,0,0,1,629.469,386.489Zm2.448-6.248a3.2,3.2,0,0,0,0,.565,1.806,1.806,0,0,1-.128,1c-.025.046-.053.088-.081.13a.968.968,0,0,0-.18.46l-.012.056a4.173,4.173,0,0,1-.662,1.519c-.139.2-.3.384-.448.564s-.314.372-.451.57a2.154,2.154,0,0,0-.416,1.016,1.671,1.671,0,0,1,.29-.272c.09-.067.186-.126.278-.183a2.906,2.906,0,0,0,.349-.24,2.834,2.834,0,0,0,.663-.991,10.175,10.175,0,0,0,.808-2.179A4.3,4.3,0,0,0,631.917,380.241Z" transform="translate(-629.385 -379.885)" fill="#fff"/>
    </g>
    <g id="Groupe_9" data-name="Groupe 9" transform="translate(25.784 11.649)">
      <path id="Tracé_9" data-name="Tracé 9" d="M631.9,409.748a.074.074,0,0,1-.074-.075,1.321,1.321,0,0,1,.271-.967,1.307,1.307,0,0,1,.193-.15c.042-.029.082-.056.12-.086a1.811,1.811,0,0,0,.414-.572,2.458,2.458,0,0,1,.344-.519,2.431,2.431,0,0,1,.206-.188,2.194,2.194,0,0,0,.2-.18,2.254,2.254,0,0,0,.426-.893l.607-1.982a.074.074,0,0,1,.144.008,4.621,4.621,0,0,1-.326,2.232,4.15,4.15,0,0,1-1.779,2.756,4.916,4.916,0,0,0-.689.59A.074.074,0,0,1,631.9,409.748Zm2.741-5.221-.5,1.635a2.366,2.366,0,0,1-.459.951,2.34,2.34,0,0,1-.211.193,2.282,2.282,0,0,0-.193.176,2.347,2.347,0,0,0-.322.488,1.948,1.948,0,0,1-.452.616c-.042.034-.086.064-.129.093a1.18,1.18,0,0,0-.172.133.988.988,0,0,0-.223.675,6.51,6.51,0,0,1,.576-.472,6.754,6.754,0,0,0,2.086-4.488Z" transform="translate(-631.824 -404.084)" fill="#fff"/>
    </g>
    <g id="Groupe_10" data-name="Groupe 10" transform="translate(22.663 13.16)">
      <path id="Tracé_10" data-name="Tracé 10" d="M601.537,421.3a1.488,1.488,0,0,1-.963-.357,2.86,2.86,0,0,1-.365-.406l-.582-.737a.075.075,0,0,1,.071-.12,1.3,1.3,0,0,1,.573.315,1.666,1.666,0,0,0,.381.251c.038.016.077.028.118.042a1.023,1.023,0,0,1,.225.094,1.039,1.039,0,0,1,.286.3.6.6,0,0,0,.531.344,1.11,1.11,0,0,1,.276.066.074.074,0,0,1-.017.142l-.032.005a3.534,3.534,0,0,1-.45.055Zm-1.627-1.383.416.527a2.744,2.744,0,0,0,.346.386,1.334,1.334,0,0,0,.912.32l.041,0a.652.652,0,0,1-.152-.056.959.959,0,0,1-.313-.319.918.918,0,0,0-.243-.264.9.9,0,0,0-.193-.079c-.042-.014-.086-.028-.129-.046a1.8,1.8,0,0,1-.416-.272A2.33,2.33,0,0,0,599.909,419.915Z" transform="translate(-599.611 -419.677)" fill="#fff"/>
    </g>
    <g id="Groupe_11" data-name="Groupe 11" transform="translate(25.581 14.25)">
      <path id="Tracé_11" data-name="Tracé 11" d="M629.8,435.615a.074.074,0,0,1-.074-.079,1.2,1.2,0,0,1,.512-.825c.072-.059.148-.116.221-.171a1.848,1.848,0,0,0,.762-.928,2.956,2.956,0,0,1,.7-1,3.263,3.263,0,0,0,.544-.7,3.3,3.3,0,0,0,.266-.917.074.074,0,0,1,.073-.061h0a.074.074,0,0,1,.072.063,4.024,4.024,0,0,1-2.406,4.336c-.077.032-.155.063-.232.093a2.783,2.783,0,0,0-.4.177A.075.075,0,0,1,629.8,435.615Zm2.972-4.114a2.317,2.317,0,0,1-.178.481,3.427,3.427,0,0,1-.567.733,2.813,2.813,0,0,0-.672.96,1.987,1.987,0,0,1-.808.985c-.072.054-.146.109-.216.167a1.222,1.222,0,0,0-.433.579c.085-.039.183-.077.284-.117.075-.029.153-.06.228-.091a3.874,3.874,0,0,0,2.362-3.7Z" transform="translate(-629.729 -430.935)" fill="#fff"/>
    </g>
    <g id="Groupe_12" data-name="Groupe 12" transform="translate(24.858 16.721)">
      <path id="Tracé_12" data-name="Tracé 12" d="M622.343,460.674a.075.075,0,0,1-.066-.11,3.042,3.042,0,0,1,.908-.948,3.308,3.308,0,0,0,.817-.8c.022-.036.043-.072.064-.109a.94.94,0,0,1,.56-.511l.069-.032a2.645,2.645,0,0,0,1.176-1.093l.055-.1a1.126,1.126,0,0,1,.435-.523.074.074,0,0,1,.106.085,3.727,3.727,0,0,1-.966,1.949,3.685,3.685,0,0,1-.481.334c-.079.049-.161.1-.239.152a3.562,3.562,0,0,0-.779.713c-.036.044-.072.09-.107.136a1.559,1.559,0,0,1-.737.626,1.527,1.527,0,0,1-.263.045,1.63,1.63,0,0,0-.208.032.99.99,0,0,0-.294.138A.072.072,0,0,1,622.343,460.674Zm3.921-3.963a1.762,1.762,0,0,0-.207.328l-.056.1a2.8,2.8,0,0,1-1.243,1.156l-.071.032a.8.8,0,0,0-.492.448c-.021.038-.043.076-.067.114a3.419,3.419,0,0,1-.852.842,3.8,3.8,0,0,0-.722.668.84.84,0,0,1,.1-.031,1.757,1.757,0,0,1,.227-.036,1.392,1.392,0,0,0,.237-.04,1.45,1.45,0,0,0,.661-.574c.036-.047.072-.093.109-.138a3.711,3.711,0,0,1,.811-.742c.08-.054.163-.105.243-.155a3.579,3.579,0,0,0,.462-.32A3.255,3.255,0,0,0,626.264,456.711Z" transform="translate(-622.268 -456.438)" fill="#fff"/>
    </g>
    <g id="Groupe_13" data-name="Groupe 13" transform="translate(23.962 19.244)">
      <path id="Tracé_13" data-name="Tracé 13" d="M613.094,486.044a.074.074,0,0,1-.044-.135l.1-.07a4.848,4.848,0,0,0,1.034-.9l.067-.088a1.16,1.16,0,0,1,.7-.512,2.3,2.3,0,0,0,.263-.107,2.246,2.246,0,0,0,.688-.652c.091-.114.185-.231.286-.338a2.734,2.734,0,0,1,1.22-.75.074.074,0,0,1,.066.131,1.86,1.86,0,0,0-.547.657c-.021.042-.042.087-.061.131a1.056,1.056,0,0,1-.633.658,2.294,2.294,0,0,0-.225.124,2.229,2.229,0,0,0-.556.611,3.551,3.551,0,0,1-.378.474,3.444,3.444,0,0,1-1.966.767Zm4-3.279a2.587,2.587,0,0,0-.8.576c-.1.1-.189.218-.278.329a2.389,2.389,0,0,1-.736.691,2.44,2.44,0,0,1-.279.115,1.021,1.021,0,0,0-.634.461l-.069.09a4.349,4.349,0,0,1-.9.812,2.871,2.871,0,0,0,1.566-.67,3.437,3.437,0,0,0,.362-.454,2.371,2.371,0,0,1,.6-.65,2.447,2.447,0,0,1,.239-.133.917.917,0,0,0,.565-.587c.02-.045.041-.091.063-.136A2,2,0,0,1,617.1,482.765Z" transform="translate(-613.02 -482.486)" fill="#fff"/>
    </g>
    <g id="Groupe_14" data-name="Groupe 14" transform="translate(23.4 20.941)">
      <path id="Tracé_14" data-name="Tracé 14" d="M607.31,504.439a.074.074,0,0,1-.073-.062,1.4,1.4,0,0,1,.288-1.1,2.667,2.667,0,0,1,.974-.662,3.8,3.8,0,0,0,.705-.4c.087-.069.171-.147.251-.224a3.561,3.561,0,0,1,.281-.247,3.6,3.6,0,0,1,.342-.223,1.437,1.437,0,0,0,.756-.8c.037-.077.075-.156.118-.232a.858.858,0,0,1,.612-.484.075.075,0,0,1,.066.121,3.685,3.685,0,0,0-.453.8A4.214,4.214,0,0,1,609,503.145l-1.125.715c-.229.146-.467.32-.489.513a.075.075,0,0,1-.072.066Zm4.059-4.2a.984.984,0,0,0-.287.33c-.041.072-.078.149-.114.223a1.578,1.578,0,0,1-.813.862,3.554,3.554,0,0,0-.328.214,3.451,3.451,0,0,0-.269.237c-.083.079-.169.16-.261.233a3.909,3.909,0,0,1-.733.421,2.519,2.519,0,0,0-.923.621,1.252,1.252,0,0,0-.27.7,1.857,1.857,0,0,1,.423-.34l1.125-.715a4.073,4.073,0,0,0,2.123-2.16A5.213,5.213,0,0,1,611.368,500.234Z" transform="translate(-607.218 -500.006)" fill="#fff"/>
    </g>
    <g id="Groupe_15" data-name="Groupe 15" transform="translate(23.263 15.484)">
      <path id="Tracé_15" data-name="Tracé 15" d="M607.446,449.077a.075.075,0,0,1-.059-.028,2.477,2.477,0,0,1-.8-2.036,3.752,3.752,0,0,0-.011-.492,3.8,3.8,0,0,0-.629-1.48l-.049-.082a.43.43,0,0,1-.079-.353.418.418,0,0,1,.079-.126.363.363,0,0,0,.05-.072.355.355,0,0,0,0-.2l-.082-.454A.075.075,0,0,1,606,443.7a6.51,6.51,0,0,1,.594,1.308c.03.105.055.213.08.318a3.625,3.625,0,0,0,.152.531c.045.111.1.221.158.328a2.305,2.305,0,0,1,.32,1.119c.057.573.115,1.165.213,1.681a.074.074,0,0,1-.042.082A.073.073,0,0,1,607.446,449.077Zm-1.352-4.886a.466.466,0,0,1-.013.279.483.483,0,0,1-.071.1.3.3,0,0,0-.054.081c-.024.067.022.152.067.227l.049.082a3.906,3.906,0,0,1,.65,1.54,3.859,3.859,0,0,1,.011.511,3.116,3.116,0,0,0,.022.576,2.642,2.642,0,0,0,.566,1.13c-.07-.446-.118-.929-.164-1.4a2.166,2.166,0,0,0-.3-1.065,2.824,2.824,0,0,1-.324-.894c-.024-.1-.049-.209-.078-.31A4.754,4.754,0,0,0,606.094,444.191Z" transform="translate(-605.801 -443.665)" fill="#fff"/>
    </g>
    <g id="Groupe_16" data-name="Groupe 16" transform="translate(22.691 17.219)">
      <path id="Tracé_16" data-name="Tracé 16" d="M601.156,467.173a.075.075,0,0,1-.044-.015,2.305,2.305,0,0,1-.9-2.1c.013-.107.034-.214.054-.317a1.515,1.515,0,0,0-.121-1.178c-.038-.088-.077-.179-.109-.271a2.343,2.343,0,0,1,.046-1.668.074.074,0,0,1,.143.026,1.909,1.909,0,0,0,.33.86,3.309,3.309,0,0,1,.288.586,3.2,3.2,0,0,1,.082,1.224c0,.08-.01.159-.013.239a7.1,7.1,0,0,0,.32,2.513.075.075,0,0,1-.071.1Zm-1.034-5.216a2.2,2.2,0,0,0,.049,1.288c.031.088.069.177.106.262a1.654,1.654,0,0,1,.131,1.265c-.02.1-.04.205-.052.307a2.159,2.159,0,0,0,.655,1.8,7.411,7.411,0,0,1-.252-2.324c0-.08.009-.16.014-.241a3.091,3.091,0,0,0-.074-1.168,3.2,3.2,0,0,0-.276-.56A2.968,2.968,0,0,1,600.122,461.957Z" transform="translate(-599.9 -461.581)" fill="#fff"/>
    </g>
    <g id="Groupe_17" data-name="Groupe 17" transform="translate(21.616 18.713)">
      <path id="Tracé_17" data-name="Tracé 17" d="M590.515,483.69h-.026a.075.075,0,0,1-.04-.017,6.421,6.421,0,0,1-1.086-1.061,2.21,2.21,0,0,1-.483-1.446,3.245,3.245,0,0,1,.119-.6c.033-.123.066-.249.089-.375a2.375,2.375,0,0,0-.136-1.3l-.032-.077a.88.88,0,0,1-.05-.771l.29-.981a.074.074,0,0,1,.069-.053.073.073,0,0,1,.072.049,7.973,7.973,0,0,1,.467,2.738c0,.089,0,.177,0,.267a2.606,2.606,0,0,0,.31,1.639,2.668,2.668,0,0,1,.264.682,2.738,2.738,0,0,1,.035.311,1.494,1.494,0,0,0,.082.465,1.816,1.816,0,0,0,.1.191c.071.126.122.217.075.289A.124.124,0,0,1,590.515,483.69Zm-1.28-6.363-.224.757a.74.74,0,0,0,.044.671l.033.079a2.526,2.526,0,0,1,.145,1.387c-.024.131-.058.261-.091.386a3.085,3.085,0,0,0-.114.568,2.062,2.062,0,0,0,.454,1.346,5.857,5.857,0,0,0,.975.963l-.035-.063a1.926,1.926,0,0,1-.105-.207,1.628,1.628,0,0,1-.093-.511,2.628,2.628,0,0,0-.032-.294,2.521,2.521,0,0,0-.251-.643,2.744,2.744,0,0,1-.326-1.708c0-.088,0-.176,0-.264A7.818,7.818,0,0,0,589.235,477.328Z" transform="translate(-588.803 -477.008)" fill="#fff"/>
    </g>
    <g id="Groupe_18" data-name="Groupe 18" transform="translate(24.24 15.475)">
      <path id="Tracé_18" data-name="Tracé 18" d="M617.166,446.972a.075.075,0,0,1-.07-.049,2.6,2.6,0,0,0-.226-.438,1.438,1.438,0,0,1-.307-.885c0-.056,0-.108-.01-.161a2.26,2.26,0,0,0-.18-.589l-.479-1.175a.074.074,0,0,1,.115-.087,2.093,2.093,0,0,1,1.043,1.831c.061.535.125,1.086.188,1.466a.075.075,0,0,1-.055.084Zm-1.027-3.092.372.913a2.369,2.369,0,0,1,.19.628c.006.058.009.115.011.171a1.3,1.3,0,0,0,.286.815l.028.047c-.041-.312-.082-.667-.122-1.015a2.643,2.643,0,0,0-.234-.964A2.072,2.072,0,0,0,616.138,443.88Z" transform="translate(-615.888 -443.572)" fill="#fff"/>
    </g>
    <g id="Groupe_19" data-name="Groupe 19" transform="translate(23.462 15.139)">
      <path id="Tracé_19" data-name="Tracé 19" d="M609.439,441.348a.074.074,0,0,1-.072-.057,2.711,2.711,0,0,0-.177-.56.862.862,0,0,0-.369-.4,1,1,0,0,0-.605-.051c.176.059.354.111.534.153a.074.074,0,0,1-.035.145,6.274,6.274,0,0,1-.8-.25.075.075,0,0,1,.011-.142,1.444,1.444,0,0,1,.965.011,1.007,1.007,0,0,1,.437.471,2.822,2.822,0,0,1,.188.591.075.075,0,0,1-.055.09Z" transform="translate(-607.863 -440.106)" fill="#fff"/>
    </g>
    <g id="Groupe_20" data-name="Groupe 20" transform="translate(21.743 12.769)">
      <path id="Tracé_20" data-name="Tracé 20" d="M592.426,416.919a.074.074,0,0,1-.054-.023,4.039,4.039,0,0,0-1.283-1.024.816.816,0,0,0-.414-.079,1.174,1.174,0,0,0-.159.035l-.042.011a4.281,4.281,0,0,0,.7.23.074.074,0,1,1-.034.145,4.419,4.419,0,0,1-.99-.363.074.074,0,0,1,.053-.138.548.548,0,0,0,.276-.029,1.306,1.306,0,0,1,.18-.039.959.959,0,0,1,.489.09,4.148,4.148,0,0,1,1.333,1.059.074.074,0,0,1-.054.126Z" transform="translate(-590.109 -415.64)" fill="#fff"/>
    </g>
    <g id="Groupe_21" data-name="Groupe 21" transform="translate(1.674 2.154)">
      <path id="Tracé_21" data-name="Tracé 21" d="M385.965,330.933a.074.074,0,0,1-.061-.031,14.732,14.732,0,0,1-2.926-9.7,10.163,10.163,0,0,1,1-3.725,17.682,17.682,0,0,1,2.2-3.14,13.992,13.992,0,0,0,2.506-3.887c.077-.211.146-.432.213-.646a4.525,4.525,0,0,1,.975-1.951,4.959,4.959,0,0,1,.8-.6,2.349,2.349,0,0,0,1.118-1.137.075.075,0,0,1,.142.045,2.492,2.492,0,0,1-1.179,1.216,4.844,4.844,0,0,0-.776.58,4.419,4.419,0,0,0-.938,1.889c-.068.216-.137.439-.215.653a14.1,14.1,0,0,1-2.531,3.93,17.575,17.575,0,0,0-2.179,3.113,10.016,10.016,0,0,0-.988,3.67,14.584,14.584,0,0,0,2.9,9.6.074.074,0,0,1-.06.118Z" transform="translate(-382.936 -306.065)" fill="#fff"/>
    </g>
    <g id="Groupe_22" data-name="Groupe 22" transform="translate(9.207 0.231)">
      <path id="Tracé_22" data-name="Tracé 22" d="M460.78,289.562a.074.074,0,0,1-.049-.13,1.089,1.089,0,0,0,.219-.373c.031-.07.063-.143.1-.213a3.42,3.42,0,0,1,.443-.613,5.311,5.311,0,0,1,2.593-2.019.074.074,0,0,1,.047.141c-.18.074-.257.273-.338.484a2.174,2.174,0,0,1-.139.31,1.852,1.852,0,0,1-.439.465l-.115.1a7.122,7.122,0,0,0-.619.641c-.128.144-.26.293-.4.433a2.478,2.478,0,0,1-1.291.776Zm3.023-3.1a5.869,5.869,0,0,0-2.2,1.87,3.305,3.305,0,0,0-.424.585c-.034.066-.065.136-.095.2a2.6,2.6,0,0,1-.117.244,2.581,2.581,0,0,0,1.008-.683c.135-.137.266-.284.393-.427A7.25,7.25,0,0,1,463,287.6l.117-.1a1.716,1.716,0,0,0,.406-.426,2.047,2.047,0,0,0,.128-.289A1.941,1.941,0,0,1,463.8,286.459Z" transform="translate(-460.705 -286.212)" fill="#fff"/>
    </g>
    <g id="Groupe_23" data-name="Groupe 23" transform="translate(8.243 0.721)">
      <path id="Tracé_23" data-name="Tracé 23" d="M450.967,294.846h0a.074.074,0,0,1-.069-.056,2.351,2.351,0,0,1-.083-1.286,2.312,2.312,0,0,1,.284-.542,3.4,3.4,0,0,0,.2-.335c.037-.075.069-.156.1-.234a1.63,1.63,0,0,1,.277-.506,1.663,1.663,0,0,1,.347-.271,1.18,1.18,0,0,0,.37-.315.074.074,0,0,1,.137.043,1.84,1.84,0,0,1-.407.992c-.062.085-.128.17-.192.251a2.908,2.908,0,0,0-.709,1.542,5.669,5.669,0,0,1-.181.668A.074.074,0,0,1,450.967,294.846Zm1.378-3.278a2.366,2.366,0,0,1-.245.174,1.528,1.528,0,0,0-.317.245,1.5,1.5,0,0,0-.249.462c-.032.081-.066.164-.1.244a3.48,3.48,0,0,1-.207.35,2.173,2.173,0,0,0-.267.506,1.823,1.823,0,0,0,.021.947c.035-.129.066-.263.1-.4a3.047,3.047,0,0,1,.736-1.6c.063-.081.128-.164.189-.247A1.975,1.975,0,0,0,452.345,291.568Z" transform="translate(-450.751 -291.268)" fill="#fff"/>
    </g>
    <g id="Groupe_24" data-name="Groupe 24" transform="translate(8.345 1.487)">
      <path id="Tracé_24" data-name="Tracé 24" d="M452.317,302.137a2,2,0,0,1-.456-.052.075.075,0,0,1-.01-.142l.154-.059a7.645,7.645,0,0,0,2.623-1.418c.06-.057.12-.117.177-.176.095-.1.192-.195.3-.285a4.9,4.9,0,0,1,1.239-.7c.1-.043.193-.085.288-.129a.074.074,0,0,1,.077.127,2.625,2.625,0,0,0-.592.775,2.138,2.138,0,0,1-.809.92,2.161,2.161,0,0,1-.607.168,1.637,1.637,0,0,0-.976.432c-.085.066-.172.135-.265.2A2.086,2.086,0,0,1,452.317,302.137Zm-.152-.155a1.938,1.938,0,0,0,1.209-.306c.087-.058.172-.124.255-.189a1.777,1.777,0,0,1,1.043-.462,1.492,1.492,0,0,0,1.313-1.017,4.588,4.588,0,0,1,.345-.53,4.527,4.527,0,0,0-1.13.642c-.1.086-.2.182-.289.276-.059.059-.119.12-.181.179A7.471,7.471,0,0,1,452.165,301.982Z" transform="translate(-451.803 -299.174)" fill="#fff"/>
    </g>
    <g id="Groupe_25" data-name="Groupe 25" transform="translate(7.211 1.568)">
      <path id="Tracé_25" data-name="Tracé 25" d="M440.693,304.172a.074.074,0,0,1-.056-.026,1.831,1.831,0,0,1-.539-.986,1.789,1.789,0,0,1,.056-.51,1.76,1.76,0,0,0,.055-.444,1.784,1.784,0,0,0-.038-.255.947.947,0,0,1,.166-.88,1.684,1.684,0,0,0,.145-.27,1.639,1.639,0,0,0,.062-.215,2.057,2.057,0,0,1,.056-.2.55.55,0,0,1,.323-.365.074.074,0,0,1,.1.091,6.117,6.117,0,0,0-.324,1.982c0,.083.014.169.022.252a2.793,2.793,0,0,1,.017.594c-.006.058-.017.115-.026.17a1.607,1.607,0,0,0-.031.253,1.773,1.773,0,0,0,.056.4.822.822,0,0,1,.033.361.074.074,0,0,1-.056.052Zm.122-3.888a.616.616,0,0,0-.075.149,1.915,1.915,0,0,0-.052.188,1.787,1.787,0,0,1-.068.234,1.833,1.833,0,0,1-.157.294.807.807,0,0,0-.147.773,1.933,1.933,0,0,1,.04.277,1.9,1.9,0,0,1-.058.482,1.652,1.652,0,0,0-.053.467,1.355,1.355,0,0,0,.36.731c-.006-.029-.013-.06-.019-.091a1.886,1.886,0,0,1-.06-.43,1.742,1.742,0,0,1,.034-.277c.01-.055.019-.108.025-.161a2.635,2.635,0,0,0-.017-.562c-.009-.084-.017-.171-.022-.258A5.622,5.622,0,0,1,440.815,300.284Z" transform="translate(-440.094 -300.016)" fill="#fff"/>
    </g>
    <g id="Groupe_26" data-name="Groupe 26" transform="translate(7.795 4.038)">
      <path id="Tracé_26" data-name="Tracé 26" d="M446.914,327.308a2.446,2.446,0,0,1-.739-.154.074.074,0,0,1-.007-.139c.1-.045.206-.092.308-.138.233-.106.473-.215.717-.306l.116-.042a1.812,1.812,0,0,0,.754-.424c.067-.057.137-.117.211-.17a3.479,3.479,0,0,1,2.089-.425.075.075,0,0,1,.044.134,3.114,3.114,0,0,1-1.237.673c-.1.02-.2.03-.3.04a1.754,1.754,0,0,0-.457.085,1.791,1.791,0,0,0-.546.389,1.75,1.75,0,0,1-.652.436A1.041,1.041,0,0,1,446.914,327.308Zm-.5-.238a1.338,1.338,0,0,0,.762.053,1.615,1.615,0,0,0,.594-.4,1.929,1.929,0,0,1,.594-.419,1.9,1.9,0,0,1,.5-.094c.1-.009.194-.019.287-.037a2.575,2.575,0,0,0,1-.513h-.031a2.9,2.9,0,0,0-1.75.4c-.069.05-.137.107-.2.163a1.956,1.956,0,0,1-.8.45l-.114.042c-.239.089-.477.2-.707.3Z" transform="translate(-446.124 -325.507)" fill="#fff"/>
    </g>
    <g id="Groupe_27" data-name="Groupe 27" transform="translate(6.26 2.379)">
      <path id="Tracé_27" data-name="Tracé 27" d="M431.278,313.195a.074.074,0,0,1-.039-.011,1.763,1.763,0,0,1-.825-1.483,3.457,3.457,0,0,1,.03-.377,1.961,1.961,0,0,0,.012-.572,1.99,1.99,0,0,0-.076-.271,1.834,1.834,0,0,1-.088-.337,1.632,1.632,0,0,1,.068-.624,6.312,6.312,0,0,1,.4-1.094.075.075,0,0,1,.142.031,16.153,16.153,0,0,1-.054,1.641l0,.032a2.128,2.128,0,0,0,0,.48,2.087,2.087,0,0,0,.1.377c.018.051.035.1.051.153a5.6,5.6,0,0,1,.177.892c.055.386.112.785.18,1.073a.074.074,0,0,1-.073.092Zm-.525-4.389a6.151,6.151,0,0,0-.25.751,1.5,1.5,0,0,0-.065.567,1.711,1.711,0,0,0,.082.309,2.126,2.126,0,0,1,.081.291,2.1,2.1,0,0,1-.01.616,3.3,3.3,0,0,0-.029.361,1.616,1.616,0,0,0,.6,1.249c-.052-.267-.1-.588-.142-.9a5.5,5.5,0,0,0-.172-.869c-.016-.05-.033-.1-.05-.149a1.693,1.693,0,0,1-.108-.918l0-.031C430.733,309.661,430.752,309.232,430.753,308.806Z" transform="translate(-430.282 -308.382)" fill="#fff"/>
    </g>
    <g id="Groupe_28" data-name="Groupe 28" transform="translate(7.153 5.686)">
      <path id="Tracé_28" data-name="Tracé 28" d="M440.033,344.156a1.412,1.412,0,0,1-.485-.084.074.074,0,0,1,.016-.144,1.637,1.637,0,0,0,.8-.378c.09-.075.176-.16.259-.242a2.551,2.551,0,0,1,.459-.389,2.61,2.61,0,0,1,.266-.135,1.394,1.394,0,0,0,.393-.234.074.074,0,0,1,.041-.02.753.753,0,0,1,.692.278.075.075,0,0,1-.076.118,1.007,1.007,0,0,0-.844.314c-.085.078-.168.164-.248.247a2.782,2.782,0,0,1-.5.447A1.452,1.452,0,0,1,440.033,344.156ZM439.89,344a1.309,1.309,0,0,0,.838-.19,2.628,2.628,0,0,0,.474-.424c.081-.085.166-.173.255-.255a1.323,1.323,0,0,1,.748-.368.612.612,0,0,0-.375-.088,1.6,1.6,0,0,1-.415.244,2.457,2.457,0,0,0-.251.127,2.4,2.4,0,0,0-.432.367c-.085.085-.174.172-.268.251A1.967,1.967,0,0,1,439.89,344Z" transform="translate(-439.499 -342.523)" fill="#fff"/>
    </g>
    <g id="Groupe_29" data-name="Groupe 29" transform="translate(5.155 5.305)">
      <path id="Tracé_29" data-name="Tracé 29" d="M420.123,341.9l-.018,0c-.187-.047-.3-.255-.394-.446a5.047,5.047,0,0,1-.521-1.529l-.006-.046c-.031-.251-.066-.537-.269-.633a.075.075,0,0,1,.029-.142.853.853,0,0,0,.718-.468.075.075,0,0,1,.139.014,2.8,2.8,0,0,1,.031.878,2.271,2.271,0,0,0,.059.928,2.3,2.3,0,0,0,.108.243,1.788,1.788,0,0,1,.2,1.131.074.074,0,0,1-.074.072Zm-.991-2.675a1.2,1.2,0,0,1,.2.633l.006.045a4.92,4.92,0,0,0,.508,1.483,1.02,1.02,0,0,0,.207.318,1.935,1.935,0,0,0-.074-.692,2.214,2.214,0,0,0-.111-.25,1.83,1.83,0,0,1-.182-1.247,3.533,3.533,0,0,0,.006-.648A1.024,1.024,0,0,1,419.133,339.228Z" transform="translate(-418.874 -338.594)" fill="#fff"/>
    </g>
    <g id="Groupe_30" data-name="Groupe 30" transform="translate(3.043 5.115)">
      <path id="Tracé_30" data-name="Tracé 30" d="M397.284,338.642l-.146,0a.074.074,0,0,1-.047-.131l.474-.406a1.05,1.05,0,0,0,.3-.36,1.553,1.553,0,0,1,.129-.2,1.575,1.575,0,0,1,.412-.328l.742-.462a.7.7,0,0,1,.276-.119.685.685,0,0,1,.427.13,1.1,1.1,0,0,0,.214.1.074.074,0,0,1,.048.1.852.852,0,0,1-.48.4c-.087.035-.177.063-.264.09a2.619,2.619,0,0,0-.313.112,1.3,1.3,0,0,0-.407.294c-.061.065-.117.14-.171.211a1.628,1.628,0,0,1-.342.366A1.465,1.465,0,0,1,397.284,338.642Zm2.2-1.861-.034,0a.577.577,0,0,0-.217.1l-.742.462a1.056,1.056,0,0,0-.491.474,1.188,1.188,0,0,1-.335.4l-.322.276a1.228,1.228,0,0,0,.712-.175,1.493,1.493,0,0,0,.309-.334,2.871,2.871,0,0,1,.181-.223,1.446,1.446,0,0,1,.454-.328,2.8,2.8,0,0,1,.33-.119c.084-.026.171-.053.253-.086a.815.815,0,0,0,.36-.25c-.055-.024-.108-.054-.159-.083A.654.654,0,0,0,399.48,336.782Z" transform="translate(-397.065 -336.633)" fill="#fff"/>
    </g>
    <g id="Groupe_31" data-name="Groupe 31" transform="translate(6.065 7.358)">
      <path id="Tracé_31" data-name="Tracé 31" d="M428.373,361.549a.148.148,0,0,1-.058-.012.074.074,0,0,1,.023-.143l.058,0a.955.955,0,0,0,.135-.133l.058-.064a1.65,1.65,0,0,1,.391-.28,2.465,2.465,0,0,0,.242-.152,2.423,2.423,0,0,0,.3-.28,2.688,2.688,0,0,1,.3-.286,2.724,2.724,0,0,1,1.413-.412.074.074,0,0,1,.063.024,1.771,1.771,0,0,1,.42.855.074.074,0,0,1-.137.052.469.469,0,0,0-.241-.158,1.543,1.543,0,0,0-1.145-.129,1.577,1.577,0,0,0-.532.462,2.006,2.006,0,0,1-.5.46,1.745,1.745,0,0,1-.731.187A.165.165,0,0,1,428.373,361.549Zm2.841-1.615a1.884,1.884,0,0,0-1.586.65,2.584,2.584,0,0,1-.318.3,2.611,2.611,0,0,1-.256.161,1.511,1.511,0,0,0-.357.253l-.055.06-.007.008a1.274,1.274,0,0,0,.458-.144,1.872,1.872,0,0,0,.459-.428,1.709,1.709,0,0,1,.586-.5,1.664,1.664,0,0,1,1.259.127c.04.016.081.033.12.053A1.619,1.619,0,0,0,431.214,359.934Z" transform="translate(-428.269 -359.782)" fill="#fff"/>
    </g>
    <g id="Groupe_32" data-name="Groupe 32" transform="translate(8.99 7.318)">
      <path id="Tracé_32" data-name="Tracé 32" d="M458.753,362.44a.076.076,0,0,1-.024,0,.075.075,0,0,1-.05-.064,3.145,3.145,0,0,1,.074-.986l.019-.079a2.336,2.336,0,0,0-.305-1.829.074.074,0,0,1,.071-.106,1.044,1.044,0,0,1,.754.249,1,1,0,0,1,.2.65,1.457,1.457,0,0,1-.029.444,1.546,1.546,0,0,1-.166.363,1.979,1.979,0,0,0-.123.241,2.127,2.127,0,0,0-.1.413,1.282,1.282,0,0,1-.263.685A.074.074,0,0,1,458.753,362.44Zm-.1-2.911a2.392,2.392,0,0,1,.263,1.814l-.019.078a3,3,0,0,0-.081.708,1.92,1.92,0,0,0,.107-.423,2.237,2.237,0,0,1,.11-.443,2.129,2.129,0,0,1,.132-.259,1.419,1.419,0,0,0,.152-.328,1.315,1.315,0,0,0,.024-.4.878.878,0,0,0-.16-.556A.781.781,0,0,0,458.654,359.529Z" transform="translate(-458.46 -359.372)" fill="#fff"/>
    </g>
    <g id="Groupe_33" data-name="Groupe 33" transform="translate(3.629 8.41)">
      <path id="Tracé_33" data-name="Tracé 33" d="M403.188,374.311a.074.074,0,0,1-.048-.131.389.389,0,0,1,.061-.042,5.463,5.463,0,0,0,1.6-1.434c.037-.056.073-.116.107-.174a1.3,1.3,0,0,1,1.1-.8,1.885,1.885,0,0,0,.514-.157,2.086,2.086,0,0,0,.488-.419,1.285,1.285,0,0,1,.836-.519.075.075,0,0,1,.065.115,4.066,4.066,0,0,1-1.588,1.674,5.174,5.174,0,0,0-.544.378,5.35,5.35,0,0,0-.428.415,3.073,3.073,0,0,1-.811.672,3.312,3.312,0,0,1-.809.244,1.987,1.987,0,0,0-.458.128l-.049.033A.074.074,0,0,1,403.188,374.311Zm4.512-3.5a1.51,1.51,0,0,0-.576.446,2.2,2.2,0,0,1-.526.447,2.023,2.023,0,0,1-.555.172,1.164,1.164,0,0,0-1.006.726c-.035.059-.072.12-.11.179A4.666,4.666,0,0,1,403.665,374l.041-.009a3.2,3.2,0,0,0,.773-.231,2.919,2.919,0,0,0,.77-.642,5.413,5.413,0,0,1,.441-.427,5.3,5.3,0,0,1,.56-.389,5.3,5.3,0,0,0,.535-.37A4.76,4.76,0,0,0,407.7,370.815Z" transform="translate(-403.114 -370.639)" fill="#fff"/>
    </g>
    <g id="Groupe_34" data-name="Groupe 34" transform="translate(3.645 6.606)">
      <path id="Tracé_34" data-name="Tracé 34" d="M403.355,357.459h-.013a.075.075,0,0,1-.061-.073,2.281,2.281,0,0,1,.5-1.8,2.3,2.3,0,0,0,.334-.558,2.332,2.332,0,0,0,.061-.976,2.433,2.433,0,0,1,.076-1.052c.029-.077.066-.154.1-.229a1.1,1.1,0,0,0,.152-.495l-.046-.156a.074.074,0,0,1,.137-.056.485.485,0,0,1,.055.184,5.112,5.112,0,0,1,.244,1.3,4.7,4.7,0,0,1-.579,2.121c-.125.252-.258.5-.387.734a9.053,9.053,0,0,0-.5,1.014A.075.075,0,0,1,403.355,357.459Zm1.237-4.867c-.031.082-.069.163-.106.241s-.07.148-.1.219a2.289,2.289,0,0,0-.066.988,2.478,2.478,0,0,1-.07,1.038,2.449,2.449,0,0,1-.354.6,2.933,2.933,0,0,0-.29.453,2.242,2.242,0,0,0-.178.9c.1-.217.232-.452.365-.7s.261-.48.385-.729a4.348,4.348,0,0,0,.563-2.051A4.165,4.165,0,0,0,404.592,352.592Z" transform="translate(-403.28 -352.023)" fill="#fff"/>
    </g>
    <g id="Groupe_35" data-name="Groupe 35" transform="translate(2.697 9.353)">
      <path id="Tracé_35" data-name="Tracé 35" d="M393.574,385.092a.075.075,0,0,1-.066-.109,1.872,1.872,0,0,1,.749-.9,1.831,1.831,0,0,1,.44-.127l.087-.018a3.343,3.343,0,0,0,1.528-.733,5.588,5.588,0,0,0,.534-.57c.106-.124.216-.253.331-.374a9.142,9.142,0,0,1,.935-.818,7.091,7.091,0,0,0,1.125-1.039.075.075,0,0,1,.124.081,8.808,8.808,0,0,1-4.689,4.156c-.09.034-.182.066-.272.1a3.764,3.764,0,0,0-.783.339A.075.075,0,0,1,393.574,385.092Zm5.351-4.14c-.231.216-.479.414-.721.608a9.061,9.061,0,0,0-.92.8c-.112.118-.221.245-.325.368a5.692,5.692,0,0,1-.549.585,3.492,3.492,0,0,1-1.6.767l-.088.018a1.7,1.7,0,0,0-.4.116,1.365,1.365,0,0,0-.563.612c.173-.082.378-.154.59-.23.09-.032.181-.064.27-.1A8.671,8.671,0,0,0,398.925,380.953Z" transform="translate(-393.499 -380.377)" fill="#fff"/>
    </g>
    <g id="Groupe_36" data-name="Groupe 36" transform="translate(2.202 7.466)">
      <path id="Tracé_36" data-name="Tracé 36" d="M388.832,367.436a.074.074,0,0,1-.063-.034,2.417,2.417,0,0,1-.252-2.066,4.924,4.924,0,0,1,.2-.474,2.278,2.278,0,0,0,.277-.9,2.378,2.378,0,0,0-.171-.782,2.06,2.06,0,0,1-.163-.972,2.261,2.261,0,0,1,.156-.491,1.1,1.1,0,0,0,.125-.725.074.074,0,0,1,.138-.054,4.826,4.826,0,0,1,.3,3.272c-.025.093-.053.186-.08.276a2.7,2.7,0,0,0-.169,1.087c0,.095,0,.192,0,.289a5.4,5.4,0,0,1-.076.632l0,.017c-.05.311-.1.633-.141.862a.075.075,0,0,1-.059.061Zm.261-6.078a2.5,2.5,0,0,1-.14.416,2.153,2.153,0,0,0-.147.458,1.922,1.922,0,0,0,.157.9,2.49,2.49,0,0,1,.179.832,2.424,2.424,0,0,1-.291.959,4.8,4.8,0,0,0-.194.46,2.306,2.306,0,0,0,.135,1.76c.033-.2.07-.429.106-.656l0-.017a5.286,5.286,0,0,0,.074-.614c0-.093,0-.188,0-.281a2.842,2.842,0,0,1,.175-1.132c.027-.089.055-.181.079-.272A4.685,4.685,0,0,0,389.092,361.358Z" transform="translate(-388.391 -360.897)" fill="#fff"/>
    </g>
    <g id="Groupe_37" data-name="Groupe 37" transform="translate(0.851 9.432)">
      <path id="Tracé_37" data-name="Tracé 37" d="M375.737,387.009a.074.074,0,0,1-.064-.036,5.632,5.632,0,0,1-.9-2.073c-.024-.168-.032-.339-.041-.5a3.45,3.45,0,0,0-.092-.751c-.02-.073-.046-.148-.072-.22a2.05,2.05,0,0,1-.114-.421,2.073,2.073,0,0,1,.255-1.063l.311-.7a.075.075,0,0,1,.068-.044h0a.075.075,0,0,1,.068.044,3.472,3.472,0,0,1,.164,1.653c0,.078-.009.156-.013.233a10.422,10.422,0,0,0,.5,3.786.074.074,0,0,1-.071.1Zm-.658-5.545-.238.536a1.959,1.959,0,0,0-.243.984,1.9,1.9,0,0,0,.106.39c.026.074.053.151.075.23a3.6,3.6,0,0,1,.1.784c.008.162.017.33.039.492a4.316,4.316,0,0,0,.578,1.5,10.663,10.663,0,0,1-.34-3.264c0-.078.009-.156.013-.234A3.836,3.836,0,0,0,375.079,381.464Z" transform="translate(-374.442 -381.196)" fill="#fff"/>
    </g>
    <g id="Groupe_38" data-name="Groupe 38" transform="translate(2.19 13.258)">
      <path id="Tracé_38" data-name="Tracé 38" d="M388.339,422.7a.074.074,0,0,1-.045-.134,1.271,1.271,0,0,0,.3-.354.972.972,0,0,1,.238-.285.927.927,0,0,1,.342-.129l.064-.015a4.125,4.125,0,0,0,1.131-.541,5.818,5.818,0,0,1,.865-.46.983.983,0,0,1,.518-.084.075.075,0,0,1,0,.146,2.006,2.006,0,0,0-.99.7c-.1.105-.2.214-.309.313a3.167,3.167,0,0,1-2.114.837Zm2.8-1.714a6.957,6.957,0,0,0-.691.384,4.3,4.3,0,0,1-1.173.558l-.066.016a.8.8,0,0,0-.289.105.855.855,0,0,0-.2.244,1.91,1.91,0,0,1-.181.25,3.021,3.021,0,0,0,1.816-.79c.1-.1.2-.2.3-.306A4.543,4.543,0,0,1,391.136,420.988Z" transform="translate(-388.265 -420.691)" fill="#fff"/>
    </g>
    <g id="Groupe_39" data-name="Groupe 39" transform="translate(4.274 13.283)">
      <path id="Tracé_39" data-name="Tracé 39" d="M412.052,422.355a.075.075,0,0,1-.069-.046,1.048,1.048,0,0,0-.537-.552.523.523,0,0,0-.29-.053.755.755,0,0,0-.217.086l-.032.017a2.9,2.9,0,0,1-1.054.3.074.074,0,0,1-.06-.126l.159-.167A2.952,2.952,0,0,1,410.96,421a.687.687,0,0,1,.271-.054.674.674,0,0,1,.451.249,2.186,2.186,0,0,1,.443,1.069.074.074,0,0,1-.073.088Zm-.842-1.259a.548.548,0,0,0-.2.044,2.807,2.807,0,0,0-.955.775l-.016.017a2.75,2.75,0,0,0,.8-.259l.031-.016a.874.874,0,0,1,.262-.1.668.668,0,0,1,.374.064,1.187,1.187,0,0,1,.375.265,1.573,1.573,0,0,0-.311-.59.533.533,0,0,0-.346-.2Z" transform="translate(-409.771 -420.948)" fill="#fff"/>
    </g>
    <g id="Groupe_40" data-name="Groupe 40" transform="translate(0.029 12.814)">
      <path id="Tracé_40" data-name="Tracé 40" d="M367.715,420.577a.075.075,0,0,1-.061-.032c-.368-.533-.722-1.087-1.052-1.645a1.443,1.443,0,0,1-.223-.538,1.494,1.494,0,0,1,0-.3,1.839,1.839,0,0,0,.007-.209,2.009,2.009,0,0,0-.212-.7,1.441,1.441,0,0,1-.183-.988.075.075,0,0,1,.112-.042,1.624,1.624,0,0,1,.6.865c.054.155.1.315.137.469.045.17.092.347.153.513.053.142.118.283.182.42.044.094.089.191.13.289a8.17,8.17,0,0,1,.435,1.6c.014.072.028.143.042.211a.074.074,0,0,1-.044.083A.073.073,0,0,1,367.715,420.577Zm-1.6-4.263a1.541,1.541,0,0,0,.2.778,2.117,2.117,0,0,1,.225.749,1.971,1.971,0,0,1-.008.226,1.357,1.357,0,0,0,0,.275,1.326,1.326,0,0,0,.2.482c.266.45.548.9.84,1.333a7.4,7.4,0,0,0-.4-1.42c-.04-.1-.085-.191-.128-.284-.065-.139-.132-.283-.187-.431-.064-.173-.112-.353-.158-.527-.04-.152-.082-.309-.134-.458A1.593,1.593,0,0,0,366.112,416.314Z" transform="translate(-365.957 -416.111)" fill="#fff"/>
    </g>
    <g id="Groupe_41" data-name="Groupe 41" transform="translate(1.889 15.462)">
      <path id="Tracé_41" data-name="Tracé 41" d="M385.228,445.223a.075.075,0,0,1-.068-.106c.026-.056.052-.125.083-.206a2.291,2.291,0,0,1,.391-.733,2.429,2.429,0,0,1,.706-.493l.436-.232a.075.075,0,0,1,.092.113,2.456,2.456,0,0,0-.291.5,1.579,1.579,0,0,1-.982.979,3.567,3.567,0,0,0-.328.167A.074.074,0,0,1,385.228,445.223Zm1.356-1.5-.175.093a2.28,2.28,0,0,0-.664.46,2.172,2.172,0,0,0-.363.687l-.008.021.157-.075a1.44,1.44,0,0,0,.911-.908C386.487,443.91,386.533,443.816,386.584,443.725Z" transform="translate(-385.153 -443.446)" fill="#fff"/>
    </g>
    <g id="Groupe_42" data-name="Groupe 42" transform="translate(2.852 14.829)">
      <path id="Tracé_42" data-name="Tracé 42" d="M395.171,438.784a.074.074,0,0,1-.065-.111c.709-1.253.968-1.434,1.255-1.553a3.783,3.783,0,0,1,.884-.21.074.074,0,0,1,.03.146,1.5,1.5,0,0,0-.723.607c-.067.084-.137.172-.209.252a4.895,4.895,0,0,1-1.134.858A.074.074,0,0,1,395.171,438.784Zm1.659-1.65a2.4,2.4,0,0,0-.412.124c-.232.1-.461.254-1.035,1.233a3.923,3.923,0,0,0,.85-.675c.069-.077.137-.163.2-.246A3.093,3.093,0,0,1,396.829,437.134Z" transform="translate(-395.096 -436.909)" fill="#fff"/>
    </g>
    <g id="Groupe_43" data-name="Groupe 43" transform="translate(1.755 14.992)">
      <path id="Tracé_43" data-name="Tracé 43" d="M383.846,443.308h-.012a.075.075,0,0,1-.062-.076,1.5,1.5,0,0,1,.76-1.6c.063-.042.129-.085.19-.13a4.108,4.108,0,0,0,.817-.9,5.5,5.5,0,0,1,.643-.765c.117-.109.246-.211.371-.31a1.981,1.981,0,0,0,.763-.882.074.074,0,0,1,.145.022,2.312,2.312,0,0,1-.411,1.175,7.292,7.292,0,0,1-1.691,1.9c-.092.073-.188.146-.281.217a2.91,2.91,0,0,0-1.16,1.294A.074.074,0,0,1,383.846,443.308Zm3.4-4.227a3.387,3.387,0,0,1-.6.561c-.123.1-.25.2-.362.3a5.4,5.4,0,0,0-.625.745,4.283,4.283,0,0,1-.848.934c-.064.047-.131.092-.2.134a1.814,1.814,0,0,0-.389.309,1.364,1.364,0,0,0-.28.775,4.13,4.13,0,0,1,1.043-1c.093-.07.188-.143.279-.215a7.145,7.145,0,0,0,1.656-1.865A2.928,2.928,0,0,0,387.248,439.081Z" transform="translate(-383.772 -438.592)" fill="#fff"/>
    </g>
    <g id="Groupe_44" data-name="Groupe 44" transform="translate(0.541 16.872)">
      <path id="Tracé_44" data-name="Tracé 44" d="M372.438,460.778a.075.075,0,0,1-.072-.057,1.622,1.622,0,0,0-.465-.569c-.04-.034-.081-.067-.122-.1a1.517,1.517,0,0,1-.4-.411,1.5,1.5,0,0,1-.109-.881,1.873,1.873,0,0,0-.029-.671.075.075,0,0,1,.123-.075,2.55,2.55,0,0,1,.512.84l.219.5a4.162,4.162,0,0,1,.416,1.346.075.075,0,0,1-.063.079Zm-1.006-2.454a3.265,3.265,0,0,1-.013.449,1.366,1.366,0,0,0,.09.8,1.386,1.386,0,0,0,.362.369c.042.034.084.068.125.1a2.614,2.614,0,0,1,.311.313,5.49,5.49,0,0,0-.348-.94l-.219-.5A3.454,3.454,0,0,0,371.432,458.324Z" transform="translate(-371.239 -457.994)" fill="#fff"/>
    </g>
    <g id="Groupe_45" data-name="Groupe 45" transform="translate(2.226 17.398)">
      <path id="Tracé_45" data-name="Tracé 45" d="M388.838,468.1a.075.075,0,0,1-.073-.058,2.591,2.591,0,0,1-.05-1.394,2.546,2.546,0,0,1,.315-.577l1.21-1.816a.932.932,0,0,1,.648-.487l1.107-.34a.074.074,0,0,1,.088.105l-.69,1.34a.075.075,0,0,1-.118.019c-.1-.094-.288,0-.394.066a4.407,4.407,0,0,0-1.465,1.221,3.989,3.989,0,0,0-.505,1.853.075.075,0,0,1-.069.068Zm3.032-4.477-.938.288a.791.791,0,0,0-.568.427l-1.21,1.816a2.442,2.442,0,0,0-.3.542,1.783,1.783,0,0,0-.04.84,3.437,3.437,0,0,1,.476-1.438,4.519,4.519,0,0,1,1.512-1.266c.239-.146.4-.147.5-.1Z" transform="translate(-388.636 -463.425)" fill="#fff"/>
    </g>
    <g id="Groupe_46" data-name="Groupe 46" transform="translate(4.858 17.4)">
      <path id="Tracé_46" data-name="Tracé 46" d="M416.253,466.785a.074.074,0,0,1-.07-.049,2.108,2.108,0,0,1-.132-.774c0-.042,0-.084,0-.125a1.693,1.693,0,0,0,0-.27,1.718,1.718,0,0,0-.242-.618.075.075,0,1,1,.131-.072,1.862,1.862,0,0,1,.26.673,1.836,1.836,0,0,1,0,.294c0,.04,0,.081,0,.121s0,.083,0,.125a4.765,4.765,0,0,1,.214-.652,3.885,3.885,0,0,0,.239-.788,1.793,1.793,0,0,0-.185-1.09.074.074,0,1,1,.132-.069,1.942,1.942,0,0,1,.2,1.181,4,4,0,0,1-.247.819,2.237,2.237,0,0,0-.229,1.206.075.075,0,0,1-.053.086Z" transform="translate(-415.803 -463.45)" fill="#fff"/>
    </g>
    <g id="Groupe_47" data-name="Groupe 47" transform="translate(6.018 19.085)">
      <path id="Tracé_47" data-name="Tracé 47" d="M430.756,492.472a.075.075,0,0,1-.06-.03,9.364,9.364,0,0,1-1.65-2.924,9.269,9.269,0,0,1-.251-1.683c-.034-.386-.068-.785-.137-1.17-.054-.3-.131-.608-.205-.9a8.712,8.712,0,0,1-.272-1.4,2.63,2.63,0,0,1-.393-1.784l.042-1.662a.074.074,0,0,1,.135-.041,2.8,2.8,0,0,1,.416,1.682c0,.227-.018.457-.033.68a8.083,8.083,0,0,0-.025,1.028c0,.012,0,.025,0,.037l.023.025a.074.074,0,0,1,0,.105l-.009.007a9.225,9.225,0,0,0,.26,1.286c.075.3.152.605.207.913.07.392.1.794.139,1.183a6.829,6.829,0,0,0,1.873,4.532.074.074,0,0,1-.016.1A.074.074,0,0,1,430.756,492.472Zm-2.784-11.3-.035,1.406a2.969,2.969,0,0,0,.23,1.5c-.005-.286.014-.573.032-.853.015-.22.03-.448.033-.672A2.947,2.947,0,0,0,427.972,481.176Z" transform="translate(-427.784 -480.843)" fill="#fff"/>
    </g>
    <g id="Groupe_48" data-name="Groupe 48" transform="translate(6.732 19.808)">
      <path id="Tracé_48" data-name="Tracé 48" d="M435.226,492.4a.073.073,0,0,1-.025,0,.074.074,0,0,1-.05-.07,13.5,13.5,0,0,1,.152-1.853,4.273,4.273,0,0,1,.687-2.139.074.074,0,0,1,.132.035,1.4,1.4,0,0,1-.091.626c-.028.091-.056.186-.075.278a2.732,2.732,0,0,0-.014.708c.006.09.012.183.015.275a3.179,3.179,0,0,1-.674,2.117A.075.075,0,0,1,435.226,492.4Zm.747-3.784a4.688,4.688,0,0,0-.522,1.876,14.974,14.974,0,0,0-.149,1.607,3.094,3.094,0,0,0,.506-1.839c0-.09-.009-.181-.014-.27a2.891,2.891,0,0,1,.017-.746,3.027,3.027,0,0,1,.078-.292A2.323,2.323,0,0,0,435.973,488.614Z" transform="translate(-435.152 -488.304)" fill="#fff"/>
    </g>
    <g id="Groupe_49" data-name="Groupe 49" transform="translate(4.13 20.23)">
      <path id="Tracé_49" data-name="Tracé 49" d="M410.832,496.351a.075.075,0,0,1-.035-.009,2.8,2.8,0,0,1-1.758-1.77l-.74-1.8a.075.075,0,0,1,.123-.079,7.762,7.762,0,0,1,1.4,2.058l.022.048a1.781,1.781,0,0,0,.213.379,1.762,1.762,0,0,0,.177.181c.041.038.083.078.123.12a3.274,3.274,0,0,1,.363.5c.051.079.108.168.173.263a.075.075,0,0,1-.062.116Zm-2.231-3.239.576,1.4a3.586,3.586,0,0,0,.328.665,3.065,3.065,0,0,0,1.1.891l-.013-.02a3.172,3.172,0,0,0-.346-.475c-.037-.039-.076-.075-.117-.114a1.463,1.463,0,0,1-.423-.606l-.022-.048A7.613,7.613,0,0,0,408.6,493.112Z" transform="translate(-408.294 -492.665)" fill="#fff"/>
    </g>
    <g id="Groupe_50" data-name="Groupe 50" transform="translate(7.125 21.39)">
      <path id="Tracé_50" data-name="Tracé 50" d="M439.282,508.98a.074.074,0,0,1-.073-.088,9.665,9.665,0,0,1,.363-1.182,7.047,7.047,0,0,0,.325-1.124c.022-.13.038-.265.052-.4a4.326,4.326,0,0,1,.112-.672,1.265,1.265,0,0,1,.677-.87.074.074,0,0,1,.1.073,3.7,3.7,0,0,1-.231.973,5.044,5.044,0,0,0-.194.683c-.024.129-.037.264-.05.394a3.3,3.3,0,0,1-1.024,2.181A.074.074,0,0,1,439.282,508.98Zm1.4-4.136a1.2,1.2,0,0,0-.475.713,4.217,4.217,0,0,0-.108.649c-.015.133-.031.27-.053.4a7.167,7.167,0,0,1-.331,1.148c-.1.281-.2.569-.272.821a3.587,3.587,0,0,0,.713-1.366,4.244,4.244,0,0,0,.063-.458c.013-.133.027-.271.052-.406a5.138,5.138,0,0,1,.2-.7A4.142,4.142,0,0,0,440.68,504.844Z" transform="translate(-439.207 -504.641)" fill="#fff"/>
    </g>
    <g id="Groupe_51" data-name="Groupe 51" transform="translate(3.629 21.663)">
      <path id="Tracé_51" data-name="Tracé 51" d="M406.6,511.564a.074.074,0,0,1-.044-.015c-.142-.1-.265-.209-.384-.31a2.991,2.991,0,0,0-.565-.41,2.957,2.957,0,0,0-.315-.13,1.938,1.938,0,0,1-.912-.6,5.742,5.742,0,0,1-.944-1.129,2.033,2.033,0,0,1-.283-1.45.074.074,0,0,1,.119-.042,3.118,3.118,0,0,1,.863,1.088c.031.065.06.131.088.2a1.583,1.583,0,0,0,.829.936c.085.053.173.108.257.167a5.6,5.6,0,0,1,1.354,1.586.075.075,0,0,1-.062.115Zm-3.324-3.89a1.953,1.953,0,0,0,.288,1.219,5.625,5.625,0,0,0,.92,1.1,2.44,2.44,0,0,0,.487.408,2.413,2.413,0,0,0,.372.16,3.073,3.073,0,0,1,.331.137,3.155,3.155,0,0,1,.593.429l0,0a4.42,4.42,0,0,0-1.047-1.143c-.08-.056-.167-.11-.25-.163a1.72,1.72,0,0,1-.887-1c-.027-.063-.056-.128-.086-.191A2.971,2.971,0,0,0,403.279,507.674Z" transform="translate(-403.118 -507.46)" fill="#fff"/>
    </g>
    <g id="Groupe_52" data-name="Groupe 52" transform="translate(7.27 22.808)">
      <path id="Tracé_52" data-name="Tracé 52" d="M440.791,523.848h-.015a.074.074,0,0,1-.059-.06,1.927,1.927,0,0,1,.4-1.286,5.347,5.347,0,0,0,.257-.471c.06-.131.11-.272.157-.408a2.2,2.2,0,0,1,.541-.97c.069-.078.14-.159.2-.243a3.163,3.163,0,0,0,.423-1.076.075.075,0,0,1,.072-.056h0a.2.2,0,0,1,.154.07.481.481,0,0,1,.082.352,4.707,4.707,0,0,1-.5,1.793,6.517,6.517,0,0,1-.686.958c-.111.137-.226.279-.333.421-.222.3-.426.621-.561.835l-.068.108A.075.075,0,0,1,440.791,523.848Zm2.03-4.394a3.1,3.1,0,0,1-.425,1.042c-.065.09-.138.174-.21.254a2.055,2.055,0,0,0-.512.921c-.049.139-.1.283-.162.421a5.487,5.487,0,0,1-.264.484,2.3,2.3,0,0,0-.4.96c.134-.212.315-.493.511-.755.109-.145.225-.288.337-.426a6.4,6.4,0,0,0,.671-.936,4.56,4.56,0,0,0,.487-1.737A.367.367,0,0,0,442.821,519.455Z" transform="translate(-440.702 -519.277)" fill="#fff"/>
    </g>
    <g id="Groupe_53" data-name="Groupe 53" transform="translate(4.434 24.648)">
      <path id="Tracé_53" data-name="Tracé 53" d="M414.272,541.06a.074.074,0,0,1-.059-.029c-.091-.119-.186-.244-.276-.376a2.4,2.4,0,0,0-.785-.631c-.055-.024-.111-.044-.17-.065a2.026,2.026,0,0,1-.259-.106,2,2,0,0,1-.5-.415,3,3,0,0,0-.292-.277c-.036-.028-.074-.056-.112-.083a1.294,1.294,0,0,1-.274-.238.446.446,0,0,1-.042-.541.075.075,0,0,1,.087-.022,3.165,3.165,0,0,1,.5.284l1.233.8a.683.683,0,0,1,.38.5l.016.055a2.353,2.353,0,0,0,.328.651l.12.135c.126.142.2.233.17.316a.074.074,0,0,1-.059.048Zm-2.679-2.62a.337.337,0,0,0,.07.307,1.166,1.166,0,0,0,.244.21c.039.028.079.056.118.087a3.115,3.115,0,0,1,.307.29,1.385,1.385,0,0,0,.7.484c.059.021.12.043.179.068a1.838,1.838,0,0,1,.453.288,1.92,1.92,0,0,1-.082-.223l-.016-.058a.545.545,0,0,0-.317-.411l-1.233-.8A3.468,3.468,0,0,0,411.593,538.44Z" transform="translate(-411.43 -538.271)" fill="#fff"/>
    </g>
    <g id="Groupe_54" data-name="Groupe 54" transform="translate(7.946 25.925)">
      <path id="Tracé_54" data-name="Tracé 54" d="M447.979,555.1a.075.075,0,0,1-.072-.056,8.366,8.366,0,0,1-.209-1.169,1.4,1.4,0,0,1,0-.4,1.51,1.51,0,0,1,.159-.406c.023-.046.048-.093.069-.14a3.751,3.751,0,0,0,.147-.4,4,4,0,0,1,.147-.4,2.061,2.061,0,0,1,.458-.646.074.074,0,0,1,.123.074,5.9,5.9,0,0,0-.135.682c-.021.131-.042.266-.068.4-.068.347-.171.688-.27,1.019a4.481,4.481,0,0,0-.275,1.368.075.075,0,0,1-.063.078Zm.611-3.3a1.908,1.908,0,0,0-.234.388,3.891,3.891,0,0,0-.141.385,3.893,3.893,0,0,1-.154.415c-.023.049-.048.1-.072.146a1.372,1.372,0,0,0-.145.365,1.268,1.268,0,0,0,0,.361c.024.223.057.447.1.669a8.835,8.835,0,0,1,.241-.917c.1-.327.2-.666.266-1,.026-.13.047-.264.067-.393S448.562,551.934,448.59,551.795Z" transform="translate(-447.682 -551.456)" fill="#fff"/>
    </g>
    <g id="Groupe_66" data-name="Groupe 66" transform="translate(15.188 -0.736)">
      <g id="Groupe_55" data-name="Groupe 55" transform="translate(0.773)">
        <path id="Tracé_55" data-name="Tracé 55" d="M530.615,284.412a.383.383,0,0,1-.177-.162.074.074,0,0,1,.006-.081,1.344,1.344,0,0,1,.212-.222,5.436,5.436,0,0,1,.125-1.409,7.275,7.275,0,0,1,.828-2,10.389,10.389,0,0,1,2.213-2.73,6.943,6.943,0,0,1,3.071-1.577.074.074,0,1,1,.031.146,8.287,8.287,0,0,0-5.186,4.234,7.128,7.128,0,0,0-.812,1.962,5.27,5.27,0,0,0-.123,1.335.245.245,0,0,1,.124.04.255.255,0,0,1,.121.2.3.3,0,0,1-.269.3A.329.329,0,0,1,530.615,284.412Zm-.02-.2a.209.209,0,0,0,.17.076.149.149,0,0,0,.134-.14.109.109,0,0,0-.052-.081.087.087,0,0,0-.076-.012.078.078,0,0,1-.025.005A1.2,1.2,0,0,0,530.6,284.217Z" transform="translate(-530.429 -276.227)" fill="#fff"/>
      </g>
      <g id="Groupe_56" data-name="Groupe 56" transform="translate(0.223 5.477)">
        <path id="Tracé_56" data-name="Tracé 56" d="M524.791,334.238a.074.074,0,0,1-.043-.079,2.01,2.01,0,0,1,.5-1.044,1.022,1.022,0,0,1,.3-.236,1.356,1.356,0,0,1,.491-.108.076.076,0,0,1,.045.01,1.148,1.148,0,0,1,.473.725,3.46,3.46,0,0,1,.063.863.074.074,0,0,1-.149,0,3.344,3.344,0,0,0-.058-.826,1.019,1.019,0,0,0-.385-.62,1.16,1.16,0,0,0-.413.09.88.88,0,0,0-.253.2,1.86,1.86,0,0,0-.463.966.074.074,0,0,1-.085.062Z" transform="translate(-524.747 -332.77)" fill="#fff"/>
      </g>
      <g id="Groupe_57" data-name="Groupe 57" transform="translate(0.74 4.226)">
        <path id="Tracé_57" data-name="Tracé 57" d="M531.947,321.585a.075.075,0,0,1-.044-.077,1.729,1.729,0,0,0-.53-1.451,1.656,1.656,0,0,0-.642-.039.745.745,0,0,0-.5.291.075.075,0,0,1-.124-.083.9.9,0,0,1,.6-.355,1.822,1.822,0,0,1,.719.045.076.076,0,0,1,.034.018,1.88,1.88,0,0,1,.592,1.592.075.075,0,0,1-.1.059Z" transform="translate(-530.091 -319.853)" fill="#fff"/>
      </g>
      <g id="Groupe_58" data-name="Groupe 58" transform="translate(1.016 3.21)">
        <path id="Tracé_58" data-name="Tracé 58" d="M535.1,310.971a.075.075,0,0,1-.041-.046c0-.007,0-.013-.005-.02l-.162-.677a1.3,1.3,0,0,0-.435-.593,1.829,1.829,0,0,0-.766-.113,1.348,1.348,0,0,0-.367.1,1.92,1.92,0,0,0-.277.145.074.074,0,1,1-.08-.126,2.06,2.06,0,0,1,.3-.157,1.494,1.494,0,0,1,.408-.115,1.989,1.989,0,0,1,.845.124.074.074,0,0,1,.028.016,1.444,1.444,0,0,1,.491.68l.162.677,0,.011a.074.074,0,0,1-.1.09Z" transform="translate(-532.937 -309.365)" fill="#fff"/>
      </g>
      <g id="Groupe_59" data-name="Groupe 59" transform="translate(1.266 2.326)">
        <path id="Tracé_59" data-name="Tracé 59" d="M535.683,300.905a.307.307,0,0,1-.13-.108.211.211,0,0,1-.028-.188.075.075,0,0,1,.049-.047.716.716,0,0,1,.311-.021,1.342,1.342,0,0,1,.849-.3,3.359,3.359,0,0,1,.842.131.075.075,0,0,1-.036.145,3.241,3.241,0,0,0-.8-.127,1.2,1.2,0,0,0-.719.242l.008.013a.187.187,0,0,1,0,.178.255.255,0,0,1-.241.111A.3.3,0,0,1,535.683,300.905Zm-.017-.212a.093.093,0,0,0,.011.022.16.16,0,0,0,.115.066.114.114,0,0,0,.1-.038.036.036,0,0,0,0-.025.028.028,0,0,0-.008-.015.073.073,0,0,1-.043-.017A.568.568,0,0,0,535.666,300.693Z" transform="translate(-535.514 -300.237)" fill="#fff"/>
      </g>
      <g id="Groupe_60" data-name="Groupe 60" transform="translate(0.664 3.469)">
        <path id="Tracé_60" data-name="Tracé 60" d="M529.471,312.5a.272.272,0,0,1-.065-.041.319.319,0,0,1-.083-.357.075.075,0,0,1,.046-.043.537.537,0,0,1,.375.018l.01.006a.224.224,0,0,1,.1.171.248.248,0,0,1-.081.2A.289.289,0,0,1,529.471,312.5Zm-.02-.309a.167.167,0,0,0,.051.154.141.141,0,0,0,.175,0,.1.1,0,0,0,.032-.08.073.073,0,0,0-.031-.055A.386.386,0,0,0,529.451,312.2Z" transform="translate(-529.299 -312.038)" fill="#fff"/>
      </g>
      <g id="Groupe_61" data-name="Groupe 61" transform="translate(2.923 4.71)">
        <path id="Tracé_61" data-name="Tracé 61" d="M552.78,325.326a.311.311,0,0,1-.15-.141.074.074,0,0,1,0-.071.627.627,0,0,1,.283-.258h0a.141.141,0,0,1,.139.016.277.277,0,0,1,.114.226.272.272,0,0,1-.239.251A.287.287,0,0,1,552.78,325.326Zm.005-.176a.154.154,0,0,0,.126.052.125.125,0,0,0,.107-.109.132.132,0,0,0-.049-.1A.479.479,0,0,0,552.786,325.15Z" transform="translate(-552.622 -324.845)" fill="#fff"/>
      </g>
      <g id="Groupe_62" data-name="Groupe 62" transform="translate(2.327 5.86)">
        <path id="Tracé_62" data-name="Tracé 62" d="M546.639,337.16a.378.378,0,0,1-.154-.128.074.074,0,0,1,0-.086.536.536,0,0,1,.3-.2.131.131,0,0,1,.13-.007.224.224,0,0,1,.125.207.269.269,0,0,1-.254.245A.315.315,0,0,1,546.639,337.16Zm.005-.172a.188.188,0,0,0,.132.051.122.122,0,0,0,.114-.1.082.082,0,0,0-.033-.063.073.073,0,0,1-.025.01A.384.384,0,0,0,546.644,336.988Zm.172-.177h0Z" transform="translate(-546.471 -336.721)" fill="#fff"/>
      </g>
      <g id="Groupe_63" data-name="Groupe 63" transform="translate(0.576 4.576)">
        <path id="Tracé_63" data-name="Tracé 63" d="M528.444,323.951l-.009,0a.074.074,0,0,1-.041-.059.494.494,0,0,1,.145-.4.074.074,0,0,1,.078-.017.286.286,0,0,1,.16.151.25.25,0,0,1,.007.195.262.262,0,0,1-.341.139Zm.164-.319a.354.354,0,0,0-.067.191.121.121,0,0,0,.044-.008.106.106,0,0,0,.061-.057.1.1,0,0,0,0-.079A.137.137,0,0,0,528.608,323.632Z" transform="translate(-528.392 -323.462)" fill="#fff"/>
      </g>
      <g id="Groupe_64" data-name="Groupe 64" transform="translate(0 6.839)">
        <path id="Tracé_64" data-name="Tracé 64" d="M522.595,347.308a.268.268,0,0,1-.141-.141.074.074,0,0,1,0-.054.471.471,0,0,1,.266-.273.177.177,0,0,1,.224.068.3.3,0,0,1-.027.35.279.279,0,0,1-.253.07A.313.313,0,0,1,522.595,347.308Zm.01-.174a.142.142,0,0,0,.085.049.131.131,0,0,0,.119-.029.156.156,0,0,0,.008-.163c-.01-.016-.019-.021-.044-.011h0A.321.321,0,0,0,522.605,347.134Zm.14-.225h0Z" transform="translate(-522.448 -346.825)" fill="#fff"/>
      </g>
      <g id="Groupe_65" data-name="Groupe 65" transform="translate(1.706 7.023)">
        <path id="Tracé_65" data-name="Tracé 65" d="M540.229,349.212a.334.334,0,0,1-.167-.164.075.075,0,0,1,.007-.075.7.7,0,0,1,.307-.237h0a.157.157,0,0,1,.157.027.276.276,0,0,1,.1.242.283.283,0,0,1-.272.234A.3.3,0,0,1,540.229,349.212Zm-.008-.19a.174.174,0,0,0,.133.067.135.135,0,0,0,.128-.106.132.132,0,0,0-.028-.091.047.047,0,0,0-.022-.018h0A.549.549,0,0,0,540.221,349.022Zm.183-.217h0Z" transform="translate(-540.056 -348.725)" fill="#fff"/>
      </g>
    </g>
    <g id="Groupe_78" data-name="Groupe 78" transform="translate(13.857 24.884)">
      <g id="Groupe_67" data-name="Groupe 67" transform="translate(0 0.633)">
        <path id="Tracé_66" data-name="Tracé 66" d="M508.755,547.393a.383.383,0,0,1,.188-.15.075.075,0,0,1,.08.018,1.353,1.353,0,0,1,.186.244,5.442,5.442,0,0,1,1.372.345,7.275,7.275,0,0,1,1.848,1.132,10.388,10.388,0,0,1,2.349,2.614,6.942,6.942,0,0,1,1.076,3.28.074.074,0,0,1-.149.008,8.287,8.287,0,0,0-3.369-5.786,7.133,7.133,0,0,0-1.81-1.11,5.275,5.275,0,0,0-1.3-.331.245.245,0,0,1-.059.116.255.255,0,0,1-.216.088.3.3,0,0,1-.25-.312A.329.329,0,0,1,508.755,547.393Zm.2.011a.209.209,0,0,0-.1.156.149.149,0,0,0,.117.154.109.109,0,0,0,.088-.039.088.088,0,0,0,.024-.074.075.075,0,0,1,0-.025A1.193,1.193,0,0,0,508.952,547.4Z" transform="translate(-508.701 -547.238)" fill="#fff"/>
      </g>
      <g id="Groupe_68" data-name="Groupe 68" transform="translate(0.911 0.263)">
        <path id="Tracé_67" data-name="Tracé 67" d="M518.583,543.456a.074.074,0,0,1,.085-.03,2.01,2.01,0,0,1,.953.658,1.02,1.02,0,0,1,.187.33,1.36,1.36,0,0,1,.029.5.075.075,0,0,1-.017.043,1.147,1.147,0,0,1-.79.354,3.457,3.457,0,0,1-.862-.074.074.074,0,1,1,.025-.147,3.335,3.335,0,0,0,.825.072,1.018,1.018,0,0,0,.672-.283,1.159,1.159,0,0,0-.025-.422.879.879,0,0,0-.162-.281,1.859,1.859,0,0,0-.882-.608.075.075,0,0,1-.04-.112Z" transform="translate(-518.107 -543.422)" fill="#fff"/>
      </g>
      <g id="Groupe_69" data-name="Groupe 69" transform="translate(1.986 1.125)">
        <path id="Tracé_68" data-name="Tracé 68" d="M529.211,553.95a.075.075,0,0,1,.083-.031,1.73,1.73,0,0,0,1.516-.3,1.657,1.657,0,0,0,.139-.628.747.747,0,0,0-.208-.544.074.074,0,1,1,.1-.109.894.894,0,0,1,.256.652,1.82,1.82,0,0,1-.157.7.073.073,0,0,1-.023.031,1.881,1.881,0,0,1-1.665.335.075.075,0,0,1-.051-.092A.077.077,0,0,1,529.211,553.95Z" transform="translate(-529.199 -552.322)" fill="#fff"/>
      </g>
      <g id="Groupe_70" data-name="Groupe 70" transform="translate(3.021 1.568)">
        <path id="Tracé_69" data-name="Tracé 69" d="M539.9,558.837a.074.074,0,0,1,.052-.033l.021,0,.694-.054a1.3,1.3,0,0,0,.654-.337,1.829,1.829,0,0,0,.231-.739,1.348,1.348,0,0,0-.045-.379,1.941,1.941,0,0,0-.1-.3.074.074,0,1,1,.137-.059,2.08,2.08,0,0,1,.108.319,1.49,1.49,0,0,1,.049.42,1.987,1.987,0,0,1-.255.815.075.075,0,0,1-.02.025,1.443,1.443,0,0,1-.748.379l-.694.054h-.011a.075.075,0,0,1-.073-.114Z" transform="translate(-539.887 -556.893)" fill="#fff"/>
      </g>
      <g id="Groupe_71" data-name="Groupe 71" transform="translate(5.059 1.937)">
        <path id="Tracé_70" data-name="Tracé 70" d="M560.972,560.834a.306.306,0,0,1,.127-.111.211.211,0,0,1,.19,0,.074.074,0,0,1,.039.056.715.715,0,0,1-.028.31,1.342,1.342,0,0,1,.167.886,3.355,3.355,0,0,1-.262.811.074.074,0,1,1-.137-.058,3.235,3.235,0,0,0,.251-.774,1.2,1.2,0,0,0-.126-.748l-.014.005a.187.187,0,0,1-.176-.029.255.255,0,0,1-.072-.255A.3.3,0,0,1,560.972,560.834Zm.212.017a.092.092,0,0,0-.024.007.16.16,0,0,0-.084.1.113.113,0,0,0,.021.107.036.036,0,0,0,.025.005.028.028,0,0,0,.016-.006.074.074,0,0,1,.024-.039A.569.569,0,0,0,561.185,560.851Z" transform="translate(-560.924 -560.701)" fill="#fff"/>
      </g>
      <g id="Groupe_72" data-name="Groupe 72" transform="translate(4.224 1.201)">
        <path id="Tracé_71" data-name="Tracé 71" d="M552.354,553.233a.268.268,0,0,1,.051-.058.32.32,0,0,1,.365-.026.074.074,0,0,1,.035.052.536.536,0,0,1-.076.368l-.007.01a.224.224,0,0,1-.185.075.248.248,0,0,1-.188-.111A.29.29,0,0,1,552.354,553.233Zm.308.028a.167.167,0,0,0-.16.026.141.141,0,0,0-.029.173.1.1,0,0,0,.074.044.073.073,0,0,0,.059-.022A.387.387,0,0,0,552.662,553.261Z" transform="translate(-552.307 -553.103)" fill="#fff"/>
      </g>
      <g id="Groupe_73" data-name="Groupe 73" transform="translate(2.632 3.222)">
        <path id="Tracé_72" data-name="Tracé 72" d="M535.917,574.1a.311.311,0,0,1,.163-.126.075.075,0,0,1,.07.013.627.627,0,0,1,.211.32h0a.141.141,0,0,1-.038.135.276.276,0,0,1-.241.077.272.272,0,0,1-.211-.276A.286.286,0,0,1,535.917,574.1Zm.173.033a.154.154,0,0,0-.071.116.125.125,0,0,0,.091.123.133.133,0,0,0,.1-.033A.478.478,0,0,0,536.091,574.129Z" transform="translate(-535.87 -573.967)" fill="#fff"/>
      </g>
      <g id="Groupe_74" data-name="Groupe 74" transform="translate(1.626 2.459)">
        <path id="Tracé_73" data-name="Tracé 73" d="M525.533,566.232a.378.378,0,0,1,.151-.132.075.075,0,0,1,.085.014.536.536,0,0,1,.154.327.131.131,0,0,1-.013.13.224.224,0,0,1-.224.091.269.269,0,0,1-.2-.289A.313.313,0,0,1,525.533,566.232Zm.169.032a.187.187,0,0,0-.071.122.122.122,0,0,0,.083.128.081.081,0,0,0,.067-.022.074.074,0,0,1-.006-.026A.386.386,0,0,0,525.7,566.264Zm.147.2h0Z" transform="translate(-525.482 -566.092)" fill="#fff"/>
      </g>
      <g id="Groupe_75" data-name="Groupe 75" transform="translate(3.15 0.91)">
        <path id="Tracé_74" data-name="Tracé 74" d="M541.257,550.136l.005-.008a.074.074,0,0,1,.064-.031.5.5,0,0,1,.377.207.075.075,0,0,1,0,.08.286.286,0,0,1-.174.134.25.25,0,0,1-.193-.023.262.262,0,0,1-.084-.358Zm.29.212a.354.354,0,0,0-.178-.1.121.121,0,0,0,0,.045.106.106,0,0,0,.046.07.1.1,0,0,0,.079.008A.138.138,0,0,0,541.547,550.348Z" transform="translate(-541.219 -550.097)" fill="#fff"/>
      </g>
      <g id="Groupe_76" data-name="Groupe 76" transform="translate(0.984)">
        <path id="Tracé_75" data-name="Tracé 75" d="M518.912,540.826a.269.269,0,0,1,.161-.117.074.074,0,0,1,.054.007.471.471,0,0,1,.228.305.177.177,0,0,1-.1.21.3.3,0,0,1-.342-.081.279.279,0,0,1-.03-.261A.318.318,0,0,1,518.912,540.826Zm.17.037a.143.143,0,0,0-.061.076.131.131,0,0,0,.01.122.156.156,0,0,0,.16.033c.017-.008.024-.016.018-.042h0A.321.321,0,0,0,519.082,540.864Zm.2.174h0Z" transform="translate(-518.862 -540.707)" fill="#fff"/>
      </g>
      <g id="Groupe_77" data-name="Groupe 77" transform="translate(0.529 1.659)">
        <path id="Tracé_76" data-name="Tracé 76" d="M514.208,557.977a.335.335,0,0,1,.189-.139.074.074,0,0,1,.073.019.7.7,0,0,1,.186.34h0a.156.156,0,0,1-.052.151.276.276,0,0,1-.254.057.283.283,0,0,1-.188-.305A.3.3,0,0,1,514.208,557.977Zm.189.021a.174.174,0,0,0-.088.121.135.135,0,0,0,.084.143.132.132,0,0,0,.095-.014.048.048,0,0,0,.021-.019h0A.549.549,0,0,0,514.4,558Zm.186.215h0Z" transform="translate(-514.159 -557.835)" fill="#fff"/>
      </g>
    </g>
  </g>
</svg>
