<svg xmlns="http://www.w3.org/2000/svg" width="31.5" height="31.5" viewBox="0 0 31.5 31.5">
  <g id="Groupe_509" data-name="Groupe 509" transform="translate(-1244.8 -21.4)">
    <path id="Tracé_573" data-name="Tracé 573" d="M44.8,25.8a1.127,1.127,0,0,0-.2-1.6,15.539,15.539,0,0,0-9.1-2.8A15.75,15.75,0,1,0,51.3,37.1a15.406,15.406,0,0,0-2.4-8.3,1.166,1.166,0,1,0-2,1.2,13.4,13.4,0,1,1-3.7-3.9,1.248,1.248,0,0,0,1.6-.3" transform="translate(1225)" fill="#c09426"/>
    <path id="Tracé_574" data-name="Tracé 574" d="M41.9,45.1h.2a1.088,1.088,0,0,0,1.1-.9,4.869,4.869,0,0,0,.1-1.2A7,7,0,0,0,39,36.8a5.091,5.091,0,1,0-7.2,0A7,7,0,0,0,27.5,43a4.869,4.869,0,0,0,.1,1.2,1.177,1.177,0,0,0,2.3-.5,2.2,2.2,0,0,1-.1-.8c0-2.6,2.5-4.7,5.6-4.7s5.7,2.1,5.7,4.7a2.2,2.2,0,0,1-.1.8,1.18,1.18,0,0,0,.9,1.4M32.6,33.2a2.85,2.85,0,1,1,2.9,2.9,3.039,3.039,0,0,1-2.9-2.9" transform="translate(1225)" fill="#c09426"/>
  </g>
</svg>
