<svg xmlns="http://www.w3.org/2000/svg" width="216.079" height="245.389" viewBox="0 0 216.079 245.389">
  <g id="Groupe_491" data-name="Groupe 491" transform="translate(39.556 -135.85)">
    <path id="Tracé_181" data-name="Tracé 181" d="M28.547,234.382a.7.7,0,0,1-.571-.293C7.641,205.724-2.154,173.256.4,142.666A95.784,95.784,0,0,1,9.85,107.559c5.4-10.775,13.178-20.343,20.7-29.6C39.714,66.7,49.186,55.052,54.177,41.328c.722-1.985,1.376-4.072,2.009-6.091,2.071-6.613,4.213-13.451,9.188-18.384a46.732,46.732,0,0,1,7.533-5.65C77.534,8.193,81.9,5.352,83.445.489a.7.7,0,0,1,1.338.425c-1.695,5.34-6.481,8.453-11.11,11.464a45.671,45.671,0,0,0-7.31,5.471c-4.728,4.687-6.817,11.357-8.838,17.805-.637,2.035-1.3,4.138-2.028,6.153C50.424,55.754,40.877,67.494,31.644,78.847c-7.478,9.2-15.211,18.7-20.538,29.341A94.409,94.409,0,0,0,1.8,142.782c-2.523,30.259,7.18,62.4,27.32,90.49a.7.7,0,0,1-.57,1.111Z" transform="translate(77.635 135.85) rotate(30)" fill="#b78016"/>
    <path id="Tracé_182" data-name="Tracé 182" d="M.7,31.579A.7.7,0,0,1,.238,30.35a10.267,10.267,0,0,0,2.068-3.516c.289-.662.589-1.346.931-2.006A32.221,32.221,0,0,1,7.41,19.052C14.948,10.1,21.99,2.5,31.845.021a.7.7,0,0,1,.438,1.33c-1.695.7-2.418,2.575-3.183,4.56a20.448,20.448,0,0,1-1.306,2.922,17.45,17.45,0,0,1-4.138,4.382c-.363.306-.727.61-1.082.92a67.119,67.119,0,0,0-5.829,6.038c-1.205,1.358-2.451,2.761-3.753,4.08C8.858,28.442,4.879,30.834.827,31.568A.734.734,0,0,1,.7,31.579ZM29.2,2.331C21.239,5.387,15.06,12.149,8.483,19.956a31.126,31.126,0,0,0-4,5.518c-.321.619-.612,1.282-.892,1.923a24.451,24.451,0,0,1-1.1,2.3c3.119-1.013,6.246-3.134,9.5-6.435,1.275-1.292,2.509-2.681,3.7-4.025a68.315,68.315,0,0,1,5.955-6.163c.362-.316.732-.627,1.1-.939a16.186,16.186,0,0,0,3.826-4.014,19.3,19.3,0,0,0,1.208-2.72A18.334,18.334,0,0,1,29.2,2.331Z" transform="translate(148.188 155.654) rotate(30)" fill="#b78016"/>
    <path id="Tracé_183" data-name="Tracé 183" d="M2.043,33.724H2.01a.7.7,0,0,1-.646-.525C.435,29.625-.719,25.178.584,21.08a21.8,21.8,0,0,1,2.68-5.108,32.01,32.01,0,0,0,1.868-3.161c.346-.706.651-1.466.946-2.2A15.358,15.358,0,0,1,8.685,5.836a15.672,15.672,0,0,1,3.273-2.55A11.13,11.13,0,0,0,15.442.317a.7.7,0,0,1,1.288.4c-.1,3.809-2.239,7.159-3.836,9.347-.588.805-1.211,1.6-1.812,2.369a36.931,36.931,0,0,0-3.825,5.549A37.19,37.19,0,0,0,4.4,26.967a53.494,53.494,0,0,1-1.7,6.294A.7.7,0,0,1,2.043,33.724ZM15.032,2.83a22.39,22.39,0,0,1-2.313,1.636A14.411,14.411,0,0,0,9.728,6.777a14.093,14.093,0,0,0-2.347,4.354c-.3.761-.62,1.547-.989,2.3a32.848,32.848,0,0,1-1.949,3.3,20.476,20.476,0,0,0-2.521,4.773c-.914,2.873-.462,6.058.2,8.926.333-1.216.619-2.474.915-3.776a38.237,38.237,0,0,1,2.975-9.317,38.156,38.156,0,0,1,3.965-5.766c.6-.76,1.211-1.546,1.785-2.332A18.622,18.622,0,0,0,15.032,2.83Z" transform="translate(138.008 155.108) rotate(30)" fill="#b78016"/>
    <path id="Tracé_184" data-name="Tracé 184" d="M4.842,27.922a18.826,18.826,0,0,1-4.3-.49A.7.7,0,0,1,.45,26.093L1.9,25.539c8.757-3.351,17.813-6.815,24.726-13.363.566-.537,1.128-1.1,1.672-1.654.892-.9,1.814-1.835,2.807-2.681,3.437-2.933,7.624-4.78,11.674-6.564.908-.4,1.817-.8,2.715-1.212a.7.7,0,0,1,.722,1.193C43.835,3.1,42.2,5.879,40.628,8.566c-1.984,3.381-4.035,6.878-7.625,8.673a20.366,20.366,0,0,1-5.725,1.586,20.766,20.766,0,0,0-4.971,1.281,20.658,20.658,0,0,0-4.228,2.8c-.8.626-1.624,1.273-2.493,1.846A19.661,19.661,0,0,1,4.842,27.922ZM3.414,26.461a18.266,18.266,0,0,0,11.4-2.886c.821-.542,1.624-1.17,2.4-1.779a22.037,22.037,0,0,1,4.523-2.974,22.209,22.209,0,0,1,5.3-1.382,19.023,19.023,0,0,0,5.337-1.457c3.218-1.61,5.075-4.776,7.042-8.128a43.254,43.254,0,0,1,3.248-5c-3.742,1.654-7.559,3.408-10.652,6.049-.948.808-1.849,1.719-2.72,2.6-.552.558-1.122,1.134-1.7,1.686C20.743,19.68,11.98,23.179,3.414,26.461Z" transform="translate(135.232 161.839) rotate(30)" fill="#b78016"/>
    <path id="Tracé_185" data-name="Tracé 185" d="M5.642,39.175a.7.7,0,0,1-.53-.241C3.1,36.618.332,33.446.029,29.64a16.856,16.856,0,0,1,.53-4.8,16.582,16.582,0,0,0,.52-4.183,16.849,16.849,0,0,0-.357-2.408,11.589,11.589,0,0,1-.3-4.1,11.573,11.573,0,0,1,1.868-4.2A15.871,15.871,0,0,0,3.657,7.409a15.422,15.422,0,0,0,.582-2.025,19.425,19.425,0,0,1,.529-1.912A5.184,5.184,0,0,1,7.811.036a.7.7,0,0,1,.9.855C7.021,6.95,5.277,13.216,5.655,19.574c.047.786.128,1.593.206,2.373a26.292,26.292,0,0,1,.16,5.6c-.061.542-.156,1.08-.247,1.6a15.165,15.165,0,0,0-.294,2.389,16.716,16.716,0,0,0,.529,3.731,7.744,7.744,0,0,1,.309,3.4.7.7,0,0,1-.523.493A.668.668,0,0,1,5.642,39.175ZM6.8,2.534a5.808,5.808,0,0,0-.7,1.4A17.989,17.989,0,0,0,5.6,5.711a16.869,16.869,0,0,1-.638,2.208,17.282,17.282,0,0,1-1.484,2.769,10.387,10.387,0,0,0-1.677,3.68A10.407,10.407,0,0,0,2.1,17.975a18.166,18.166,0,0,1,.382,2.609,17.875,17.875,0,0,1-.549,4.539,15.589,15.589,0,0,0-.5,4.4c.2,2.5,1.577,4.668,3.393,6.893-.056-.275-.12-.562-.184-.854a17.769,17.769,0,0,1-.562-4.056A16.422,16.422,0,0,1,4.392,28.9c.091-.521.178-1.014.235-1.514a24.819,24.819,0,0,0-.162-5.3c-.08-.794-.163-1.615-.211-2.43C3.9,13.782,5.277,8.074,6.8,2.534Z" transform="translate(125.59 157.16) rotate(30)" fill="#b78016"/>
    <path id="Tracé_186" data-name="Tracé 186" d="M7.447,16.974A23.052,23.052,0,0,1,.486,15.521.7.7,0,0,1,.42,14.21c.972-.427,1.937-.866,2.9-1.3,2.194-1,4.462-2.029,6.757-2.887.362-.135.728-.267,1.092-.4a22.911,22.911,0,0,0,4.569-2.029,22.764,22.764,0,0,0,2.536-1.964c.635-.54,1.293-1.1,1.991-1.6,5.819-4.2,13.835-4.083,19.689-4a.7.7,0,0,1,.416,1.26c-3.343,2.555-7.133,5.449-11.656,6.339C27.768,7.81,26.8,7.9,25.872,8a16.544,16.544,0,0,0-4.309.8,16.88,16.88,0,0,0-5.145,3.669c-1.82,1.663-3.7,3.382-6.142,4.114A9.806,9.806,0,0,1,7.447,16.974ZM2.69,14.734c2.577.752,4.945,1.17,7.183.5,2.134-.641,3.816-2.177,5.6-3.806a18.187,18.187,0,0,1,5.594-3.945A17.9,17.9,0,0,1,25.735,6.6c.9-.088,1.828-.179,2.707-.351,3.5-.69,6.627-2.745,9.436-4.836h-.295c-6.371,0-12.01.517-16.5,3.755-.653.471-1.288,1.012-1.9,1.535a24.215,24.215,0,0,1-2.7,2.08,24.328,24.328,0,0,1-4.843,2.164c-.36.13-.72.26-1.078.393-2.25.841-4.5,1.862-6.667,2.849Z" transform="translate(118.721 180.068) rotate(30)" fill="#b78016"/>
    <path id="Tracé_187" data-name="Tracé 187" d="M9.387,45.355a.7.7,0,0,1-.367-.1A16.621,16.621,0,0,1,1.243,31.273a32.56,32.56,0,0,1,.279-3.558,18.483,18.483,0,0,0,.11-5.395,18.683,18.683,0,0,0-.717-2.55A17.267,17.267,0,0,1,.083,16.6a15.378,15.378,0,0,1,.643-5.885A59.47,59.47,0,0,1,4.481.4.7.7,0,0,1,5.817.689,152.143,152.143,0,0,1,5.31,16.157l-.026.3a20.031,20.031,0,0,0-.047,4.52,19.626,19.626,0,0,0,.988,3.552c.165.479.331.958.481,1.44a52.842,52.842,0,0,1,1.671,8.409c.518,3.637,1.053,7.4,1.694,10.118a.7.7,0,0,1-.684.863ZM4.437,3.993a58.043,58.043,0,0,0-2.353,7.076,14.159,14.159,0,0,0-.61,5.345,16.142,16.142,0,0,0,.773,2.914,19.965,19.965,0,0,1,.767,2.745,19.824,19.824,0,0,1-.1,5.8,31.206,31.206,0,0,0-.27,3.4A15.234,15.234,0,0,0,8.328,43.052c-.492-2.516-.922-5.538-1.341-8.479a51.821,51.821,0,0,0-1.62-8.187c-.147-.469-.309-.935-.469-1.4a21,21,0,0,1-1.05-3.808,21.131,21.131,0,0,1,.036-4.842l.026-.3C4.246,12.048,4.422,8.01,4.437,3.993Z" transform="translate(114.012 159.296) rotate(30)" fill="#b78016"/>
    <path id="Tracé_188" data-name="Tracé 188" d="M5.033,15.386a13.306,13.306,0,0,1-4.572-.8.7.7,0,0,1,.154-1.356A15.43,15.43,0,0,0,8.193,9.677c.845-.7,1.655-1.507,2.437-2.283a24.038,24.038,0,0,1,4.329-3.663A24.653,24.653,0,0,1,17.464,2.46a13.135,13.135,0,0,0,3.7-2.2.7.7,0,0,1,.383-.186,7.093,7.093,0,0,1,6.518,2.624.7.7,0,0,1-.719,1.114c-3.24-.78-6.376,1.519-7.957,2.959C18.586,7.5,17.81,8.312,17.058,9.1a26.223,26.223,0,0,1-4.728,4.209A13.682,13.682,0,0,1,5.033,15.386ZM3.681,13.911a12.332,12.332,0,0,0,7.895-1.789,24.763,24.763,0,0,0,4.467-3.993c.768-.8,1.561-1.634,2.4-2.4,1.443-1.316,4.056-3.26,7.05-3.466a5.77,5.77,0,0,0-3.535-.83,15.089,15.089,0,0,1-3.91,2.3,23.162,23.162,0,0,0-2.362,1.2A22.627,22.627,0,0,0,11.62,8.39c-.8.8-1.635,1.624-2.529,2.366A18.544,18.544,0,0,1,3.681,13.911Z" transform="translate(105.715 190.498) rotate(30)" fill="#b78016"/>
    <path id="Tracé_189" data-name="Tracé 189" d="M11.777,31.181a.713.713,0,0,1-.17-.021c-1.766-.439-2.841-2.4-3.711-4.206-2.024-4.2-4.241-9.123-4.911-14.414l-.054-.433C2.638,9.737,2.3,7.05.4,6.14A.7.7,0,0,1,.677,4.8,8.041,8.041,0,0,0,7.448.394.7.7,0,0,1,8.761.53a26.349,26.349,0,0,1,.293,8.275c-.215,3.092-.42,6.014.553,8.75a21.709,21.709,0,0,0,1.023,2.288,22.138,22.138,0,0,1,1.112,2.512,22.362,22.362,0,0,1,.736,8.148.7.7,0,0,1-.7.677ZM2.441,5.972c1.338,1.551,1.634,3.949,1.884,5.964l.053.428c.644,5.082,2.807,9.881,4.783,13.982a9.613,9.613,0,0,0,1.95,2.993,18.242,18.242,0,0,0-.695-6.521,20.911,20.911,0,0,0-1.045-2.353,22.764,22.764,0,0,1-1.086-2.438c-1.071-3.013-.847-6.218-.631-9.319A33.309,33.309,0,0,0,7.709,2.6,9.65,9.65,0,0,1,2.441,5.972Z" transform="translate(91.199 177.976) rotate(30)" fill="#b78016"/>
    <path id="Tracé_190" data-name="Tracé 190" d="M2.068,18.943c-.479,0-.941-.007-1.378-.015a.7.7,0,0,1-.446-1.235l4.466-3.828a13.43,13.43,0,0,0,1.751-1.692,13.34,13.34,0,0,0,1.108-1.705A14.716,14.716,0,0,1,8.789,8.6,14.858,14.858,0,0,1,12.67,5.513l6.992-4.356a6.615,6.615,0,0,1,2.6-1.124A6.456,6.456,0,0,1,26.29,1.254a10.415,10.415,0,0,0,2.014.961.7.7,0,0,1,.449.928c-.794,2.017-3.177,3.23-4.527,3.773-.824.331-1.672.6-2.492.853a24.685,24.685,0,0,0-2.946,1.055,12.211,12.211,0,0,0-3.837,2.768c-.571.614-1.1,1.315-1.613,1.992a15.348,15.348,0,0,1-3.22,3.447C7.731,18.723,4.646,18.943,2.068,18.943Zm20.7-17.538a2.318,2.318,0,0,0-.318.021,5.442,5.442,0,0,0-2.041.922L13.413,6.7a13.586,13.586,0,0,0-3.53,2.775,13.553,13.553,0,0,0-1.1,1.695,14.531,14.531,0,0,1-1.229,1.882,14.65,14.65,0,0,1-1.93,1.876l-3.033,2.6c2.586-.039,4.875-.343,6.713-1.645a14.082,14.082,0,0,0,2.912-3.148c.534-.7,1.086-1.434,1.705-2.1a13.627,13.627,0,0,1,4.283-3.09,26.288,26.288,0,0,1,3.111-1.117c.794-.247,1.615-.5,2.386-.814A7.677,7.677,0,0,0,27.1,3.26c-.52-.23-1.015-.51-1.5-.783A6.16,6.16,0,0,0,22.764,1.406Z" transform="translate(74.852 166.469) rotate(30)" fill="#b78016"/>
    <path id="Tracé_191" data-name="Tracé 191" d="M.977,16.653a1.4,1.4,0,0,1-.545-.112.7.7,0,0,1,.216-1.348l.545-.044A9,9,0,0,0,2.461,13.9c.183-.2.364-.409.544-.6A15.559,15.559,0,0,1,6.69,10.659,23.261,23.261,0,0,0,8.969,9.227a22.9,22.9,0,0,0,2.823-2.639,25.314,25.314,0,0,1,2.871-2.7C18.557.921,23.78.412,27.977,0a.7.7,0,0,1,.592.231,16.692,16.692,0,0,1,3.958,8.057.7.7,0,0,1-1.292.489,4.42,4.42,0,0,0-2.272-1.488c-3.684-1.462-7.541-2.62-10.791-1.218-2.01.868-3.471,2.563-5.019,4.357a18.909,18.909,0,0,1-4.689,4.336,16.462,16.462,0,0,1-6.89,1.758A1.554,1.554,0,0,1,.977,16.653ZM27.753,1.436c-3.955.387-8.769.924-12.238,3.569a24.007,24.007,0,0,0-2.709,2.554,24.365,24.365,0,0,1-3,2.8,24.662,24.662,0,0,1-2.414,1.521,14.251,14.251,0,0,0-3.366,2.388c-.171.181-.343.374-.516.569l-.065.071a12.01,12.01,0,0,0,4.32-1.354,17.633,17.633,0,0,0,4.325-4.035c1.582-1.835,3.218-3.733,5.525-4.729,3.72-1.605,7.9-.372,11.865,1.2.38.152.763.311,1.129.5A15.259,15.259,0,0,0,27.753,1.436Z" transform="translate(88.957 199.017) rotate(30)" fill="#b78016"/>
    <path id="Tracé_192" data-name="Tracé 192" d="M2.764,28.919a.7.7,0,0,1-.7-.645,29.637,29.637,0,0,1,.7-9.291c.058-.247.12-.495.182-.746C3.785,14.851,4.738,11.013.066,1A.7.7,0,0,1,.738,0c2.632.135,5.348.428,7.1,2.345C9.383,4.03,9.616,6.39,9.714,8.471a13.721,13.721,0,0,1-.274,4.188,14.563,14.563,0,0,1-1.566,3.42,18.627,18.627,0,0,0-1.156,2.267,20,20,0,0,0-.957,3.894c-.407,2.3-.827,4.668-2.482,6.455A.7.7,0,0,1,2.764,28.919ZM1.829,1.478c4.318,9.688,3.3,13.784,2.478,17.1-.061.247-.121.489-.179.731a28.263,28.263,0,0,0-.76,6.678A18.088,18.088,0,0,0,4.379,22a21.109,21.109,0,0,1,1.035-4.171,20.085,20.085,0,0,1,1.24-2.439A13.344,13.344,0,0,0,8.084,12.3a12.387,12.387,0,0,0,.227-3.761C8.225,6.7,8.031,4.632,6.8,3.293,5.64,2.021,3.774,1.64,1.829,1.478Z" transform="translate(113.016 212.475) rotate(30)" fill="#b78016"/>
    <path id="Tracé_193" data-name="Tracé 193" d="M.7,34.615a.7.7,0,0,1-.452-1.239,3.635,3.635,0,0,1,.577-.394c5.382-3.633,11.364-7.768,15.09-13.519.345-.532.684-1.1,1.012-1.643a16.168,16.168,0,0,1,4.406-5.4,16.053,16.053,0,0,1,6-2.1,17.739,17.739,0,0,0,4.849-1.48,19.675,19.675,0,0,0,4.6-3.948C39.013,2.555,41.32.134,44.659,0a.7.7,0,0,1,.617,1.083c-2.795,4.329-5.685,8.807-9.79,12.185a51.005,51.005,0,0,1-5.18,3.592,48.735,48.735,0,0,0-5.13,3.563,50.353,50.353,0,0,0-4.036,3.913c-2.271,2.373-4.619,4.826-7.64,6.337a31.2,31.2,0,0,1-7.624,2.3,18.735,18.735,0,0,0-4.318,1.209l-.463.311A.7.7,0,0,1,.7,34.615ZM43.226,1.666c-2.043.647-3.7,2.383-5.428,4.2a20.7,20.7,0,0,1-4.954,4.217A19.063,19.063,0,0,1,27.618,11.7a14.782,14.782,0,0,0-5.49,1.884C20.4,14.763,19.3,16.6,18.133,18.542c-.334.557-.679,1.132-1.037,1.685-3.049,4.706-7.476,8.321-11.9,11.454l.39-.081a30.11,30.11,0,0,0,7.283-2.182c2.8-1.4,4.966-3.661,7.254-6.052a51.058,51.058,0,0,1,4.153-4.023,49.958,49.958,0,0,1,5.276-3.67,49.957,49.957,0,0,0,5.04-3.489C38.114,9.286,40.75,5.472,43.226,1.666Z" transform="translate(64.111 196.118) rotate(30)" fill="#b78016"/>
    <path id="Tracé_194" data-name="Tracé 194" d="M.707,51.232a.648.648,0,0,1-.125-.011A.7.7,0,0,1,0,50.533c-.02-3.993-.043-8.519,1.838-12.472a28.537,28.537,0,0,1,2.869-4.494,21.706,21.706,0,0,0,3.146-5.261c1.04-2.86.814-5.938.575-9.2C8.19,15.8,7.938,12.372,9.143,9.2c.274-.721.621-1.454.957-2.163.78-1.647,1.526-3.225,1.432-4.663-.142-.491-.286-.982-.429-1.47A.7.7,0,0,1,12.4.373a4.58,4.58,0,0,1,.522,1.735,48.186,48.186,0,0,1,2.3,12.21c.181,7.713-3.028,15.1-5.456,19.992-1.178,2.37-2.435,4.681-3.651,6.915a85.266,85.266,0,0,0-4.744,9.554A.7.7,0,0,1,.707,51.232ZM12.364,5.363c-.289.777-.649,1.539-1,2.27s-.659,1.392-.913,2.061c-1.095,2.886-.866,6.008-.624,9.314.239,3.263.487,6.637-.656,9.78A23.107,23.107,0,0,1,5.845,34.4a27.573,27.573,0,0,0-2.735,4.269,21.127,21.127,0,0,0-1.676,8.443c.985-2.045,2.19-4.259,3.441-6.556,1.21-2.223,2.461-4.521,3.627-6.868,3.805-7.661,5.443-13.624,5.31-19.335A39.284,39.284,0,0,0,12.364,5.363Z" transform="translate(72.74 181.475) rotate(30)" fill="#b78016"/>
    <path id="Tracé_195" data-name="Tracé 195" d="M.7,44.441a.7.7,0,0,1-.624-1.023c1.464-2.851,3.47-6.756,7.064-8.479a17.272,17.272,0,0,1,4.142-1.2c.274-.055.546-.11.817-.167a31.507,31.507,0,0,0,14.4-6.906,52.656,52.656,0,0,0,5.034-5.375c1-1.172,2.033-2.386,3.12-3.526a86.209,86.209,0,0,1,8.809-7.712C47.2,7.075,51.052,4,54.068.261a.7.7,0,0,1,1.17.764A83.012,83.012,0,0,1,11.041,40.2c-.853.318-1.715.624-2.568.928A35.465,35.465,0,0,0,1.1,44.32.708.708,0,0,1,.7,44.441ZM51.139,5.422c-2.177,2.038-4.511,3.9-6.8,5.727a85.4,85.4,0,0,0-8.669,7.582c-1.059,1.113-2.08,2.311-3.068,3.469a53.637,53.637,0,0,1-5.172,5.516,32.915,32.915,0,0,1-15.041,7.227c-.276.058-.553.113-.831.17A16.024,16.024,0,0,0,7.748,36.2c-2.32,1.112-3.877,3.216-5.309,5.766C4.073,41.2,6,40.515,8,39.8c.846-.3,1.7-.6,2.547-.92A81.727,81.727,0,0,0,51.139,5.422Z" transform="translate(52.063 199.429) rotate(30)" fill="#b78016"/>
    <path id="Tracé_196" data-name="Tracé 196" d="M4.152,61.633a.7.7,0,0,1-.592-.323A22.783,22.783,0,0,1,1.183,41.84a46.348,46.348,0,0,1,1.879-4.471c1.315-2.847,2.557-5.536,2.61-8.479a22.417,22.417,0,0,0-1.613-7.367c-1-2.946-2.029-5.993-1.539-9.158A21.344,21.344,0,0,1,3.987,7.741c.96-2.38,1.865-4.628,1.178-6.829A.7.7,0,0,1,6.47.4a45.49,45.49,0,0,1,2.8,30.838c-.234.875-.5,1.754-.754,2.6a34.533,34.533,0,0,0-1.5,6.477,34.592,34.592,0,0,0-.087,3.768c.011.891.023,1.81-.014,2.723a50.9,50.9,0,0,1-.714,5.956l-.025.157c-.471,2.935-.958,5.97-1.326,8.125a.7.7,0,0,1-.552.571A.729.729,0,0,1,4.152,61.633ZM6.611,4.345A23.548,23.548,0,0,1,5.29,8.266,20.282,20.282,0,0,0,3.908,12.58c-.436,2.827.495,5.579,1.482,8.494a23.474,23.474,0,0,1,1.687,7.843c-.058,3.237-1.422,6.189-2.74,9.043a45.321,45.321,0,0,0-1.824,4.333,21.73,21.73,0,0,0,1.271,16.59c.307-1.861.657-4.047,1-6.18l.026-.157a49.82,49.82,0,0,0,.7-5.791c.036-.876.024-1.777.013-2.648a35.375,35.375,0,0,1,.094-3.923,35.564,35.564,0,0,1,1.557-6.745c.253-.84.514-1.708.743-2.562A44.161,44.161,0,0,0,6.611,4.345Z" transform="translate(56.916 181.695) rotate(30)" fill="#b78016"/>
    <path id="Tracé_197" data-name="Tracé 197" d="M12.2,54.791a.7.7,0,0,1-.6-.336C8.086,48.7,4.1,42.169,3.075,34.918c-.223-1.584-.3-3.2-.383-4.759a32.474,32.474,0,0,0-.869-7.082c-.192-.692-.437-1.4-.675-2.075a19.275,19.275,0,0,1-1.072-3.97c-.445-3.617,1.133-7.167,2.4-10.019L5.408.417A.7.7,0,0,1,6.048,0h0a.7.7,0,0,1,.64.414C8.88,5.282,8.553,10.726,8.237,15.991c-.044.734-.088,1.466-.125,2.193A98.24,98.24,0,0,0,12.87,53.867a.7.7,0,0,1-.37.859A.709.709,0,0,1,12.2,54.791ZM6.007,2.529,3.761,7.582c-1.2,2.694-2.687,6.047-2.29,9.278a17.913,17.913,0,0,0,1,3.678c.246.7.5,1.427.7,2.165a33.942,33.942,0,0,1,.918,7.385c.077,1.53.156,3.112.371,4.633C5.177,39.761,7.42,44.5,9.912,48.876a100.512,100.512,0,0,1-3.2-30.763c.037-.731.081-1.467.126-2.206C7.107,11.376,7.388,6.709,6.007,2.529Z" transform="translate(36.621 191.377) rotate(30)" fill="#b78016"/>
    <path id="Tracé_198" data-name="Tracé 198" d="M.7,18.944a.7.7,0,0,1-.426-1.26,11.969,11.969,0,0,0,2.815-3.332A9.159,9.159,0,0,1,5.333,11.67a8.73,8.73,0,0,1,3.226-1.22c.2-.047.4-.093.6-.142,3.815-.941,7.14-2.959,10.661-5.094A54.776,54.776,0,0,1,27.976.876a9.262,9.262,0,0,1,4.88-.79.7.7,0,0,1,.019,1.38c-3.752.753-6.462,3.612-9.332,6.638-.939.991-1.911,2.016-2.912,2.946A29.854,29.854,0,0,1,.706,18.944ZM27.067,2.792a65.474,65.474,0,0,0-6.516,3.622C17.1,8.51,13.522,10.678,9.5,11.67c-.207.051-.415.1-.625.148a7.564,7.564,0,0,0-2.726.994,8.06,8.06,0,0,0-1.877,2.3,18.025,18.025,0,0,1-1.709,2.354,28.477,28.477,0,0,0,17.113-7.443c.969-.9,1.925-1.908,2.849-2.883A42.822,42.822,0,0,1,27.067,2.792Z" transform="translate(29.521 228.915) rotate(30)" fill="#b78016"/>
    <path id="Tracé_199" data-name="Tracé 199" d="M21.495,13.266a.7.7,0,0,1-.649-.434,9.874,9.874,0,0,0-5.064-5.2,4.928,4.928,0,0,0-2.736-.5A7.119,7.119,0,0,0,11,7.939l-.3.156A27.3,27.3,0,0,1,.762,10.924.7.7,0,0,1,.2,9.739C.71,9.2,1.207,8.675,1.691,8.162,4.863,4.8,7.6,1.9,11.2.509A6.476,6.476,0,0,1,13.756,0a6.349,6.349,0,0,1,4.249,2.351c2.545,2.861,3.542,6.7,4.18,10.079a.7.7,0,0,1-.49.8A.687.687,0,0,1,21.495,13.266ZM13.558,1.4a5.163,5.163,0,0,0-1.848.415C8.4,3.1,5.892,5.758,2.712,9.127l-.151.159a25.92,25.92,0,0,0,7.5-2.442l.3-.152a8.243,8.243,0,0,1,2.467-.948,6.29,6.29,0,0,1,3.53.606,11.185,11.185,0,0,1,3.532,2.5,14.827,14.827,0,0,0-2.928-5.557,5.02,5.02,0,0,0-3.262-1.882Z" transform="translate(46.408 238.936) rotate(30)" fill="#b78016"/>
    <path id="Tracé_200" data-name="Tracé 200" d="M16.563,42.09a.7.7,0,0,1-.579-.3c-3.468-5.026-6.8-10.243-9.911-15.506a13.6,13.6,0,0,1-2.1-5.074,14.054,14.054,0,0,1,.006-2.874,17.371,17.371,0,0,0,.069-1.967,18.943,18.943,0,0,0-2-6.551C.727,6.827-.632,3.736.317.5A.7.7,0,0,1,1.374.113c2.457,1.6,4.374,4.339,5.7,8.153.506,1.459.9,2.965,1.291,4.421.425,1.607.866,3.268,1.446,4.837.5,1.339,1.115,2.671,1.714,3.957.412.886.838,1.8,1.225,2.722a76.979,76.979,0,0,1,4.1,15.053c.135.678.267,1.344.4,1.992a.7.7,0,0,1-.414.786A.687.687,0,0,1,16.563,42.09ZM1.455,1.913c-.3,2.4.76,4.807,1.873,7.337a19.949,19.949,0,0,1,2.12,7.058,18.552,18.552,0,0,1-.071,2.125,12.8,12.8,0,0,0-.016,2.588,12.5,12.5,0,0,0,1.922,4.545c2.506,4.245,5.16,8.458,7.914,12.566a69.752,69.752,0,0,0-3.741-13.385c-.377-.9-.8-1.8-1.2-2.672-.612-1.313-1.243-2.67-1.758-4.064-.6-1.632-1.052-3.326-1.486-4.964-.379-1.432-.771-2.911-1.26-4.319A15.015,15.015,0,0,0,1.455,1.913Z" transform="translate(13.975 215.11) rotate(30)" fill="#b78016"/>
    <path id="Tracé_201" data-name="Tracé 201" d="M.7,16.753a.7.7,0,0,1-.636-1c.248-.53.494-1.182.779-1.937A21.6,21.6,0,0,1,4.525,6.91a22.889,22.889,0,0,1,6.652-4.644L15.291.082a.7.7,0,0,1,.871,1.067,23.142,23.142,0,0,0-2.747,4.712,19.576,19.576,0,0,1-3.784,5.9,19.56,19.56,0,0,1-5.473,3.324,33.664,33.664,0,0,0-3.094,1.569A.7.7,0,0,1,.7,16.753Zm12.78-14.12-1.646.874A21.492,21.492,0,0,0,5.577,7.84a20.47,20.47,0,0,0-3.419,6.471l-.077.2c.495-.244.992-.475,1.483-.7a18.245,18.245,0,0,0,5.1-3.066A18.236,18.236,0,0,0,12.15,5.25C12.571,4.378,13,3.492,13.482,2.632Z" transform="translate(16.674 245.486) rotate(30)" fill="#b78016"/>
    <path id="Tracé_202" data-name="Tracé 202" d="M.7,17.67a.7.7,0,0,1-.612-1.048C6.777,4.815,9.21,3.11,11.916,1.989A35.64,35.64,0,0,1,20.248.008a.7.7,0,0,1,.285,1.372c-2.86.75-4.78,3.166-6.812,5.724-.633.8-1.287,1.621-1.967,2.379C8.719,12.877,4.83,15.261,1.069,17.567A.7.7,0,0,1,.7,17.67ZM16.336,2.115a22.58,22.58,0,0,0-3.882,1.17c-2.188.906-4.34,2.39-9.754,11.62a36.991,36.991,0,0,0,8.009-6.358C11.36,7.82,12,7.012,12.622,6.231A29.14,29.14,0,0,1,16.336,2.115Z" transform="translate(27.52 244.857) rotate(30)" fill="#b78016"/>
    <path id="Tracé_203" data-name="Tracé 203" d="M.7,44.456a.81.81,0,0,1-.114-.009A.7.7,0,0,1,0,43.73c.149-4.49.506-8.778,3.209-11.9a18.4,18.4,0,0,1,3.954-3.166c.6-.393,1.214-.8,1.788-1.223,3.067-2.268,5.317-5.3,7.7-8.512a51.875,51.875,0,0,1,6.059-7.206c1.1-1.027,2.321-1.991,3.5-2.923C29.338,6.326,32.292,3.99,33.4.491A.7.7,0,0,1,34.769.7C34.786,4.9,32.709,8.825,30.9,11.77A68.742,68.742,0,0,1,14.964,29.718c-.866.686-1.774,1.377-2.652,2.044-4.641,3.53-9.439,7.18-10.937,12.192A.7.7,0,0,1,.7,44.456Zm32.06-39.84A31.934,31.934,0,0,1,27.081,9.9c-1.158.915-2.355,1.862-3.415,2.849a50.877,50.877,0,0,0-5.888,7.017c-2.338,3.152-4.757,6.411-7.991,8.8-.6.446-1.238.864-1.851,1.267A17.092,17.092,0,0,0,4.27,32.75c-1.682,1.941-2.345,4.5-2.64,7.3,2.3-3.68,6.113-6.583,9.83-9.41.873-.664,1.776-1.35,2.632-2.028A67.339,67.339,0,0,0,29.7,11.035,27.605,27.605,0,0,0,32.762,4.615Z" transform="translate(17.797 241.018) rotate(30)" fill="#b78016"/>
    <path id="Tracé_204" data-name="Tracé 204" d="M11.3,26.241a.7.7,0,0,1-.681-.532c-.247-1-1.995-3.329-4.383-5.359-.374-.319-.761-.627-1.148-.937a14.3,14.3,0,0,1-3.755-3.874C-.129,12.989.089,10.062.3,7.232A17.657,17.657,0,0,0,.03.906.7.7,0,0,1,1.189.2C3.5,2.414,4.835,5.443,6.013,8.114L8.079,12.8c1.686,3.824,3.6,8.158,3.922,12.689a.7.7,0,0,1-.591.744A.757.757,0,0,1,11.3,26.241ZM1.822,3.109A30.821,30.821,0,0,1,1.7,7.337c-.205,2.74-.4,5.327.849,7.5a13.064,13.064,0,0,0,3.414,3.475c.4.319.8.637,1.181.964a24.57,24.57,0,0,1,2.927,2.946,51.789,51.789,0,0,0-3.279-8.86L4.728,8.681A32.547,32.547,0,0,0,1.822,3.109Z" transform="translate(-0.969 250.637) rotate(30)" fill="#b78016"/>
    <path id="Tracé_205" data-name="Tracé 205" d="M1.9,44.062a.7.7,0,0,1-.685-.547c-.882-3.9-1.98-8.749-.475-13.143a23.987,23.987,0,0,1,2.973-5.435l11.4-17.119a11.463,11.463,0,0,1,2.641-3.076,11.479,11.479,0,0,1,3.465-1.511L31.666.031a.7.7,0,0,1,.83.992l-6.5,12.628a.7.7,0,0,1-1.117.18c-.9-.884-2.712.011-3.709.622-4.9,3-10.462,6.4-13.8,11.507C3.927,31.214,3.105,37.728,2.6,43.421a.7.7,0,0,1-.652.639Zm28.579-42.2L21.64,4.575a10.252,10.252,0,0,0-3.051,1.3,10.248,10.248,0,0,0-2.3,2.719L4.887,25.716a23.023,23.023,0,0,0-2.814,5.112A16.8,16.8,0,0,0,1.7,38.742c.627-4.612,1.786-9.416,4.491-13.551C9.7,19.816,15.405,16.33,20.435,13.255c2.256-1.38,3.73-1.382,4.672-.949Z" transform="translate(10.307 262.873) rotate(30)" fill="#b78016"/>
    <path id="Tracé_206" data-name="Tracé 206" d="M4.235,31.428a.7.7,0,0,1-.657-.458,19.863,19.863,0,0,1-1.242-7.295c.007-.393.026-.788.045-1.181a15.96,15.96,0,0,0-.009-2.545A16.209,16.209,0,0,0,.086,14.126a.7.7,0,0,1,1.232-.675,17.542,17.542,0,0,1,2.45,6.344,17.3,17.3,0,0,1,.016,2.766c-.018.38-.036.76-.043,1.138s0,.784.017,1.177a44.907,44.907,0,0,1,2.014-6.145A36.639,36.639,0,0,0,8.024,11.3,16.9,16.9,0,0,0,6.285,1.029.7.7,0,0,1,7.527.376,18.305,18.305,0,0,1,9.413,11.509a37.718,37.718,0,0,1-2.329,7.722C5.6,23.116,4.2,26.785,4.925,30.594a.7.7,0,0,1-.69.834Z" transform="translate(31.775 275.295) rotate(30)" fill="#b78016"/>
  </g>
</svg>
